<svg width="1280" height="720" viewBox="0 0 1280 720" fill="none" xmlns="http://www.w3.org/2000/svg">
<rect width="1280" height="720" fill="#1A1A1A"/>
<path d="M355.037 419.359C355.037 425.79 353.455 431.635 350.291 436.897C347.01 442.041 342.674 446.133 337.283 449.173C331.892 452.213 325.857 453.733 319.177 453.733L264.333 453.558C257.887 453.558 252.028 452.096 246.754 449.173C241.363 446.133 237.086 442.041 233.922 436.897C230.641 431.635 229 425.79 229 419.359C229 412.928 230.582 407.141 233.746 401.997C236.91 396.852 241.188 392.76 246.578 389.72C251.852 386.68 257.77 385.16 264.333 385.16H272.419C272.887 385.16 273.122 385.394 273.122 385.862V405.504C273.122 405.972 272.887 406.206 272.419 406.206H264.333C260.465 406.206 257.125 407.492 254.313 410.064C251.5 412.519 250.094 415.618 250.094 419.359C250.094 423.568 251.559 426.783 254.489 429.005C257.301 431.226 260.583 432.337 264.333 432.337L319.177 432.337C323.513 432.337 327.029 431.109 329.724 428.654C332.42 426.082 333.767 422.983 333.767 419.359C333.767 415.618 332.303 412.519 329.373 410.064C326.326 407.492 322.927 406.206 319.177 406.206H311.091C310.622 406.206 310.388 405.972 310.388 405.504V385.686C310.388 385.219 310.622 384.985 311.091 384.985H319.177C325.857 384.985 331.892 386.563 337.283 389.72C342.674 392.76 347.01 396.852 350.291 401.997C353.455 407.141 355.037 412.928 355.037 419.359Z" fill="white"/>
<path d="M355.037 339.715C355.037 346.029 353.455 351.816 350.291 357.078C347.01 362.222 342.732 366.373 337.459 369.53C332.068 372.686 326.15 374.265 319.705 374.265L263.981 374.09C257.536 374.09 251.676 372.57 246.403 369.53C241.129 366.373 236.91 362.164 233.746 356.902C230.582 351.641 229 345.912 229 339.715C229 333.402 230.582 327.673 233.746 322.528C236.91 317.384 241.129 313.292 246.403 310.252C251.676 307.095 257.536 305.517 263.981 305.517L319.705 305.341C326.15 305.341 332.068 306.92 337.459 310.076C342.732 313.116 347.01 317.267 350.291 322.528C353.455 327.673 355.037 333.402 355.037 339.715ZM333.767 339.715C333.767 336.208 332.361 333.168 329.549 330.596C326.619 327.907 323.338 326.562 319.705 326.562L263.981 326.737C260.114 326.737 256.833 327.965 254.137 330.42C251.442 332.876 250.094 335.974 250.094 339.715C250.094 343.34 251.442 346.438 254.137 349.01C256.715 351.583 259.997 352.869 263.981 352.869H319.705C323.572 352.869 326.912 351.583 329.724 349.01C332.42 346.438 333.767 343.34 333.767 339.715Z" fill="white"/>
<path d="M353.279 290.429C353.279 291.364 352.869 291.832 352.049 291.832L232.34 292.007C231.402 292.007 230.934 291.539 230.934 290.604L230.934 274.82L300.193 245.181L232.34 246.058C231.402 246.058 230.934 245.532 230.934 244.48L230.934 227.117C230.934 226.416 231.402 226.065 232.34 226.065L352.225 225.889C352.928 225.889 353.279 226.182 353.279 226.766V242.2L288.591 272.54L351.873 271.312C352.811 271.312 353.279 271.839 353.279 272.891V290.429Z" fill="white"/>
<path d="M369.58 454.785C367.825 454.785 366.947 454.019 366.947 452.487L366.618 228.91C366.618 227.159 367.495 226.283 369.251 226.283H398.867L454.479 355.636L452.834 228.91C452.834 227.159 453.821 226.283 455.795 226.283H488.373C489.689 226.283 490.348 227.159 490.348 228.91L490.677 452.816C490.677 454.129 490.128 454.785 489.031 454.785H460.073L403.145 333.968L405.448 452.159C405.448 453.91 404.461 454.785 402.486 454.785H369.58Z" fill="#25DD1F"/>
<path d="M520.578 454.785C519.701 454.785 519.262 454.238 519.262 453.144L519.591 227.596C519.591 226.721 520.03 226.283 520.907 226.283H626.538C627.416 226.283 627.854 226.83 627.854 227.925V264.695C627.854 265.571 627.416 266.008 626.538 266.008H559.079V317.224H626.538C627.416 317.224 627.854 317.662 627.854 318.538L628.183 355.636C628.183 356.512 627.745 356.95 626.867 356.95H559.079V414.404H626.867C627.745 414.404 628.183 414.951 628.183 416.045V453.472C628.183 454.348 627.745 454.785 626.867 454.785H520.578Z" fill="#25DD1F"/>
<path d="M640.174 454.785C639.296 454.785 638.967 454.238 639.187 453.144L676.7 335.938L639.845 227.596C639.625 226.721 639.954 226.283 640.832 226.283H677.688C678.784 226.283 679.443 226.721 679.662 227.596L701.71 305.734L724.086 227.596C724.306 226.721 724.964 226.283 726.061 226.283H762.587C763.465 226.283 763.794 226.721 763.574 227.596L726.719 335.61L773.859 493.556C774.012 494.067 773.942 494.619 773.667 495.076C773.323 495.649 772.702 496 772.032 496H736.256C735.379 496 734.72 495.453 734.282 494.358L701.71 368.44L679.004 453.144C678.784 454.238 678.126 454.785 677.029 454.785H640.174Z" fill="white"/>
<path d="M840.751 458.068C829.124 458.068 818.374 455.114 808.502 449.204C798.63 443.076 790.733 434.977 784.81 424.909C779.106 414.841 776.254 403.788 776.254 391.75L776.912 227.596C776.912 226.721 777.351 226.283 778.228 226.283H815.084C815.961 226.283 816.4 226.721 816.4 227.596V391.75C816.4 399.192 818.703 405.539 823.31 410.792C828.137 415.826 833.95 418.343 840.751 418.343C847.771 418.343 853.585 415.826 858.192 410.792C863.018 405.539 865.431 399.192 865.431 391.75V227.596C865.431 226.721 865.87 226.283 866.747 226.283H903.603C904.481 226.283 904.919 226.721 904.919 227.596L905.578 391.75C905.578 404.007 902.616 415.17 896.693 425.238C890.989 435.306 883.201 443.295 873.329 449.204C863.676 455.114 852.817 458.068 840.751 458.068Z" fill="#25DD1F"/>
<path d="M987.503 458.069C975.656 458.069 964.797 455.114 954.925 449.204C945.272 443.076 937.484 435.087 931.561 425.238C925.857 415.17 923.005 404.117 923.005 392.079V376.976C923.005 375.882 923.554 375.335 924.651 375.335H961.506C962.384 375.335 962.822 375.882 962.822 376.976V392.079C962.822 399.301 965.236 405.539 970.062 410.792C974.888 415.826 980.702 418.343 987.503 418.343C994.303 418.343 1000.12 415.717 1004.94 410.464C1009.77 405.211 1012.18 399.082 1012.18 392.079C1012.18 383.98 1006.92 376.976 996.387 371.067C992.877 369.097 987.393 366.033 979.934 361.874C972.475 357.716 965.455 353.776 958.874 350.055C946.808 343.051 937.813 334.296 931.89 323.791C926.186 313.066 923.334 301.028 923.334 287.677C923.334 275.42 926.296 264.476 932.219 254.846C938.142 244.997 945.93 237.227 955.583 231.536C965.455 225.845 976.095 223 987.503 223C999.13 223 1009.77 225.955 1019.42 231.864C1029.29 237.555 1037.08 245.325 1042.79 255.174C1048.71 264.805 1051.67 275.639 1051.67 287.677V314.598C1051.67 315.473 1051.23 315.911 1050.35 315.911H1013.5C1012.62 315.911 1012.18 315.473 1012.18 314.598L1011.85 287.677C1011.85 280.016 1009.44 273.778 1004.61 268.963C999.788 264.148 994.084 261.74 987.503 261.74C980.702 261.74 974.888 264.367 970.062 269.62C965.236 274.654 962.822 280.673 962.822 287.677C962.822 294.899 964.358 300.918 967.43 305.734C970.501 310.549 976.095 315.145 984.212 319.523C985.309 320.179 987.393 321.383 990.464 323.134C993.755 324.666 997.265 326.526 1000.99 328.715C1004.72 330.685 1008.01 332.436 1010.87 333.968C1013.94 335.5 1015.8 336.485 1016.46 336.923C1027.43 343.051 1036.1 350.602 1042.46 359.576C1048.82 368.331 1052 379.165 1052 392.079C1052 404.554 1049.04 415.826 1043.12 425.894C1037.41 435.744 1029.62 443.623 1019.75 449.532C1010.1 455.223 999.349 458.069 987.503 458.069Z" fill="#25DD1F"/>
<path d="M229.504 468.868C229.504 466.787 231.195 465.1 233.281 465.1H760.626C762.712 465.1 764.403 466.787 764.403 468.868V492.224C764.403 494.304 762.712 495.991 760.626 495.991H233.281C231.195 495.991 229.504 494.304 229.504 492.224V468.868Z" fill="white"/>
</svg>
