<svg width="281" height="273" viewBox="0 0 281 273" fill="none" xmlns="http://www.w3.org/2000/svg">
<path fill-rule="evenodd" clip-rule="evenodd" d="M207.32 1.87499C192.57 6.26727 183.079 11.7119 174.584 20.6527C168.374 27.1897 165.513 31.7696 162.9 39.3583C158.603 51.838 158.564 63.5325 162.772 77.4993L164.561 83.4347L171.598 83.0387C195.971 81.6652 212.841 67.1322 218.059 43.0141C219.716 35.3513 220.011 22.7166 218.731 14.1397C217.287 4.46576 216.131 0.146254 214.948 0.00336174C214.421 -0.0600719 210.988 0.78193 207.32 1.87499ZM206.047 18.9086C206.869 23.2929 205.847 37.8138 204.346 43.0715C201.25 53.9207 195.311 61.6816 186.974 65.7727C181.718 68.3515 175.324 69.8519 174.235 68.7615C172.935 67.4607 172.712 54.7753 173.89 49.1952C176.551 36.5939 184.908 26.2636 197.578 19.9142C201.351 18.0239 204.698 16.4768 205.015 16.4768C205.332 16.4768 205.797 17.5712 206.047 18.9086ZM219.532 71.2541C206.43 74.4792 194.29 82.8164 185.599 94.5576L182.418 98.8557L185.321 102.632C190.069 108.809 197.753 115.527 203.456 118.489C211.497 122.664 215.399 123.604 224.663 123.596C234.52 123.587 238.429 122.586 249.345 117.274C259.083 112.537 267.048 106.617 274.632 98.4811L280.334 92.3648L277.585 89.977C268.715 82.2735 258.556 75.9582 250.569 73.1838C240.432 69.6616 228.913 68.9457 219.532 71.2541ZM242.319 84.6232C249.641 86.6544 260.729 92.467 260.217 94.0054C259.849 95.1098 249.407 102.584 245.009 104.89C235.92 109.656 225.763 111.617 218.373 110.03C213.094 108.897 207.143 105.811 202.984 102.049L199.315 98.7322L201.649 96.279C206.788 90.8798 215.149 85.9914 222.151 84.2934C228.016 82.8711 236.502 83.01 242.319 84.6232Z" fill="#FF6600"/>
<path d="M131.919 83.1472L129.725 109.202L64.4049 115.962L42.2491 143.953L32.7911 206.362L15.5441 210.997C13.5981 211.53 11.519 210.596 10.5729 208.799C4.43715 197.069 0.842608 183.987 0.30206 170.444C0.249408 168.398 1.56636 166.568 3.5474 166.045L24.0546 162.129C24.7306 153.579 26.5438 146.43 30.2343 138.688L14.7837 124.121C13.3297 122.678 13.0693 120.425 14.1734 118.689C21.4237 107.197 31.0787 97.666 42.2491 90.6115C43.9763 89.4937 46.1992 89.7508 47.6532 91.1943L62.2082 106.147C69.9573 102.466 76.3248 97.9002 84.8497 97.2119L89.4874 78.1562C90.0144 76.1899 91.8425 74.8358 93.8833 74.9311C93.8833 74.9311 117.633 71.829 129.725 78.156C131.54 79.094 132.446 81.1809 131.919 83.1472Z" fill="#FF6600"/>
<path d="M81.8537 265.367L79.5637 237.771L113.616 239.127L147.282 219.141L160.968 189.772L165.832 156.632L155.78 127.666L174.141 117.542C175.963 116.677 178.174 117.232 179.42 118.835C187.516 129.309 193.348 141.558 196.253 154.797C196.663 156.802 195.687 158.835 193.829 159.697L174.325 167.146C175.158 175.682 174.625 183.038 172.349 191.307L190.113 202.941C191.797 204.107 192.448 206.279 191.665 208.182C186.541 220.767 178.705 231.842 168.944 240.745C167.439 242.148 165.206 242.284 163.521 241.118L146.571 228.947C139.587 233.929 134.118 239.54 125.846 241.712L122.204 266.821C122.03 268.849 120.467 270.503 118.441 270.767C105.58 272.507 97.902 274.007 84.8882 269.897C82.937 269.291 81.6794 267.395 81.8537 265.367Z" fill="#FF6600"/>
<path d="M44.2336 148.869C31.8815 178.033 45.5871 201.207 54.8525 211.861L35.3367 214.438C18.2222 190.761 18.4246 156.009 32.7537 131.116C48.2053 104.274 102.114 74.5414 146.117 111.932C189.244 148.579 174.409 194.928 163.337 211.861C134.026 256.989 87.4107 250.48 68.0543 241.639L67.4803 222.169C96.1799 238.203 128.897 229.9 146.117 206.421C163.337 182.942 161.041 146.578 134.637 125.39C108.234 104.201 59.9158 111.841 44.2336 148.869Z" fill="#FF6600"/>
<path d="M42.5116 237.058C33.0981 229.041 33.806 218.065 35.3367 213.579L54.8525 211.861C52.9392 214.82 50.2605 221.539 54.8524 224.746C59.4444 227.953 65.1843 224.364 67.4803 222.169L68.9153 241.353C64.0363 243.262 51.9251 245.075 42.5116 237.058Z" fill="#FF6600"/>
</svg>
