<svg width="184" height="60" viewBox="0 0 184 60" fill="none" xmlns="http://www.w3.org/2000/svg">
<path d="M28.1784 43.1558C28.1784 44.5691 27.8247 45.854 27.1173 47.0103C26.3837 48.1409 25.4143 49.0403 24.2091 49.7084C23.0039 50.3765 21.6546 50.7106 20.1612 50.7106L7.8994 50.672C6.45838 50.672 5.14836 50.3508 3.96935 49.7084C2.76414 49.0403 1.80782 48.1409 1.10041 47.0103C0.366805 45.854 8.43121e-07 44.5691 7.80132e-07 43.1558C7.17143e-07 41.7425 0.353705 40.4706 1.06111 39.3399C1.76852 38.2093 2.72483 37.3099 3.93005 36.6418C5.10906 35.9737 6.43218 35.6396 7.8994 35.6396H9.70722C9.81202 35.6396 9.86442 35.691 9.86442 35.7938V40.1108C9.86442 40.2136 9.81202 40.265 9.70722 40.265H7.8994C7.03479 40.265 6.28808 40.5476 5.65927 41.113C5.03046 41.6526 4.71606 42.3335 4.71606 43.1558C4.71606 44.0809 5.04356 44.7876 5.69857 45.2758C6.32738 45.764 7.06099 46.0081 7.8994 46.0081L20.1612 46.0081C21.1306 46.0081 21.9166 45.7383 22.5192 45.1987C23.1218 44.6334 23.4231 43.9524 23.4231 43.1558C23.4231 42.3335 23.0956 41.6526 22.4406 41.113C21.7594 40.5476 20.9996 40.265 20.1611 40.265H18.3533C18.2485 40.265 18.1961 40.2136 18.1961 40.1108V35.7553C18.1961 35.6525 18.2485 35.6011 18.3533 35.6011H20.1611C21.6546 35.6011 23.0039 35.948 24.2091 36.6418C25.4143 37.3099 26.3837 38.2093 27.1173 39.3399C27.8247 40.4706 28.1784 41.7425 28.1784 43.1558Z" fill="white"/>
<path d="M28.1784 25.6517C28.1784 27.0393 27.8247 28.3113 27.1173 29.4677C26.3837 30.5983 25.4274 31.5105 24.2484 32.2043C23.0432 32.8981 21.7201 33.245 20.2791 33.245L7.8208 33.2065C6.37978 33.2065 5.06976 32.8724 3.89075 32.2043C2.71173 31.5105 1.76852 30.5855 1.06111 29.4291C0.353705 28.2728 6.06984e-08 27.0136 0 25.6517C-6.18436e-08 24.2641 0.353704 23.005 1.06111 21.8744C1.76852 20.7437 2.71173 19.8443 3.89075 19.1762C5.06976 18.4824 6.37978 18.1355 7.8208 18.1355L20.2791 18.097C21.7201 18.097 23.0432 18.4439 24.2484 19.1377C25.4274 19.8058 26.3837 20.718 27.1173 21.8744C27.8247 23.005 28.1784 24.2641 28.1784 25.6517ZM23.4231 25.6517C23.4231 24.8808 23.1087 24.2127 22.4799 23.6474C21.8249 23.0564 21.0913 22.7609 20.2791 22.7609L7.8208 22.7994C6.95619 22.7994 6.22258 23.0692 5.61997 23.6089C5.01736 24.1485 4.71606 24.8295 4.71606 25.6517C4.71606 26.4483 5.01736 27.1293 5.61997 27.6946C6.19638 28.2599 6.92998 28.5426 7.8208 28.5426H20.2791C21.1437 28.5426 21.8904 28.2599 22.5192 27.6946C23.1218 27.1293 23.4231 26.4483 23.4231 25.6517Z" fill="white"/>
<path d="M27.7854 14.8195C27.7854 15.0251 27.6937 15.1278 27.5103 15.1278L0.746709 15.1664C0.537106 15.1664 0.432304 15.0636 0.432304 14.858L0.432304 11.389L15.9167 4.87496L0.746708 5.06769C0.537105 5.06769 0.432304 4.95205 0.432304 4.72079L0.432303 0.904865C0.432303 0.750687 0.537105 0.673598 0.746708 0.673598L27.5496 0.635052C27.7068 0.635052 27.7854 0.699293 27.7854 0.827775V4.21971L13.3229 10.8879L27.471 10.6181C27.6806 10.6181 27.7854 10.7338 27.7854 10.965V14.8195Z" fill="white"/>
<path d="M31.4297 50.9418C31.0373 50.9418 30.8411 50.7735 30.8411 50.4368L30.7676 1.2988C30.7676 0.913971 30.9638 0.721555 31.3561 0.721555H37.9775L50.4109 29.1509L50.043 1.2988C50.043 0.913971 50.2638 0.721555 50.7052 0.721555H57.9887C58.2829 0.721555 58.4301 0.913971 58.4301 1.2988L58.5037 50.5089C58.5037 50.7975 58.381 50.9418 58.1358 50.9418H51.6616L38.9339 24.3886L39.4489 50.3646C39.4489 50.7494 39.2282 50.9418 38.7868 50.9418H31.4297Z" fill="#6031FF"/>
<path d="M65.1888 50.9418C64.9926 50.9418 64.8945 50.8216 64.8945 50.5811L64.9681 1.01018C64.9681 0.817763 65.0662 0.721555 65.2624 0.721555H88.8785C89.0747 0.721555 89.1728 0.841814 89.1728 1.08233V9.16376C89.1728 9.35617 89.0747 9.45238 88.8785 9.45238H73.7965V20.7087H88.8785C89.0747 20.7087 89.1728 20.8049 89.1728 20.9973L89.2464 29.1509C89.2464 29.3433 89.1483 29.4395 88.9521 29.4395H73.7965V42.0667H88.9521C89.1483 42.0667 89.2464 42.187 89.2464 42.4275V50.6532C89.2464 50.8456 89.1483 50.9418 88.9521 50.9418H65.1888Z" fill="#6031FF"/>
<path d="M91.9271 50.9418C91.7309 50.9418 91.6573 50.8216 91.7064 50.5811L100.093 24.8215L91.8535 1.01018C91.8045 0.817763 91.878 0.721555 92.0742 0.721555H100.314C100.559 0.721555 100.706 0.817763 100.756 1.01018L105.685 18.1832L110.688 1.01018C110.737 0.817763 110.884 0.721555 111.129 0.721555H119.295C119.491 0.721555 119.565 0.817763 119.516 1.01018L111.276 24.7494L121.815 59.4629C121.85 59.5752 121.834 59.6965 121.772 59.797C121.695 59.9229 121.557 60 121.407 60H113.408C113.212 60 113.065 59.8797 112.967 59.6392L105.685 31.9649L100.608 50.5811C100.559 50.8216 100.412 50.9418 100.167 50.9418H91.9271Z" fill="white"/>
<path d="M136.771 51.6634C134.171 51.6634 131.768 51.014 129.561 49.7152C127.354 48.3683 125.588 46.5885 124.264 44.3757C122.988 42.1629 122.351 39.7337 122.351 37.088L122.498 1.01018C122.498 0.817763 122.596 0.721555 122.792 0.721555H131.032C131.228 0.721555 131.326 0.817763 131.326 1.01018V37.088C131.326 38.7235 131.841 40.1185 132.871 41.273C133.95 42.3794 135.25 42.9326 136.771 42.9326C138.34 42.9326 139.64 42.3794 140.67 41.273C141.749 40.1185 142.288 38.7235 142.288 37.088V1.01018C142.288 0.817763 142.386 0.721555 142.583 0.721555H150.823C151.019 0.721555 151.117 0.817763 151.117 1.01018L151.264 37.088C151.264 39.7818 150.602 42.2351 149.278 44.4478C148.002 46.6606 146.261 48.4164 144.054 49.7152C141.896 51.014 139.468 51.6634 136.771 51.6634Z" fill="#6031FF"/>
<path d="M169.58 51.6634C166.932 51.6634 164.504 51.014 162.297 49.7152C160.139 48.3683 158.397 46.6125 157.073 44.4478C155.798 42.2351 155.16 39.8058 155.16 37.1601V33.841C155.16 33.6005 155.283 33.4802 155.528 33.4802H163.768C163.964 33.4802 164.062 33.6005 164.062 33.841V37.1601C164.062 38.7476 164.602 40.1185 165.681 41.273C166.76 42.3794 168.06 42.9326 169.58 42.9326C171.101 42.9326 172.4 42.3553 173.479 41.2008C174.558 40.0463 175.098 38.6994 175.098 37.1601C175.098 35.3803 173.921 33.841 171.567 32.5422C170.782 32.1092 169.556 31.4358 167.888 30.5218C166.22 29.6078 164.651 28.742 163.18 27.9242C160.482 26.3849 158.471 24.4607 157.147 22.1518C155.872 19.7947 155.234 17.149 155.234 14.2147C155.234 11.5208 155.896 9.11566 157.22 6.99909C158.545 4.83442 160.286 3.12674 162.444 1.87605C164.651 0.625349 167.03 0 169.58 0C172.18 0 174.558 0.6494 176.717 1.9482C178.924 3.1989 180.665 4.90658 181.94 7.07125C183.264 9.18781 183.926 11.5689 183.926 14.2147V20.1314C183.926 20.3238 183.828 20.42 183.632 20.42H175.392C175.196 20.42 175.098 20.3238 175.098 20.1314L175.024 14.2147C175.024 12.531 174.485 11.1601 173.406 10.1018C172.327 9.0435 171.052 8.51436 169.58 8.51436C168.06 8.51436 166.76 9.09161 165.681 10.2461C164.602 11.3525 164.062 12.6753 164.062 14.2147C164.062 15.8021 164.406 17.1249 165.092 18.1832C165.779 19.2415 167.03 20.2517 168.844 21.2137C169.09 21.3581 169.556 21.6226 170.242 22.0075C170.978 22.3442 171.763 22.7531 172.597 23.2341C173.43 23.667 174.166 24.0519 174.804 24.3886C175.49 24.7253 175.907 24.9418 176.054 25.038C178.507 26.3849 180.444 28.0445 181.866 30.0167C183.289 31.9409 184 34.322 184 37.1601C184 39.902 183.338 42.3794 182.014 44.5922C180.738 46.7568 178.997 48.4886 176.79 49.7874C174.632 51.0381 172.229 51.6634 169.58 51.6634Z" fill="#6031FF"/>
<path d="M0.112607 54.0368C0.112607 53.5796 0.490726 53.2089 0.95716 53.2089H118.857C119.323 53.2089 119.701 53.5796 119.701 54.0368V59.1701C119.701 59.6273 119.323 59.998 118.857 59.998H0.957159C0.490725 59.998 0.112607 59.6273 0.112607 59.1701V54.0368Z" fill="white"/>
</svg>
