<svg width="783" height="306" viewBox="0 0 783 306" fill="none" xmlns="http://www.w3.org/2000/svg">
<path d="M502.209 168.833C485.252 208.965 504.067 240.853 516.787 255.513L489.995 259.059C466.5 226.478 466.778 178.659 486.449 144.405C507.661 107.469 581.669 66.5562 642.079 118.008C701.285 168.434 680.918 232.213 665.719 255.513C625.479 317.611 561.484 308.655 534.911 296.489L534.123 269.697C573.523 291.761 618.439 280.335 642.079 248.027C665.719 215.719 662.567 165.681 626.319 136.526C590.071 107.37 523.738 117.882 502.209 168.833Z" fill="url(#paint0_linear_6_589)"/>
<path d="M499.845 290.185C486.922 279.153 487.894 264.05 489.995 257.877L516.787 255.513C514.16 259.585 510.483 268.83 516.787 273.243C523.091 277.656 530.971 272.718 534.123 269.697L536.093 296.095C529.395 298.722 512.768 301.217 499.845 290.185Z" fill="url(#paint1_linear_6_589)"/>
<path fill-rule="evenodd" clip-rule="evenodd" d="M696.17 2.21273C678.747 7.39619 667.535 13.8215 657.501 24.3728C650.165 32.0873 646.785 37.4922 643.699 46.4478C638.623 61.1755 638.576 74.9765 643.548 91.4591L645.66 98.4636L653.973 97.9963C682.765 96.3754 702.692 79.2246 708.856 50.7621C710.814 41.719 711.162 26.8085 709.65 16.6867C707.944 5.27017 706.579 0.172599 705.181 0.00396728C704.559 -0.0708926 700.504 0.922778 696.17 2.21273ZM694.667 22.3146C695.637 27.4886 694.43 44.6252 692.658 50.8299C689 63.6333 681.985 72.7922 672.136 77.6203C665.928 80.6635 658.375 82.4342 657.088 81.1473C655.553 79.6123 655.29 64.6419 656.681 58.0566C659.824 43.1855 669.697 30.9944 684.663 23.5013C689.12 21.2705 693.073 19.4447 693.448 19.4447C693.823 19.4447 694.371 20.7362 694.667 22.3146ZM710.596 84.0889C695.119 87.895 680.778 97.734 670.512 111.59L666.754 116.662L670.184 121.119C675.792 128.408 684.869 136.337 691.607 139.833C701.105 144.759 705.714 145.869 716.658 145.859C728.301 145.848 732.918 144.667 745.814 138.399C757.316 132.808 766.726 125.821 775.685 116.22L782.42 109.002L779.172 106.184C768.694 97.0933 756.695 89.6404 747.26 86.3663C735.285 82.2096 721.678 81.3648 710.596 84.0889ZM737.514 99.8663C746.163 102.263 759.261 109.123 758.656 110.938C758.222 112.242 745.887 121.062 740.692 123.784C729.955 129.408 717.957 131.722 709.227 129.85C702.992 128.512 695.962 124.871 691.048 120.431L686.714 116.517L689.472 113.622C695.542 107.25 705.419 101.481 713.69 99.477C720.618 97.7986 730.643 97.9625 737.514 99.8663Z" fill="url(#paint2_linear_6_589)"/>
<path d="M143.873 304.956C122.439 304.688 102.881 300.937 85.1984 293.703C67.7837 286.201 52.6462 276.02 39.7861 263.16C27.1938 250.3 17.4148 235.43 10.4489 218.551C3.48295 201.405 0 183.186 0 163.896C0 144.606 3.48295 126.521 10.4489 109.642C17.4148 92.7632 27.1938 78.0276 39.7861 65.4354C52.6462 52.5752 67.7837 42.3943 85.1984 34.8926C102.881 27.3908 122.439 23.6399 143.873 23.6399L176.425 23.6399V49.3602H145.078C128.735 49.6281 113.464 52.7092 99.2642 58.6034C85.3324 64.2298 73.142 72.2673 62.6932 82.7162C52.2443 92.8971 44.0728 104.954 38.1785 118.885C32.5522 132.817 29.7391 147.821 29.7391 163.896C29.7391 180.507 32.5522 195.778 38.1785 209.71C44.0728 223.374 52.2443 235.43 62.6932 245.879C73.142 256.328 85.3324 264.5 99.2642 270.394C113.464 276.02 128.735 278.833 145.078 278.833H176.425L176.425 304.956H143.873Z" fill="url(#paint3_linear_6_589)"/>
<path d="M200.911 304.956L200.911 99.997L229.043 99.997L229.043 304.956H200.911ZM214.977 63.0241C209.619 63.0241 204.93 61.0147 200.911 56.9959C196.893 52.9771 194.883 48.2885 194.883 42.9302C194.883 37.3038 196.893 32.6152 200.911 28.8644C204.93 24.8456 209.619 22.8362 214.977 22.8362C220.604 22.8362 225.292 24.8456 229.043 28.8644C233.062 32.6152 235.071 37.3038 235.071 42.9302C235.071 48.2885 233.062 52.9771 229.043 56.9959C225.292 61.0147 220.604 63.0241 214.977 63.0241Z" fill="url(#paint4_linear_6_589)"/>
<path d="M314.026 304.956C295.808 304.956 281.474 299.731 271.025 289.282C260.844 278.833 255.754 264.634 255.754 246.683L255.754 48.5565H283.885L283.885 243.468C283.885 255.256 286.832 264.366 292.727 270.796C298.889 277.226 307.864 280.441 319.653 280.441H359.037V304.956H314.026ZM255.754 124.512L255.754 99.997L359.84 99.997V124.512L255.754 124.512Z" fill="url(#paint5_linear_6_589)"/>
<path d="M384.905 304.956L384.905 158.27C384.905 140.051 389.995 125.851 400.176 115.67C410.625 105.221 424.959 99.997 443.177 99.997H478.542V124.512H448.803C437.015 124.512 428.04 127.727 421.877 134.157C415.983 140.587 413.036 149.696 413.036 161.485L413.036 304.956H384.905Z" fill="url(#paint6_linear_6_589)"/>
<defs>
<linearGradient id="paint0_linear_6_589" x1="521.403" y1="484.922" x2="724.584" y2="329.815" gradientUnits="userSpaceOnUse">
<stop stop-color="#25DD1F"/>
<stop offset="1" stop-color="#FF6600"/>
</linearGradient>
<linearGradient id="paint1_linear_6_589" x1="521.403" y1="484.922" x2="724.584" y2="329.815" gradientUnits="userSpaceOnUse">
<stop stop-color="#25DD1F"/>
<stop offset="1" stop-color="#FF6600"/>
</linearGradient>
<linearGradient id="paint2_linear_6_589" x1="673.418" y1="269.786" x2="812.992" y2="164.813" gradientUnits="userSpaceOnUse">
<stop stop-color="#25DD1F"/>
<stop offset="1" stop-color="#FF6600"/>
</linearGradient>
<linearGradient id="paint3_linear_6_589" x1="112.659" y1="544.656" x2="383.973" y2="190.536" gradientUnits="userSpaceOnUse">
<stop stop-color="#25DD1F"/>
<stop offset="1" stop-color="#FF6600"/>
</linearGradient>
<linearGradient id="paint4_linear_6_589" x1="112.659" y1="544.656" x2="383.973" y2="190.536" gradientUnits="userSpaceOnUse">
<stop stop-color="#25DD1F"/>
<stop offset="1" stop-color="#FF6600"/>
</linearGradient>
<linearGradient id="paint5_linear_6_589" x1="112.659" y1="544.656" x2="383.973" y2="190.536" gradientUnits="userSpaceOnUse">
<stop stop-color="#25DD1F"/>
<stop offset="1" stop-color="#FF6600"/>
</linearGradient>
<linearGradient id="paint6_linear_6_589" x1="112.659" y1="544.656" x2="383.973" y2="190.536" gradientUnits="userSpaceOnUse">
<stop stop-color="#25DD1F"/>
<stop offset="1" stop-color="#FF6600"/>
</linearGradient>
</defs>
</svg>
