<svg width="1494" height="1056" viewBox="0 0 1494 1056" fill="none" xmlns="http://www.w3.org/2000/svg">
<path d="M1314.12 1054.5V1046.01M1314.12 1046.01V1037.53M1314.12 1046.01H1305.6M1314.12 1046.01H1322.64M1314.12 930.859V922.373M1314.12 922.373V913.888M1314.12 922.373H1305.6M1314.12 922.373H1322.64M1314.12 972.072V963.587M1314.12 963.587V955.102M1314.12 963.587H1305.6M1314.12 963.587H1322.64M1441.89 972.072V963.587M1441.89 963.587V955.102M1441.89 963.587H1433.37M1441.89 963.587H1450.41M1441.89 1013.29V1004.8M1441.89 1004.8V996.316M1441.89 1004.8H1433.37M1441.89 1004.8H1450.41M1441.89 1054.5V1046.01M1441.89 1046.01V1037.53M1441.89 1046.01H1433.37M1441.89 1046.01H1450.41M1441.89 930.859V922.373M1441.89 922.373V913.888M1441.89 922.373H1433.37M1441.89 922.373H1450.41M1314.12 1013.29V1004.8M1314.12 1004.8V996.316M1314.12 1004.8H1305.6M1314.12 1004.8H1322.64M1356.71 1013.29V1004.8M1356.71 1004.8V996.316M1356.71 1004.8H1348.19M1356.71 1004.8H1365.23M1356.71 1054.5V1046.01M1356.71 1046.01V1037.53M1356.71 1046.01H1348.19M1356.71 1046.01H1365.23M1356.71 930.859V922.373M1356.71 922.373V913.888M1356.71 922.373H1348.19M1356.71 922.373H1365.23M1356.71 972.072V963.587M1356.71 963.587V955.102M1356.71 963.587H1348.19M1356.71 963.587H1365.23M1484.48 972.072V963.587M1484.48 963.587V955.102M1484.48 963.587H1475.96M1484.48 963.587H1493M1484.48 1013.29V1004.8M1484.48 1004.8V996.316M1484.48 1004.8H1475.96M1484.48 1004.8H1493M1484.48 1054.5V1046.01M1484.48 1046.01V1037.53M1484.48 1046.01H1475.96M1484.48 1046.01H1493M1484.48 930.859V922.373M1484.48 922.373V913.888M1484.48 922.373H1475.96M1484.48 922.373H1493M1271.53 1013.29V1004.8M1271.53 1004.8V996.316M1271.53 1004.8H1263.01M1271.53 1004.8H1280.04M1271.53 1054.5V1046.01M1271.53 1046.01V1037.53M1271.53 1046.01H1263.01M1271.53 1046.01H1280.04M1271.53 930.859V922.373M1271.53 922.373V913.888M1271.53 922.373H1263.01M1271.53 922.373H1280.04M1271.53 972.072V963.587M1271.53 963.587V955.102M1271.53 963.587H1263.01M1271.53 963.587H1280.04M1399.3 972.072V963.587M1399.3 963.587V955.102M1399.3 963.587H1390.78M1399.3 963.587H1407.82M1399.3 1013.29V1004.8M1399.3 1004.8V996.316M1399.3 1004.8H1390.78M1399.3 1004.8H1407.82M1399.3 1054.5V1046.01M1399.3 1046.01V1037.53M1399.3 1046.01H1390.78M1399.3 1046.01H1407.82M1399.3 930.859V922.373M1399.3 922.373V913.888M1399.3 922.373H1390.78M1399.3 922.373H1407.82M1314.12 894.222V885.737M1314.12 885.737V877.252M1314.12 885.737H1305.6M1314.12 885.737H1322.64M1314.12 770.581V762.096M1314.12 762.096V753.611M1314.12 762.096H1305.6M1314.12 762.096H1322.64M1314.12 811.795V803.31M1314.12 803.31V794.824M1314.12 803.31H1305.6M1314.12 803.31H1322.64M1441.89 811.795V803.31M1441.89 803.31V794.824M1441.89 803.31H1433.37M1441.89 803.31H1450.41M1441.89 853.009V844.523M1441.89 844.523V836.038M1441.89 844.523H1433.37M1441.89 844.523H1450.41M1441.89 894.222V885.737M1441.89 885.737V877.252M1441.89 885.737H1433.37M1441.89 885.737H1450.41M1441.89 770.581V762.096M1441.89 762.096V753.611M1441.89 762.096H1433.37M1441.89 762.096H1450.41M1314.12 853.009V844.523M1314.12 844.523V836.038M1314.12 844.523H1305.6M1314.12 844.523H1322.64M1356.71 853.009V844.523M1356.71 844.523V836.038M1356.71 844.523H1348.19M1356.71 844.523H1365.23M1356.71 894.222V885.737M1356.71 885.737V877.252M1356.71 885.737H1348.19M1356.71 885.737H1365.23M1356.71 770.581V762.096M1356.71 762.096V753.611M1356.71 762.096H1348.19M1356.71 762.096H1365.23M1356.71 811.795V803.31M1356.71 803.31V794.824M1356.71 803.31H1348.19M1356.71 803.31H1365.23M1484.48 811.795V803.31M1484.48 803.31V794.824M1484.48 803.31H1475.96M1484.48 803.31H1493M1484.48 853.009V844.523M1484.48 844.523V836.038M1484.48 844.523H1475.96M1484.48 844.523H1493M1484.48 894.222V885.737M1484.48 885.737V877.252M1484.48 885.737H1475.96M1484.48 885.737H1493M1484.48 770.581V762.096M1484.48 762.096V753.611M1484.48 762.096H1475.96M1484.48 762.096H1493M1271.53 853.009V844.523M1271.53 844.523V836.038M1271.53 844.523H1263.01M1271.53 844.523H1280.04M1271.53 894.222V885.737M1271.53 885.737V877.252M1271.53 885.737H1263.01M1271.53 885.737H1280.04M1271.53 770.581V762.096M1271.53 762.096V753.611M1271.53 762.096H1263.01M1271.53 762.096H1280.04M1271.53 811.795V803.31M1271.53 803.31V794.824M1271.53 803.31H1263.01M1271.53 803.31H1280.04M1399.3 811.795V803.31M1399.3 803.31V794.824M1399.3 803.31H1390.78M1399.3 803.31H1407.82M1399.3 853.009V844.523M1399.3 844.523V836.038M1399.3 844.523H1390.78M1399.3 844.523H1407.82M1399.3 894.222V885.737M1399.3 885.737V877.252M1399.3 885.737H1390.78M1399.3 885.737H1407.82M1399.3 770.581V762.096M1399.3 762.096V753.611M1399.3 762.096H1390.78M1399.3 762.096H1407.82M1314.12 733.945V725.46M1314.12 725.46V716.974M1314.12 725.46H1305.6M1314.12 725.46H1322.64M1314.12 610.303V601.818M1314.12 601.818V593.333M1314.12 601.818H1305.6M1314.12 601.818H1322.64M1314.12 651.517V643.032M1314.12 643.032V634.547M1314.12 643.032H1305.6M1314.12 643.032H1322.64M1441.89 651.517V643.032M1441.89 643.032V634.547M1441.89 643.032H1433.37M1441.89 643.032H1450.41M1441.89 692.731V684.246M1441.89 684.246V675.761M1441.89 684.246H1433.37M1441.89 684.246H1450.41M1441.89 733.945V725.46M1441.89 725.46V716.974M1441.89 725.46H1433.37M1441.89 725.46H1450.41M1441.89 610.303V601.818M1441.89 601.818V593.333M1441.89 601.818H1433.37M1441.89 601.818H1450.41M1314.12 692.731V684.246M1314.12 684.246V675.761M1314.12 684.246H1305.6M1314.12 684.246H1322.64M1356.71 692.731V684.246M1356.71 684.246V675.761M1356.71 684.246H1348.19M1356.71 684.246H1365.23M1356.71 733.945V725.46M1356.71 725.46V716.974M1356.71 725.46H1348.19M1356.71 725.46H1365.23M1356.71 610.303V601.818M1356.71 601.818V593.333M1356.71 601.818H1348.19M1356.71 601.818H1365.23M1356.71 651.517V643.032M1356.71 643.032V634.547M1356.71 643.032H1348.19M1356.71 643.032H1365.23M1484.48 651.517V643.032M1484.48 643.032V634.547M1484.48 643.032H1475.96M1484.48 643.032H1493M1484.48 692.731V684.246M1484.48 684.246V675.761M1484.48 684.246H1475.96M1484.48 684.246H1493M1484.48 733.945V725.46M1484.48 725.46V716.974M1484.48 725.46H1475.96M1484.48 725.46H1493M1484.48 610.303V601.818M1484.48 601.818V593.333M1484.48 601.818H1475.96M1484.48 601.818H1493M1271.53 692.731V684.246M1271.53 684.246V675.761M1271.53 684.246H1263.01M1271.53 684.246H1280.04M1271.53 733.945V725.46M1271.53 725.46V716.974M1271.53 725.46H1263.01M1271.53 725.46H1280.04M1271.53 610.303V601.818M1271.53 601.818V593.333M1271.53 601.818H1263.01M1271.53 601.818H1280.04M1271.53 651.517V643.032M1271.53 643.032V634.547M1271.53 643.032H1263.01M1271.53 643.032H1280.04M1399.3 651.517V643.032M1399.3 643.032V634.547M1399.3 643.032H1390.78M1399.3 643.032H1407.82M1399.3 692.731V684.246M1399.3 684.246V675.761M1399.3 684.246H1390.78M1399.3 684.246H1407.82M1399.3 733.945V725.46M1399.3 725.46V716.974M1399.3 725.46H1390.78M1399.3 725.46H1407.82M1399.3 610.303V601.818M1399.3 601.818V593.333M1399.3 601.818H1390.78M1399.3 601.818H1407.82M1314.12 573.667V565.182M1314.12 565.182V556.697M1314.12 565.182H1305.6M1314.12 565.182H1322.64M1314.12 450.026V441.54M1314.12 441.54V433.055M1314.12 441.54H1305.6M1314.12 441.54H1322.64M1314.12 491.24V482.754M1314.12 482.754V474.269M1314.12 482.754H1305.6M1314.12 482.754H1322.64M1441.89 491.24V482.754M1441.89 482.754V474.269M1441.89 482.754H1433.37M1441.89 482.754H1450.41M1441.89 532.453V523.968M1441.89 523.968V515.483M1441.89 523.968H1433.37M1441.89 523.968H1450.41M1441.89 573.667V565.182M1441.89 565.182V556.697M1441.89 565.182H1433.37M1441.89 565.182H1450.41M1441.89 450.026V441.54M1441.89 441.54V433.055M1441.89 441.54H1433.37M1441.89 441.54H1450.41M1314.12 532.453V523.968M1314.12 523.968V515.483M1314.12 523.968H1305.6M1314.12 523.968H1322.64M1356.71 532.453V523.968M1356.71 523.968V515.483M1356.71 523.968H1348.19M1356.71 523.968H1365.23M1356.71 573.667V565.182M1356.71 565.182V556.697M1356.71 565.182H1348.19M1356.71 565.182H1365.23M1356.71 450.026V441.54M1356.71 441.54V433.055M1356.71 441.54H1348.19M1356.71 441.54H1365.23M1356.71 491.24V482.754M1356.71 482.754V474.269M1356.71 482.754H1348.19M1356.71 482.754H1365.23M1484.48 491.24V482.754M1484.48 482.754V474.269M1484.48 482.754H1475.96M1484.48 482.754H1493M1484.48 532.453V523.968M1484.48 523.968V515.483M1484.48 523.968H1475.96M1484.48 523.968H1493M1484.48 573.667V565.182M1484.48 565.182V556.697M1484.48 565.182H1475.96M1484.48 565.182H1493M1484.48 450.026V441.54M1484.48 441.54V433.055M1484.48 441.54H1475.96M1484.48 441.54H1493M1271.53 532.453V523.968M1271.53 523.968V515.483M1271.53 523.968H1263.01M1271.53 523.968H1280.04M1271.53 573.667V565.182M1271.53 565.182V556.697M1271.53 565.182H1263.01M1271.53 565.182H1280.04M1271.53 450.026V441.54M1271.53 441.54V433.055M1271.53 441.54H1263.01M1271.53 441.54H1280.04M1271.53 491.24V482.754M1271.53 482.754V474.269M1271.53 482.754H1263.01M1271.53 482.754H1280.04M1399.3 491.24V482.754M1399.3 482.754V474.269M1399.3 482.754H1390.78M1399.3 482.754H1407.82M1399.3 532.453V523.968M1399.3 523.968V515.483M1399.3 523.968H1390.78M1399.3 523.968H1407.82M1399.3 573.667V565.182M1399.3 565.182V556.697M1399.3 565.182H1390.78M1399.3 565.182H1407.82M1399.3 450.026V441.54M1399.3 441.54V433.055M1399.3 441.54H1390.78M1399.3 441.54H1407.82M1314.12 413.389V404.904M1314.12 404.904V396.419M1314.12 404.904H1305.6M1314.12 404.904H1322.64M1314.12 289.748V281.263M1314.12 281.263V272.778M1314.12 281.263H1305.6M1314.12 281.263H1322.64M1314.12 330.962V322.477M1314.12 322.477V313.991M1314.12 322.477H1305.6M1314.12 322.477H1322.64M1441.89 330.962V322.477M1441.89 322.477V313.991M1441.89 322.477H1433.37M1441.89 322.477H1450.41M1441.89 372.176V363.69M1441.89 363.69V355.205M1441.89 363.69H1433.37M1441.89 363.69H1450.41M1441.89 413.389V404.904M1441.89 404.904V396.419M1441.89 404.904H1433.37M1441.89 404.904H1450.41M1441.89 289.748V281.263M1441.89 281.263V272.778M1441.89 281.263H1433.37M1441.89 281.263H1450.41M1314.12 372.176V363.69M1314.12 363.69V355.205M1314.12 363.69H1305.6M1314.12 363.69H1322.64M1356.71 372.176V363.69M1356.71 363.69V355.205M1356.71 363.69H1348.19M1356.71 363.69H1365.23M1356.71 413.389V404.904M1356.71 404.904V396.419M1356.71 404.904H1348.19M1356.71 404.904H1365.23M1356.71 289.748V281.263M1356.71 281.263V272.778M1356.71 281.263H1348.19M1356.71 281.263H1365.23M1356.71 330.962V322.477M1356.71 322.477V313.991M1356.71 322.477H1348.19M1356.71 322.477H1365.23M1484.48 330.962V322.477M1484.48 322.477V313.991M1484.48 322.477H1475.96M1484.48 322.477H1493M1484.48 372.176V363.69M1484.48 363.69V355.205M1484.48 363.69H1475.96M1484.48 363.69H1493M1484.48 413.389V404.904M1484.48 404.904V396.419M1484.48 404.904H1475.96M1484.48 404.904H1493M1484.48 289.748V281.263M1484.48 281.263V272.778M1484.48 281.263H1475.96M1484.48 281.263H1493M1271.53 372.176V363.69M1271.53 363.69V355.205M1271.53 363.69H1263.01M1271.53 363.69H1280.04M1271.53 413.389V404.904M1271.53 404.904V396.419M1271.53 404.904H1263.01M1271.53 404.904H1280.04M1271.53 289.748V281.263M1271.53 281.263V272.778M1271.53 281.263H1263.01M1271.53 281.263H1280.04M1271.53 330.962V322.477M1271.53 322.477V313.991M1271.53 322.477H1263.01M1271.53 322.477H1280.04M1399.3 330.962V322.477M1399.3 322.477V313.991M1399.3 322.477H1390.78M1399.3 322.477H1407.82M1399.3 372.176V363.69M1399.3 363.69V355.205M1399.3 363.69H1390.78M1399.3 363.69H1407.82M1399.3 413.389V404.904M1399.3 404.904V396.419M1399.3 404.904H1390.78M1399.3 404.904H1407.82M1399.3 289.748V281.263M1399.3 281.263V272.778M1399.3 281.263H1390.78M1399.3 281.263H1407.82M1314.12 253.112V244.627M1314.12 244.627V236.141M1314.12 244.627H1305.6M1314.12 244.627H1322.64M1314.12 129.47V120.985M1314.12 120.985V112.5M1314.12 120.985H1305.6M1314.12 120.985H1322.64M1314.12 170.684V162.199M1314.12 162.199V153.714M1314.12 162.199H1305.6M1314.12 162.199H1322.64M1441.89 170.684V162.199M1441.89 162.199V153.714M1441.89 162.199H1433.37M1441.89 162.199H1450.41M1441.89 211.898V203.413M1441.89 203.413V194.928M1441.89 203.413H1433.37M1441.89 203.413H1450.41M1441.89 253.112V244.627M1441.89 244.627V236.141M1441.89 244.627H1433.37M1441.89 244.627H1450.41M1441.89 129.47V120.985M1441.89 120.985V112.5M1441.89 120.985H1433.37M1441.89 120.985H1450.41M1314.12 211.898V203.413M1314.12 203.413V194.928M1314.12 203.413H1305.6M1314.12 203.413H1322.64M1356.71 211.898V203.413M1356.71 203.413V194.928M1356.71 203.413H1348.19M1356.71 203.413H1365.23M1356.71 253.112V244.627M1356.71 244.627V236.141M1356.71 244.627H1348.19M1356.71 244.627H1365.23M1356.71 129.47V120.985M1356.71 120.985V112.5M1356.71 120.985H1348.19M1356.71 120.985H1365.23M1356.71 170.684V162.199M1356.71 162.199V153.714M1356.71 162.199H1348.19M1356.71 162.199H1365.23M1484.48 170.684V162.199M1484.48 162.199V153.714M1484.48 162.199H1475.96M1484.48 162.199H1493M1484.48 211.898V203.413M1484.48 203.413V194.928M1484.48 203.413H1475.96M1484.48 203.413H1493M1484.48 253.112V244.627M1484.48 244.627V236.141M1484.48 244.627H1475.96M1484.48 244.627H1493M1484.48 129.47V120.985M1484.48 120.985V112.5M1484.48 120.985H1475.96M1484.48 120.985H1493M1271.53 211.898V203.413M1271.53 203.413V194.928M1271.53 203.413H1263.01M1271.53 203.413H1280.04M1271.53 253.112V244.627M1271.53 244.627V236.141M1271.53 244.627H1263.01M1271.53 244.627H1280.04M1271.53 129.47V120.985M1271.53 120.985V112.5M1271.53 120.985H1263.01M1271.53 120.985H1280.04M1271.53 170.684V162.199M1271.53 162.199V153.714M1271.53 162.199H1263.01M1271.53 162.199H1280.04M1399.3 170.684V162.199M1399.3 162.199V153.714M1399.3 162.199H1390.78M1399.3 162.199H1407.82M1399.3 211.898V203.413M1399.3 203.413V194.928M1399.3 203.413H1390.78M1399.3 203.413H1407.82M1399.3 253.112V244.627M1399.3 244.627V236.141M1399.3 244.627H1390.78M1399.3 244.627H1407.82M1399.3 129.47V120.985M1399.3 120.985V112.5M1399.3 120.985H1390.78M1399.3 120.985H1407.82M1062.5 1054.5V1046.01M1062.5 1046.01V1037.53M1062.5 1046.01H1053.98M1062.5 1046.01H1071.02M1062.5 930.859V922.373M1062.5 922.373V913.888M1062.5 922.373H1053.98M1062.5 922.373H1071.02M1062.5 972.072V963.587M1062.5 963.587V955.102M1062.5 963.587H1053.98M1062.5 963.587H1071.02M1190.28 972.072V963.587M1190.28 963.587V955.102M1190.28 963.587H1181.76M1190.28 963.587H1198.79M1190.28 1013.29V1004.8M1190.28 1004.8V996.316M1190.28 1004.8H1181.76M1190.28 1004.8H1198.79M1190.28 1054.5V1046.01M1190.28 1046.01V1037.53M1190.28 1046.01H1181.76M1190.28 1046.01H1198.79M1190.28 930.859V922.373M1190.28 922.373V913.888M1190.28 922.373H1181.76M1190.28 922.373H1198.79M1062.5 1013.29V1004.8M1062.5 1004.8V996.316M1062.5 1004.8H1053.98M1062.5 1004.8H1071.02M1105.09 1013.29V1004.8M1105.09 1004.8V996.316M1105.09 1004.8H1096.57M1105.09 1004.8H1113.61M1105.09 1054.5V1046.01M1105.09 1046.01V1037.53M1105.09 1046.01H1096.57M1105.09 1046.01H1113.61M1105.09 930.859V922.373M1105.09 922.373V913.888M1105.09 922.373H1096.57M1105.09 922.373H1113.61M1105.09 972.072V963.587M1105.09 963.587V955.102M1105.09 963.587H1096.57M1105.09 963.587H1113.61M1232.87 972.072V963.587M1232.87 963.587V955.102M1232.87 963.587H1224.35M1232.87 963.587H1241.38M1232.87 1013.29V1004.8M1232.87 1004.8V996.316M1232.87 1004.8H1224.35M1232.87 1004.8H1241.38M1232.87 1054.5V1046.01M1232.87 1046.01V1037.53M1232.87 1046.01H1224.35M1232.87 1046.01H1241.38M1232.87 930.859V922.373M1232.87 922.373V913.888M1232.87 922.373H1224.35M1232.87 922.373H1241.38M1019.91 1013.29V1004.8M1019.91 1004.8V996.316M1019.91 1004.8H1011.39M1019.91 1004.8H1028.43M1019.91 1054.5V1046.01M1019.91 1046.01V1037.53M1019.91 1046.01H1011.39M1019.91 1046.01H1028.43M1019.91 930.859V922.373M1019.91 922.373V913.888M1019.91 922.373H1011.39M1019.91 922.373H1028.43M1019.91 972.072V963.587M1019.91 963.587V955.102M1019.91 963.587H1011.39M1019.91 963.587H1028.43M1147.68 972.072V963.587M1147.68 963.587V955.102M1147.68 963.587H1139.17M1147.68 963.587H1156.2M1147.68 1013.29V1004.8M1147.68 1004.8V996.316M1147.68 1004.8H1139.17M1147.68 1004.8H1156.2M1147.68 1054.5V1046.01M1147.68 1046.01V1037.53M1147.68 1046.01H1139.17M1147.68 1046.01H1156.2M1147.68 930.859V922.373M1147.68 922.373V913.888M1147.68 922.373H1139.17M1147.68 922.373H1156.2M1062.5 894.222V885.737M1062.5 885.737V877.252M1062.5 885.737H1053.98M1062.5 885.737H1071.02M1062.5 770.581V762.096M1062.5 762.096V753.611M1062.5 762.096H1053.98M1062.5 762.096H1071.02M1062.5 811.795V803.31M1062.5 803.31V794.824M1062.5 803.31H1053.98M1062.5 803.31H1071.02M1190.28 811.795V803.31M1190.28 803.31V794.824M1190.28 803.31H1181.76M1190.28 803.31H1198.79M1190.28 853.009V844.523M1190.28 844.523V836.038M1190.28 844.523H1181.76M1190.28 844.523H1198.79M1190.28 894.222V885.737M1190.28 885.737V877.252M1190.28 885.737H1181.76M1190.28 885.737H1198.79M1190.28 770.581V762.096M1190.28 762.096V753.611M1190.28 762.096H1181.76M1190.28 762.096H1198.79M1062.5 853.009V844.523M1062.5 844.523V836.038M1062.5 844.523H1053.98M1062.5 844.523H1071.02M1105.09 853.009V844.523M1105.09 844.523V836.038M1105.09 844.523H1096.57M1105.09 844.523H1113.61M1105.09 894.222V885.737M1105.09 885.737V877.252M1105.09 885.737H1096.57M1105.09 885.737H1113.61M1105.09 770.581V762.096M1105.09 762.096V753.611M1105.09 762.096H1096.57M1105.09 762.096H1113.61M1105.09 811.795V803.31M1105.09 803.31V794.824M1105.09 803.31H1096.57M1105.09 803.31H1113.61M1232.87 811.795V803.31M1232.87 803.31V794.824M1232.87 803.31H1224.35M1232.87 803.31H1241.38M1232.87 853.009V844.523M1232.87 844.523V836.038M1232.87 844.523H1224.35M1232.87 844.523H1241.38M1232.87 894.222V885.737M1232.87 885.737V877.252M1232.87 885.737H1224.35M1232.87 885.737H1241.38M1232.87 770.581V762.096M1232.87 762.096V753.611M1232.87 762.096H1224.35M1232.87 762.096H1241.38M1019.91 853.009V844.523M1019.91 844.523V836.038M1019.91 844.523H1011.39M1019.91 844.523H1028.43M1019.91 894.222V885.737M1019.91 885.737V877.252M1019.91 885.737H1011.39M1019.91 885.737H1028.43M1019.91 770.581V762.096M1019.91 762.096V753.611M1019.91 762.096H1011.39M1019.91 762.096H1028.43M1019.91 811.795V803.31M1019.91 803.31V794.824M1019.91 803.31H1011.39M1019.91 803.31H1028.43M1147.68 811.795V803.31M1147.68 803.31V794.824M1147.68 803.31H1139.17M1147.68 803.31H1156.2M1147.68 853.009V844.523M1147.68 844.523V836.038M1147.68 844.523H1139.17M1147.68 844.523H1156.2M1147.68 894.222V885.737M1147.68 885.737V877.252M1147.68 885.737H1139.17M1147.68 885.737H1156.2M1147.68 770.581V762.096M1147.68 762.096V753.611M1147.68 762.096H1139.17M1147.68 762.096H1156.2M1062.5 733.945V725.46M1062.5 725.46V716.974M1062.5 725.46H1053.98M1062.5 725.46H1071.02M1062.5 610.303V601.818M1062.5 601.818V593.333M1062.5 601.818H1053.98M1062.5 601.818H1071.02M1062.5 651.517V643.032M1062.5 643.032V634.547M1062.5 643.032H1053.98M1062.5 643.032H1071.02M1190.28 651.517V643.032M1190.28 643.032V634.547M1190.28 643.032H1181.76M1190.28 643.032H1198.79M1190.28 692.731V684.246M1190.28 684.246V675.761M1190.28 684.246H1181.76M1190.28 684.246H1198.79M1190.28 733.945V725.46M1190.28 725.46V716.974M1190.28 725.46H1181.76M1190.28 725.46H1198.79M1190.28 610.303V601.818M1190.28 601.818V593.333M1190.28 601.818H1181.76M1190.28 601.818H1198.79M1062.5 692.731V684.246M1062.5 684.246V675.761M1062.5 684.246H1053.98M1062.5 684.246H1071.02M1105.09 692.731V684.246M1105.09 684.246V675.761M1105.09 684.246H1096.57M1105.09 684.246H1113.61M1105.09 733.945V725.46M1105.09 725.46V716.974M1105.09 725.46H1096.57M1105.09 725.46H1113.61M1105.09 610.303V601.818M1105.09 601.818V593.333M1105.09 601.818H1096.57M1105.09 601.818H1113.61M1105.09 651.517V643.032M1105.09 643.032V634.547M1105.09 643.032H1096.57M1105.09 643.032H1113.61M1232.87 651.517V643.032M1232.87 643.032V634.547M1232.87 643.032H1224.35M1232.87 643.032H1241.38M1232.87 692.731V684.246M1232.87 684.246V675.761M1232.87 684.246H1224.35M1232.87 684.246H1241.38M1232.87 733.945V725.46M1232.87 725.46V716.974M1232.87 725.46H1224.35M1232.87 725.46H1241.38M1232.87 610.303V601.818M1232.87 601.818V593.333M1232.87 601.818H1224.35M1232.87 601.818H1241.38M1019.91 692.731V684.246M1019.91 684.246V675.761M1019.91 684.246H1011.39M1019.91 684.246H1028.43M1019.91 733.945V725.46M1019.91 725.46V716.974M1019.91 725.46H1011.39M1019.91 725.46H1028.43M1019.91 610.303V601.818M1019.91 601.818V593.333M1019.91 601.818H1011.39M1019.91 601.818H1028.43M1019.91 651.517V643.032M1019.91 643.032V634.547M1019.91 643.032H1011.39M1019.91 643.032H1028.43M1147.68 651.517V643.032M1147.68 643.032V634.547M1147.68 643.032H1139.17M1147.68 643.032H1156.2M1147.68 692.731V684.246M1147.68 684.246V675.761M1147.68 684.246H1139.17M1147.68 684.246H1156.2M1147.68 733.945V725.46M1147.68 725.46V716.974M1147.68 725.46H1139.17M1147.68 725.46H1156.2M1147.68 610.303V601.818M1147.68 601.818V593.333M1147.68 601.818H1139.17M1147.68 601.818H1156.2M1062.5 573.667V565.182M1062.5 565.182V556.697M1062.5 565.182H1053.98M1062.5 565.182H1071.02M1062.5 450.026V441.54M1062.5 441.54V433.055M1062.5 441.54H1053.98M1062.5 441.54H1071.02M1062.5 491.24V482.754M1062.5 482.754V474.269M1062.5 482.754H1053.98M1062.5 482.754H1071.02M1190.28 491.24V482.754M1190.28 482.754V474.269M1190.28 482.754H1181.76M1190.28 482.754H1198.79M1190.28 532.453V523.968M1190.28 523.968V515.483M1190.28 523.968H1181.76M1190.28 523.968H1198.79M1190.28 573.667V565.182M1190.28 565.182V556.697M1190.28 565.182H1181.76M1190.28 565.182H1198.79M1190.28 450.026V441.54M1190.28 441.54V433.055M1190.28 441.54H1181.76M1190.28 441.54H1198.79M1062.5 532.453V523.968M1062.5 523.968V515.483M1062.5 523.968H1053.98M1062.5 523.968H1071.02M1105.09 532.453V523.968M1105.09 523.968V515.483M1105.09 523.968H1096.57M1105.09 523.968H1113.61M1105.09 573.667V565.182M1105.09 565.182V556.697M1105.09 565.182H1096.57M1105.09 565.182H1113.61M1105.09 450.026V441.54M1105.09 441.54V433.055M1105.09 441.54H1096.57M1105.09 441.54H1113.61M1105.09 491.24V482.754M1105.09 482.754V474.269M1105.09 482.754H1096.57M1105.09 482.754H1113.61M1232.87 491.24V482.754M1232.87 482.754V474.269M1232.87 482.754H1224.35M1232.87 482.754H1241.38M1232.87 532.453V523.968M1232.87 523.968V515.483M1232.87 523.968H1224.35M1232.87 523.968H1241.38M1232.87 573.667V565.182M1232.87 565.182V556.697M1232.87 565.182H1224.35M1232.87 565.182H1241.38M1232.87 450.026V441.54M1232.87 441.54V433.055M1232.87 441.54H1224.35M1232.87 441.54H1241.38M1019.91 532.453V523.968M1019.91 523.968V515.483M1019.91 523.968H1011.39M1019.91 523.968H1028.43M1019.91 573.667V565.182M1019.91 565.182V556.697M1019.91 565.182H1011.39M1019.91 565.182H1028.43M1019.91 450.026V441.54M1019.91 441.54V433.055M1019.91 441.54H1011.39M1019.91 441.54H1028.43M1019.91 491.24V482.754M1019.91 482.754V474.269M1019.91 482.754H1011.39M1019.91 482.754H1028.43M1147.68 491.24V482.754M1147.68 482.754V474.269M1147.68 482.754H1139.17M1147.68 482.754H1156.2M1147.68 532.453V523.968M1147.68 523.968V515.483M1147.68 523.968H1139.17M1147.68 523.968H1156.2M1147.68 573.667V565.182M1147.68 565.182V556.697M1147.68 565.182H1139.17M1147.68 565.182H1156.2M1147.68 450.026V441.54M1147.68 441.54V433.055M1147.68 441.54H1139.17M1147.68 441.54H1156.2M1062.5 413.389V404.904M1062.5 404.904V396.419M1062.5 404.904H1053.98M1062.5 404.904H1071.02M1062.5 289.748V281.263M1062.5 281.263V272.778M1062.5 281.263H1053.98M1062.5 281.263H1071.02M1062.5 330.962V322.477M1062.5 322.477V313.991M1062.5 322.477H1053.98M1062.5 322.477H1071.02M1190.28 330.962V322.477M1190.28 322.477V313.991M1190.28 322.477H1181.76M1190.28 322.477H1198.79M1190.28 372.176V363.69M1190.28 363.69V355.205M1190.28 363.69H1181.76M1190.28 363.69H1198.79M1190.28 413.389V404.904M1190.28 404.904V396.419M1190.28 404.904H1181.76M1190.28 404.904H1198.79M1190.28 289.748V281.263M1190.28 281.263V272.778M1190.28 281.263H1181.76M1190.28 281.263H1198.79M1062.5 372.176V363.69M1062.5 363.69V355.205M1062.5 363.69H1053.98M1062.5 363.69H1071.02M1105.09 372.176V363.69M1105.09 363.69V355.205M1105.09 363.69H1096.57M1105.09 363.69H1113.61M1105.09 413.389V404.904M1105.09 404.904V396.419M1105.09 404.904H1096.57M1105.09 404.904H1113.61M1105.09 289.748V281.263M1105.09 281.263V272.778M1105.09 281.263H1096.57M1105.09 281.263H1113.61M1105.09 330.962V322.477M1105.09 322.477V313.991M1105.09 322.477H1096.57M1105.09 322.477H1113.61M1232.87 330.962V322.477M1232.87 322.477V313.991M1232.87 322.477H1224.35M1232.87 322.477H1241.38M1232.87 372.176V363.69M1232.87 363.69V355.205M1232.87 363.69H1224.35M1232.87 363.69H1241.38M1232.87 413.389V404.904M1232.87 404.904V396.419M1232.87 404.904H1224.35M1232.87 404.904H1241.38M1232.87 289.748V281.263M1232.87 281.263V272.778M1232.87 281.263H1224.35M1232.87 281.263H1241.38M1019.91 372.176V363.69M1019.91 363.69V355.205M1019.91 363.69H1011.39M1019.91 363.69H1028.43M1019.91 413.389V404.904M1019.91 404.904V396.419M1019.91 404.904H1011.39M1019.91 404.904H1028.43M1019.91 289.748V281.263M1019.91 281.263V272.778M1019.91 281.263H1011.39M1019.91 281.263H1028.43M1019.91 330.962V322.477M1019.91 322.477V313.991M1019.91 322.477H1011.39M1019.91 322.477H1028.43M1147.68 330.962V322.477M1147.68 322.477V313.991M1147.68 322.477H1139.17M1147.68 322.477H1156.2M1147.68 372.176V363.69M1147.68 363.69V355.205M1147.68 363.69H1139.17M1147.68 363.69H1156.2M1147.68 413.389V404.904M1147.68 404.904V396.419M1147.68 404.904H1139.17M1147.68 404.904H1156.2M1147.68 289.748V281.263M1147.68 281.263V272.778M1147.68 281.263H1139.17M1147.68 281.263H1156.2M1062.5 253.112V244.627M1062.5 244.627V236.141M1062.5 244.627H1053.98M1062.5 244.627H1071.02M1062.5 129.47V120.985M1062.5 120.985V112.5M1062.5 120.985H1053.98M1062.5 120.985H1071.02M1062.5 170.684V162.199M1062.5 162.199V153.714M1062.5 162.199H1053.98M1062.5 162.199H1071.02M1190.28 170.684V162.199M1190.28 162.199V153.714M1190.28 162.199H1181.76M1190.28 162.199H1198.79M1190.28 211.898V203.413M1190.28 203.413V194.928M1190.28 203.413H1181.76M1190.28 203.413H1198.79M1190.28 253.112V244.627M1190.28 244.627V236.141M1190.28 244.627H1181.76M1190.28 244.627H1198.79M1190.28 129.47V120.985M1190.28 120.985V112.5M1190.28 120.985H1181.76M1190.28 120.985H1198.79M1062.5 211.898V203.413M1062.5 203.413V194.928M1062.5 203.413H1053.98M1062.5 203.413H1071.02M1105.09 211.898V203.413M1105.09 203.413V194.928M1105.09 203.413H1096.57M1105.09 203.413H1113.61M1105.09 253.112V244.627M1105.09 244.627V236.141M1105.09 244.627H1096.57M1105.09 244.627H1113.61M1105.09 129.47V120.985M1105.09 120.985V112.5M1105.09 120.985H1096.57M1105.09 120.985H1113.61M1105.09 170.684V162.199M1105.09 162.199V153.714M1105.09 162.199H1096.57M1105.09 162.199H1113.61M1232.87 170.684V162.199M1232.87 162.199V153.714M1232.87 162.199H1224.35M1232.87 162.199H1241.38M1232.87 211.898V203.413M1232.87 203.413V194.928M1232.87 203.413H1224.35M1232.87 203.413H1241.38M1232.87 253.112V244.627M1232.87 244.627V236.141M1232.87 244.627H1224.35M1232.87 244.627H1241.38M1232.87 129.47V120.985M1232.87 120.985V112.5M1232.87 120.985H1224.35M1232.87 120.985H1241.38M1019.91 211.898V203.413M1019.91 203.413V194.928M1019.91 203.413H1011.39M1019.91 203.413H1028.43M1019.91 253.112V244.627M1019.91 244.627V236.141M1019.91 244.627H1011.39M1019.91 244.627H1028.43M1019.91 129.47V120.985M1019.91 120.985V112.5M1019.91 120.985H1011.39M1019.91 120.985H1028.43M1019.91 170.684V162.199M1019.91 162.199V153.714M1019.91 162.199H1011.39M1019.91 162.199H1028.43M1147.68 170.684V162.199M1147.68 162.199V153.714M1147.68 162.199H1139.17M1147.68 162.199H1156.2M1147.68 211.898V203.413M1147.68 203.413V194.928M1147.68 203.413H1139.17M1147.68 203.413H1156.2M1147.68 253.112V244.627M1147.68 244.627V236.141M1147.68 244.627H1139.17M1147.68 244.627H1156.2M1147.68 129.47V120.985M1147.68 120.985V112.5M1147.68 120.985H1139.17M1147.68 120.985H1156.2M810.887 1054.5V1046.01M810.887 1046.01V1037.53M810.887 1046.01H802.368M810.887 1046.01H819.405M810.887 930.859V922.373M810.887 922.373V913.888M810.887 922.373H802.368M810.887 922.373H819.405M810.887 972.072V963.587M810.887 963.587V955.102M810.887 963.587H802.368M810.887 963.587H819.405M938.66 972.072V963.587M938.66 963.587V955.102M938.66 963.587H930.142M938.66 963.587H947.178M938.66 1013.29V1004.8M938.66 1004.8V996.316M938.66 1004.8H930.142M938.66 1004.8H947.178M938.66 1054.5V1046.01M938.66 1046.01V1037.53M938.66 1046.01H930.142M938.66 1046.01H947.178M938.66 930.859V922.373M938.66 922.373V913.888M938.66 922.373H930.142M938.66 922.373H947.178M810.887 1013.29V1004.8M810.887 1004.8V996.316M810.887 1004.8H802.368M810.887 1004.8H819.405M853.478 1013.29V1004.8M853.478 1004.8V996.316M853.478 1004.8H844.96M853.478 1004.8H861.996M853.478 1054.5V1046.01M853.478 1046.01V1037.53M853.478 1046.01H844.96M853.478 1046.01H861.996M853.478 930.859V922.373M853.478 922.373V913.888M853.478 922.373H844.96M853.478 922.373H861.996M853.478 972.072V963.587M853.478 963.587V955.102M853.478 963.587H844.96M853.478 963.587H861.996M981.251 972.072V963.587M981.251 963.587V955.102M981.251 963.587H972.733M981.251 963.587H989.769M981.251 1013.29V1004.8M981.251 1004.8V996.316M981.251 1004.8H972.733M981.251 1004.8H989.769M981.251 1054.5V1046.01M981.251 1046.01V1037.53M981.251 1046.01H972.733M981.251 1046.01H989.769M981.251 930.859V922.373M981.251 922.373V913.888M981.251 922.373H972.733M981.251 922.373H989.769M768.296 1013.29V1004.8M768.296 1004.8V996.316M768.296 1004.8H759.777M768.296 1004.8H776.814M768.296 1054.5V1046.01M768.296 1046.01V1037.53M768.296 1046.01H759.777M768.296 1046.01H776.814M768.296 930.859V922.373M768.296 922.373V913.888M768.296 922.373H759.777M768.296 922.373H776.814M768.296 972.072V963.587M768.296 963.587V955.102M768.296 963.587H759.777M768.296 963.587H776.814M896.069 972.072V963.587M896.069 963.587V955.102M896.069 963.587H887.551M896.069 963.587H904.587M896.069 1013.29V1004.8M896.069 1004.8V996.316M896.069 1004.8H887.551M896.069 1004.8H904.587M896.069 1054.5V1046.01M896.069 1046.01V1037.53M896.069 1046.01H887.551M896.069 1046.01H904.587M896.069 930.859V922.373M896.069 922.373V913.888M896.069 922.373H887.551M896.069 922.373H904.587M810.887 894.222V885.737M810.887 885.737V877.252M810.887 885.737H802.368M810.887 885.737H819.405M810.887 770.581V762.096M810.887 762.096V753.611M810.887 762.096H802.368M810.887 762.096H819.405M810.887 811.795V803.31M810.887 803.31V794.824M810.887 803.31H802.368M810.887 803.31H819.405M938.66 811.795V803.31M938.66 803.31V794.824M938.66 803.31H930.142M938.66 803.31H947.178M938.66 853.009V844.523M938.66 844.523V836.038M938.66 844.523H930.142M938.66 844.523H947.178M938.66 894.222V885.737M938.66 885.737V877.252M938.66 885.737H930.142M938.66 885.737H947.178M938.66 770.581V762.096M938.66 762.096V753.611M938.66 762.096H930.142M938.66 762.096H947.178M810.887 853.009V844.523M810.887 844.523V836.038M810.887 844.523H802.368M810.887 844.523H819.405M853.478 853.009V844.523M853.478 844.523V836.038M853.478 844.523H844.96M853.478 844.523H861.996M853.478 894.222V885.737M853.478 885.737V877.252M853.478 885.737H844.96M853.478 885.737H861.996M853.478 770.581V762.096M853.478 762.096V753.611M853.478 762.096H844.96M853.478 762.096H861.996M853.478 811.795V803.31M853.478 803.31V794.824M853.478 803.31H844.96M853.478 803.31H861.996M981.251 811.795V803.31M981.251 803.31V794.824M981.251 803.31H972.733M981.251 803.31H989.769M981.251 853.009V844.523M981.251 844.523V836.038M981.251 844.523H972.733M981.251 844.523H989.769M981.251 894.222V885.737M981.251 885.737V877.252M981.251 885.737H972.733M981.251 885.737H989.769M981.251 770.581V762.096M981.251 762.096V753.611M981.251 762.096H972.733M981.251 762.096H989.769M768.296 853.009V844.523M768.296 844.523V836.038M768.296 844.523H759.777M768.296 844.523H776.814M768.296 894.222V885.737M768.296 885.737V877.252M768.296 885.737H759.777M768.296 885.737H776.814M768.296 770.581V762.096M768.296 762.096V753.611M768.296 762.096H759.777M768.296 762.096H776.814M768.296 811.795V803.31M768.296 803.31V794.824M768.296 803.31H759.777M768.296 803.31H776.814M896.069 811.795V803.31M896.069 803.31V794.824M896.069 803.31H887.551M896.069 803.31H904.587M896.069 853.009V844.523M896.069 844.523V836.038M896.069 844.523H887.551M896.069 844.523H904.587M896.069 894.222V885.737M896.069 885.737V877.252M896.069 885.737H887.551M896.069 885.737H904.587M896.069 770.581V762.096M896.069 762.096V753.611M896.069 762.096H887.551M896.069 762.096H904.587M810.887 733.945V725.46M810.887 725.46V716.974M810.887 725.46H802.368M810.887 725.46H819.405M810.887 610.303V601.818M810.887 601.818V593.333M810.887 601.818H802.368M810.887 601.818H819.405M810.887 651.517V643.032M810.887 643.032V634.547M810.887 643.032H802.368M810.887 643.032H819.405M938.66 651.517V643.032M938.66 643.032V634.547M938.66 643.032H930.142M938.66 643.032H947.178M938.66 692.731V684.246M938.66 684.246V675.761M938.66 684.246H930.142M938.66 684.246H947.178M938.66 733.945V725.46M938.66 725.46V716.974M938.66 725.46H930.142M938.66 725.46H947.178M938.66 610.303V601.818M938.66 601.818V593.333M938.66 601.818H930.142M938.66 601.818H947.178M810.887 692.731V684.246M810.887 684.246V675.761M810.887 684.246H802.368M810.887 684.246H819.405M853.478 692.731V684.246M853.478 684.246V675.761M853.478 684.246H844.96M853.478 684.246H861.996M853.478 733.945V725.46M853.478 725.46V716.974M853.478 725.46H844.96M853.478 725.46H861.996M853.478 610.303V601.818M853.478 601.818V593.333M853.478 601.818H844.96M853.478 601.818H861.996M853.478 651.517V643.032M853.478 643.032V634.547M853.478 643.032H844.96M853.478 643.032H861.996M981.251 651.517V643.032M981.251 643.032V634.547M981.251 643.032H972.733M981.251 643.032H989.769M981.251 692.731V684.246M981.251 684.246V675.761M981.251 684.246H972.733M981.251 684.246H989.769M981.251 733.945V725.46M981.251 725.46V716.974M981.251 725.46H972.733M981.251 725.46H989.769M981.251 610.303V601.818M981.251 601.818V593.333M981.251 601.818H972.733M981.251 601.818H989.769M768.296 692.731V684.246M768.296 684.246V675.761M768.296 684.246H759.777M768.296 684.246H776.814M768.296 733.945V725.46M768.296 725.46V716.974M768.296 725.46H759.777M768.296 725.46H776.814M768.296 610.303V601.818M768.296 601.818V593.333M768.296 601.818H759.777M768.296 601.818H776.814M768.296 651.517V643.032M768.296 643.032V634.547M768.296 643.032H759.777M768.296 643.032H776.814M896.069 651.517V643.032M896.069 643.032V634.547M896.069 643.032H887.551M896.069 643.032H904.587M896.069 692.731V684.246M896.069 684.246V675.761M896.069 684.246H887.551M896.069 684.246H904.587M896.069 733.945V725.46M896.069 725.46V716.974M896.069 725.46H887.551M896.069 725.46H904.587M896.069 610.303V601.818M896.069 601.818V593.333M896.069 601.818H887.551M896.069 601.818H904.587M810.887 573.667V565.182M810.887 565.182V556.697M810.887 565.182H802.368M810.887 565.182H819.405M810.887 450.026V441.54M810.887 441.54V433.055M810.887 441.54H802.368M810.887 441.54H819.405M810.887 491.24V482.754M810.887 482.754V474.269M810.887 482.754H802.368M810.887 482.754H819.405M938.66 491.24V482.754M938.66 482.754V474.269M938.66 482.754H930.142M938.66 482.754H947.178M938.66 532.453V523.968M938.66 523.968V515.483M938.66 523.968H930.142M938.66 523.968H947.178M938.66 573.667V565.182M938.66 565.182V556.697M938.66 565.182H930.142M938.66 565.182H947.178M938.66 450.026V441.54M938.66 441.54V433.055M938.66 441.54H930.142M938.66 441.54H947.178M810.887 532.453V523.968M810.887 523.968V515.483M810.887 523.968H802.368M810.887 523.968H819.405M853.478 532.453V523.968M853.478 523.968V515.483M853.478 523.968H844.96M853.478 523.968H861.996M853.478 573.667V565.182M853.478 565.182V556.697M853.478 565.182H844.96M853.478 565.182H861.996M853.478 450.026V441.54M853.478 441.54V433.055M853.478 441.54H844.96M853.478 441.54H861.996M853.478 491.24V482.754M853.478 482.754V474.269M853.478 482.754H844.96M853.478 482.754H861.996M981.251 491.24V482.754M981.251 482.754V474.269M981.251 482.754H972.733M981.251 482.754H989.769M981.251 532.453V523.968M981.251 523.968V515.483M981.251 523.968H972.733M981.251 523.968H989.769M981.251 573.667V565.182M981.251 565.182V556.697M981.251 565.182H972.733M981.251 565.182H989.769M981.251 450.026V441.54M981.251 441.54V433.055M981.251 441.54H972.733M981.251 441.54H989.769M768.296 532.453V523.968M768.296 523.968V515.483M768.296 523.968H759.777M768.296 523.968H776.814M768.296 573.667V565.182M768.296 565.182V556.697M768.296 565.182H759.777M768.296 565.182H776.814M768.296 450.026V441.54M768.296 441.54V433.055M768.296 441.54H759.777M768.296 441.54H776.814M768.296 491.24V482.754M768.296 482.754V474.269M768.296 482.754H759.777M768.296 482.754H776.814M896.069 491.24V482.754M896.069 482.754V474.269M896.069 482.754H887.551M896.069 482.754H904.587M896.069 532.453V523.968M896.069 523.968V515.483M896.069 523.968H887.551M896.069 523.968H904.587M896.069 573.667V565.182M896.069 565.182V556.697M896.069 565.182H887.551M896.069 565.182H904.587M896.069 450.026V441.54M896.069 441.54V433.055M896.069 441.54H887.551M896.069 441.54H904.587M810.887 413.389V404.904M810.887 404.904V396.419M810.887 404.904H802.368M810.887 404.904H819.405M810.887 289.748V281.263M810.887 281.263V272.778M810.887 281.263H802.368M810.887 281.263H819.405M810.887 330.962V322.477M810.887 322.477V313.991M810.887 322.477H802.368M810.887 322.477H819.405M938.66 330.962V322.477M938.66 322.477V313.991M938.66 322.477H930.142M938.66 322.477H947.178M938.66 372.176V363.69M938.66 363.69V355.205M938.66 363.69H930.142M938.66 363.69H947.178M938.66 413.389V404.904M938.66 404.904V396.419M938.66 404.904H930.142M938.66 404.904H947.178M938.66 289.748V281.263M938.66 281.263V272.778M938.66 281.263H930.142M938.66 281.263H947.178M810.887 372.176V363.69M810.887 363.69V355.205M810.887 363.69H802.368M810.887 363.69H819.405M853.478 372.176V363.69M853.478 363.69V355.205M853.478 363.69H844.96M853.478 363.69H861.996M853.478 413.389V404.904M853.478 404.904V396.419M853.478 404.904H844.96M853.478 404.904H861.996M853.478 289.748V281.263M853.478 281.263V272.778M853.478 281.263H844.96M853.478 281.263H861.996M853.478 330.962V322.477M853.478 322.477V313.991M853.478 322.477H844.96M853.478 322.477H861.996M981.251 330.962V322.477M981.251 322.477V313.991M981.251 322.477H972.733M981.251 322.477H989.769M981.251 372.176V363.69M981.251 363.69V355.205M981.251 363.69H972.733M981.251 363.69H989.769M981.251 413.389V404.904M981.251 404.904V396.419M981.251 404.904H972.733M981.251 404.904H989.769M981.251 289.748V281.263M981.251 281.263V272.778M981.251 281.263H972.733M981.251 281.263H989.769M768.296 372.176V363.69M768.296 363.69V355.205M768.296 363.69H759.777M768.296 363.69H776.814M768.296 413.389V404.904M768.296 404.904V396.419M768.296 404.904H759.777M768.296 404.904H776.814M768.296 289.748V281.263M768.296 281.263V272.778M768.296 281.263H759.777M768.296 281.263H776.814M768.296 330.962V322.477M768.296 322.477V313.991M768.296 322.477H759.777M768.296 322.477H776.814M896.069 330.962V322.477M896.069 322.477V313.991M896.069 322.477H887.551M896.069 322.477H904.587M896.069 372.176V363.69M896.069 363.69V355.205M896.069 363.69H887.551M896.069 363.69H904.587M896.069 413.389V404.904M896.069 404.904V396.419M896.069 404.904H887.551M896.069 404.904H904.587M896.069 289.748V281.263M896.069 281.263V272.778M896.069 281.263H887.551M896.069 281.263H904.587M810.887 253.112V244.627M810.887 244.627V236.141M810.887 244.627H802.368M810.887 244.627H819.405M810.887 129.47V120.985M810.887 120.985V112.5M810.887 120.985H802.368M810.887 120.985H819.405M810.887 170.684V162.199M810.887 162.199V153.714M810.887 162.199H802.368M810.887 162.199H819.405M938.66 170.684V162.199M938.66 162.199V153.714M938.66 162.199H930.142M938.66 162.199H947.178M938.66 211.898V203.413M938.66 203.413V194.928M938.66 203.413H930.142M938.66 203.413H947.178M938.66 253.112V244.627M938.66 244.627V236.141M938.66 244.627H930.142M938.66 244.627H947.178M938.66 129.47V120.985M938.66 120.985V112.5M938.66 120.985H930.142M938.66 120.985H947.178M810.887 211.898V203.413M810.887 203.413V194.928M810.887 203.413H802.368M810.887 203.413H819.405M853.478 211.898V203.413M853.478 203.413V194.928M853.478 203.413H844.96M853.478 203.413H861.996M853.478 253.112V244.627M853.478 244.627V236.141M853.478 244.627H844.96M853.478 244.627H861.996M853.478 129.47V120.985M853.478 120.985V112.5M853.478 120.985H844.96M853.478 120.985H861.996M853.478 170.684V162.199M853.478 162.199V153.714M853.478 162.199H844.96M853.478 162.199H861.996M981.251 170.684V162.199M981.251 162.199V153.714M981.251 162.199H972.733M981.251 162.199H989.769M981.251 211.898V203.413M981.251 203.413V194.928M981.251 203.413H972.733M981.251 203.413H989.769M981.251 253.112V244.627M981.251 244.627V236.141M981.251 244.627H972.733M981.251 244.627H989.769M981.251 129.47V120.985M981.251 120.985V112.5M981.251 120.985H972.733M981.251 120.985H989.769M768.296 211.898V203.413M768.296 203.413V194.928M768.296 203.413H759.777M768.296 203.413H776.814M768.296 253.112V244.627M768.296 244.627V236.141M768.296 244.627H759.777M768.296 244.627H776.814M768.296 129.47V120.985M768.296 120.985V112.5M768.296 120.985H759.777M768.296 120.985H776.814M768.296 170.684V162.199M768.296 162.199V153.714M768.296 162.199H759.777M768.296 162.199H776.814M896.069 170.684V162.199M896.069 162.199V153.714M896.069 162.199H887.551M896.069 162.199H904.587M896.069 211.898V203.413M896.069 203.413V194.928M896.069 203.413H887.551M896.069 203.413H904.587M896.069 253.112V244.627M896.069 244.627V236.141M896.069 244.627H887.551M896.069 244.627H904.587M896.069 129.47V120.985M896.069 120.985V112.5M896.069 120.985H887.551M896.069 120.985H904.587M555.34 1054.5V1046.01M555.34 1046.01V1037.53M555.34 1046.01H546.822M555.34 1046.01H563.858M555.34 930.859V922.373M555.34 922.373V913.888M555.34 922.373H546.822M555.34 922.373H563.858M555.34 972.072V963.587M555.34 963.587V955.102M555.34 963.587H546.822M555.34 963.587H563.858M683.113 972.072V963.587M683.113 963.587V955.102M683.113 963.587H674.595M683.113 963.587H691.632M683.113 1013.29V1004.8M683.113 1004.8V996.316M683.113 1004.8H674.595M683.113 1004.8H691.632M683.113 1054.5V1046.01M683.113 1046.01V1037.53M683.113 1046.01H674.595M683.113 1046.01H691.632M683.113 930.859V922.373M683.113 922.373V913.888M683.113 922.373H674.595M683.113 922.373H691.632M555.34 1013.29V1004.8M555.34 1004.8V996.316M555.34 1004.8H546.822M555.34 1004.8H563.858M597.931 1013.29V1004.8M597.931 1004.8V996.316M597.931 1004.8H589.413M597.931 1004.8H606.449M597.931 1054.5V1046.01M597.931 1046.01V1037.53M597.931 1046.01H589.413M597.931 1046.01H606.449M597.931 930.859V922.373M597.931 922.373V913.888M597.931 922.373H589.413M597.931 922.373H606.449M597.931 972.072V963.587M597.931 963.587V955.102M597.931 963.587H589.413M597.931 963.587H606.449M725.704 972.072V963.587M725.704 963.587V955.102M725.704 963.587H717.186M725.704 963.587H734.223M725.704 1013.29V1004.8M725.704 1004.8V996.316M725.704 1004.8H717.186M725.704 1004.8H734.223M725.704 1054.5V1046.01M725.704 1046.01V1037.53M725.704 1046.01H717.186M725.704 1046.01H734.223M725.704 930.859V922.373M725.704 922.373V913.888M725.704 922.373H717.186M725.704 922.373H734.223M512.749 1013.29V1004.8M512.749 1004.8V996.316M512.749 1004.8H504.231M512.749 1004.8H521.267M512.749 1054.5V1046.01M512.749 1046.01V1037.53M512.749 1046.01H504.231M512.749 1046.01H521.267M512.749 930.859V922.373M512.749 922.373V913.888M512.749 922.373H504.231M512.749 922.373H521.267M512.749 972.072V963.587M512.749 963.587V955.102M512.749 963.587H504.231M512.749 963.587H521.267M640.522 972.072V963.587M640.522 963.587V955.102M640.522 963.587H632.004M640.522 963.587H649.04M640.522 1013.29V1004.8M640.522 1004.8V996.316M640.522 1004.8H632.004M640.522 1004.8H649.04M640.522 1054.5V1046.01M640.522 1046.01V1037.53M640.522 1046.01H632.004M640.522 1046.01H649.04M640.522 930.859V922.373M640.522 922.373V913.888M640.522 922.373H632.004M640.522 922.373H649.04M555.34 894.222V885.737M555.34 885.737V877.252M555.34 885.737H546.822M555.34 885.737H563.858M555.34 770.581V762.096M555.34 762.096V753.611M555.34 762.096H546.822M555.34 762.096H563.858M555.34 811.795V803.31M555.34 803.31V794.824M555.34 803.31H546.822M555.34 803.31H563.858M683.113 811.795V803.31M683.113 803.31V794.824M683.113 803.31H674.595M683.113 803.31H691.632M683.113 853.009V844.523M683.113 844.523V836.038M683.113 844.523H674.595M683.113 844.523H691.632M683.113 894.222V885.737M683.113 885.737V877.252M683.113 885.737H674.595M683.113 885.737H691.632M683.113 770.581V762.096M683.113 762.096V753.611M683.113 762.096H674.595M683.113 762.096H691.632M555.34 853.009V844.523M555.34 844.523V836.038M555.34 844.523H546.822M555.34 844.523H563.858M597.931 853.009V844.523M597.931 844.523V836.038M597.931 844.523H589.413M597.931 844.523H606.449M597.931 894.222V885.737M597.931 885.737V877.252M597.931 885.737H589.413M597.931 885.737H606.449M597.931 770.581V762.096M597.931 762.096V753.611M597.931 762.096H589.413M597.931 762.096H606.449M597.931 811.795V803.31M597.931 803.31V794.824M597.931 803.31H589.413M597.931 803.31H606.449M725.704 811.795V803.31M725.704 803.31V794.824M725.704 803.31H717.186M725.704 803.31H734.223M725.704 853.009V844.523M725.704 844.523V836.038M725.704 844.523H717.186M725.704 844.523H734.223M725.704 894.222V885.737M725.704 885.737V877.252M725.704 885.737H717.186M725.704 885.737H734.223M725.704 770.581V762.096M725.704 762.096V753.611M725.704 762.096H717.186M725.704 762.096H734.223M512.749 853.009V844.523M512.749 844.523V836.038M512.749 844.523H504.231M512.749 844.523H521.267M512.749 894.222V885.737M512.749 885.737V877.252M512.749 885.737H504.231M512.749 885.737H521.267M512.749 770.581V762.096M512.749 762.096V753.611M512.749 762.096H504.231M512.749 762.096H521.267M512.749 811.795V803.31M512.749 803.31V794.824M512.749 803.31H504.231M512.749 803.31H521.267M640.522 811.795V803.31M640.522 803.31V794.824M640.522 803.31H632.004M640.522 803.31H649.04M640.522 853.009V844.523M640.522 844.523V836.038M640.522 844.523H632.004M640.522 844.523H649.04M640.522 894.222V885.737M640.522 885.737V877.252M640.522 885.737H632.004M640.522 885.737H649.04M640.522 770.581V762.096M640.522 762.096V753.611M640.522 762.096H632.004M640.522 762.096H649.04M555.34 733.945V725.46M555.34 725.46V716.974M555.34 725.46H546.822M555.34 725.46H563.858M555.34 610.303V601.818M555.34 601.818V593.333M555.34 601.818H546.822M555.34 601.818H563.858M555.34 651.517V643.032M555.34 643.032V634.547M555.34 643.032H546.822M555.34 643.032H563.858M683.113 651.517V643.032M683.113 643.032V634.547M683.113 643.032H674.595M683.113 643.032H691.632M683.113 692.731V684.246M683.113 684.246V675.761M683.113 684.246H674.595M683.113 684.246H691.632M683.113 733.945V725.46M683.113 725.46V716.974M683.113 725.46H674.595M683.113 725.46H691.632M683.113 610.303V601.818M683.113 601.818V593.333M683.113 601.818H674.595M683.113 601.818H691.632M555.34 692.731V684.246M555.34 684.246V675.761M555.34 684.246H546.822M555.34 684.246H563.858M597.931 692.731V684.246M597.931 684.246V675.761M597.931 684.246H589.413M597.931 684.246H606.449M597.931 733.945V725.46M597.931 725.46V716.974M597.931 725.46H589.413M597.931 725.46H606.449M597.931 610.303V601.818M597.931 601.818V593.333M597.931 601.818H589.413M597.931 601.818H606.449M597.931 651.517V643.032M597.931 643.032V634.547M597.931 643.032H589.413M597.931 643.032H606.449M725.704 651.517V643.032M725.704 643.032V634.547M725.704 643.032H717.186M725.704 643.032H734.223M725.704 692.731V684.246M725.704 684.246V675.761M725.704 684.246H717.186M725.704 684.246H734.223M725.704 733.945V725.46M725.704 725.46V716.974M725.704 725.46H717.186M725.704 725.46H734.223M725.704 610.303V601.818M725.704 601.818V593.333M725.704 601.818H717.186M725.704 601.818H734.223M512.749 692.731V684.246M512.749 684.246V675.761M512.749 684.246H504.231M512.749 684.246H521.267M512.749 733.945V725.46M512.749 725.46V716.974M512.749 725.46H504.231M512.749 725.46H521.267M512.749 610.303V601.818M512.749 601.818V593.333M512.749 601.818H504.231M512.749 601.818H521.267M512.749 651.517V643.032M512.749 643.032V634.547M512.749 643.032H504.231M512.749 643.032H521.267M640.522 651.517V643.032M640.522 643.032V634.547M640.522 643.032H632.004M640.522 643.032H649.04M640.522 692.731V684.246M640.522 684.246V675.761M640.522 684.246H632.004M640.522 684.246H649.04M640.522 733.945V725.46M640.522 725.46V716.974M640.522 725.46H632.004M640.522 725.46H649.04M640.522 610.303V601.818M640.522 601.818V593.333M640.522 601.818H632.004M640.522 601.818H649.04M555.34 573.667V565.182M555.34 565.182V556.697M555.34 565.182H546.822M555.34 565.182H563.858M555.34 450.026V441.54M555.34 441.54V433.055M555.34 441.54H546.822M555.34 441.54H563.858M555.34 491.24V482.754M555.34 482.754V474.269M555.34 482.754H546.822M555.34 482.754H563.858M683.113 491.24V482.754M683.113 482.754V474.269M683.113 482.754H674.595M683.113 482.754H691.632M683.113 532.453V523.968M683.113 523.968V515.483M683.113 523.968H674.595M683.113 523.968H691.632M683.113 573.667V565.182M683.113 565.182V556.697M683.113 565.182H674.595M683.113 565.182H691.632M683.113 450.026V441.54M683.113 441.54V433.055M683.113 441.54H674.595M683.113 441.54H691.632M555.34 532.453V523.968M555.34 523.968V515.483M555.34 523.968H546.822M555.34 523.968H563.858M597.931 532.453V523.968M597.931 523.968V515.483M597.931 523.968H589.413M597.931 523.968H606.449M597.931 573.667V565.182M597.931 565.182V556.697M597.931 565.182H589.413M597.931 565.182H606.449M597.931 450.026V441.54M597.931 441.54V433.055M597.931 441.54H589.413M597.931 441.54H606.449M597.931 491.24V482.754M597.931 482.754V474.269M597.931 482.754H589.413M597.931 482.754H606.449M725.704 491.24V482.754M725.704 482.754V474.269M725.704 482.754H717.186M725.704 482.754H734.223M725.704 532.453V523.968M725.704 523.968V515.483M725.704 523.968H717.186M725.704 523.968H734.223M725.704 573.667V565.182M725.704 565.182V556.697M725.704 565.182H717.186M725.704 565.182H734.223M725.704 450.026V441.54M725.704 441.54V433.055M725.704 441.54H717.186M725.704 441.54H734.223M512.749 532.453V523.968M512.749 523.968V515.483M512.749 523.968H504.231M512.749 523.968H521.267M512.749 573.667V565.182M512.749 565.182V556.697M512.749 565.182H504.231M512.749 565.182H521.267M512.749 450.026V441.54M512.749 441.54V433.055M512.749 441.54H504.231M512.749 441.54H521.267M512.749 491.24V482.754M512.749 482.754V474.269M512.749 482.754H504.231M512.749 482.754H521.267M640.522 491.24V482.754M640.522 482.754V474.269M640.522 482.754H632.004M640.522 482.754H649.04M640.522 532.453V523.968M640.522 523.968V515.483M640.522 523.968H632.004M640.522 523.968H649.04M640.522 573.667V565.182M640.522 565.182V556.697M640.522 565.182H632.004M640.522 565.182H649.04M640.522 450.026V441.54M640.522 441.54V433.055M640.522 441.54H632.004M640.522 441.54H649.04M555.34 413.389V404.904M555.34 404.904V396.419M555.34 404.904H546.822M555.34 404.904H563.858M555.34 289.748V281.263M555.34 281.263V272.778M555.34 281.263H546.822M555.34 281.263H563.858M555.34 330.962V322.477M555.34 322.477V313.991M555.34 322.477H546.822M555.34 322.477H563.858M683.113 330.962V322.477M683.113 322.477V313.991M683.113 322.477H674.595M683.113 322.477H691.632M683.113 372.176V363.69M683.113 363.69V355.205M683.113 363.69H674.595M683.113 363.69H691.632M683.113 413.389V404.904M683.113 404.904V396.419M683.113 404.904H674.595M683.113 404.904H691.632M683.113 289.748V281.263M683.113 281.263V272.778M683.113 281.263H674.595M683.113 281.263H691.632M555.34 372.176V363.69M555.34 363.69V355.205M555.34 363.69H546.822M555.34 363.69H563.858M597.931 372.176V363.69M597.931 363.69V355.205M597.931 363.69H589.413M597.931 363.69H606.449M597.931 413.389V404.904M597.931 404.904V396.419M597.931 404.904H589.413M597.931 404.904H606.449M597.931 289.748V281.263M597.931 281.263V272.778M597.931 281.263H589.413M597.931 281.263H606.449M597.931 330.962V322.477M597.931 322.477V313.991M597.931 322.477H589.413M597.931 322.477H606.449M725.704 330.962V322.477M725.704 322.477V313.991M725.704 322.477H717.186M725.704 322.477H734.223M725.704 372.176V363.69M725.704 363.69V355.205M725.704 363.69H717.186M725.704 363.69H734.223M725.704 413.389V404.904M725.704 404.904V396.419M725.704 404.904H717.186M725.704 404.904H734.223M725.704 289.748V281.263M725.704 281.263V272.778M725.704 281.263H717.186M725.704 281.263H734.223M512.749 372.176V363.69M512.749 363.69V355.205M512.749 363.69H504.231M512.749 363.69H521.267M512.749 413.389V404.904M512.749 404.904V396.419M512.749 404.904H504.231M512.749 404.904H521.267M512.749 289.748V281.263M512.749 281.263V272.778M512.749 281.263H504.231M512.749 281.263H521.267M512.749 330.962V322.477M512.749 322.477V313.991M512.749 322.477H504.231M512.749 322.477H521.267M640.522 330.962V322.477M640.522 322.477V313.991M640.522 322.477H632.004M640.522 322.477H649.04M640.522 372.176V363.69M640.522 363.69V355.205M640.522 363.69H632.004M640.522 363.69H649.04M640.522 413.389V404.904M640.522 404.904V396.419M640.522 404.904H632.004M640.522 404.904H649.04M640.522 289.748V281.263M640.522 281.263V272.778M640.522 281.263H632.004M640.522 281.263H649.04M555.34 253.112V244.627M555.34 244.627V236.141M555.34 244.627H546.822M555.34 244.627H563.858M555.34 129.47V120.985M555.34 120.985V112.5M555.34 120.985H546.822M555.34 120.985H563.858M555.34 170.684V162.199M555.34 162.199V153.714M555.34 162.199H546.822M555.34 162.199H563.858M683.113 170.684V162.199M683.113 162.199V153.714M683.113 162.199H674.595M683.113 162.199H691.632M683.113 211.898V203.413M683.113 203.413V194.928M683.113 203.413H674.595M683.113 203.413H691.632M683.113 253.112V244.627M683.113 244.627V236.141M683.113 244.627H674.595M683.113 244.627H691.632M683.113 129.47V120.985M683.113 120.985V112.5M683.113 120.985H674.595M683.113 120.985H691.632M555.34 211.898V203.413M555.34 203.413V194.928M555.34 203.413H546.822M555.34 203.413H563.858M597.931 211.898V203.413M597.931 203.413V194.928M597.931 203.413H589.413M597.931 203.413H606.449M597.931 253.112V244.627M597.931 244.627V236.141M597.931 244.627H589.413M597.931 244.627H606.449M597.931 129.47V120.985M597.931 120.985V112.5M597.931 120.985H589.413M597.931 120.985H606.449M597.931 170.684V162.199M597.931 162.199V153.714M597.931 162.199H589.413M597.931 162.199H606.449M725.704 170.684V162.199M725.704 162.199V153.714M725.704 162.199H717.186M725.704 162.199H734.223M725.704 211.898V203.413M725.704 203.413V194.928M725.704 203.413H717.186M725.704 203.413H734.223M725.704 253.112V244.627M725.704 244.627V236.141M725.704 244.627H717.186M725.704 244.627H734.223M725.704 129.47V120.985M725.704 120.985V112.5M725.704 120.985H717.186M725.704 120.985H734.223M512.749 211.898V203.413M512.749 203.413V194.928M512.749 203.413H504.231M512.749 203.413H521.267M512.749 253.112V244.627M512.749 244.627V236.141M512.749 244.627H504.231M512.749 244.627H521.267M512.749 129.47V120.985M512.749 120.985V112.5M512.749 120.985H504.231M512.749 120.985H521.267M512.749 170.684V162.199M512.749 162.199V153.714M512.749 162.199H504.231M512.749 162.199H521.267M640.522 170.684V162.199M640.522 162.199V153.714M640.522 162.199H632.004M640.522 162.199H649.04M640.522 211.898V203.413M640.522 203.413V194.928M640.522 203.413H632.004M640.522 203.413H649.04M640.522 253.112V244.627M640.522 244.627V236.141M640.522 244.627H632.004M640.522 244.627H649.04M640.522 129.47V120.985M640.522 120.985V112.5M640.522 120.985H632.004M640.522 120.985H649.04M303.725 1054.5V1046.01M303.725 1046.01V1037.53M303.725 1046.01H295.206M303.725 1046.01H312.243M303.725 930.859V922.373M303.725 922.373V913.888M303.725 922.373H295.206M303.725 922.373H312.243M303.725 972.072V963.587M303.725 963.587V955.102M303.725 963.587H295.206M303.725 963.587H312.243M431.498 972.072V963.587M431.498 963.587V955.102M431.498 963.587H422.98M431.498 963.587H440.016M431.498 1013.29V1004.8M431.498 1004.8V996.316M431.498 1004.8H422.98M431.498 1004.8H440.016M431.498 1054.5V1046.01M431.498 1046.01V1037.53M431.498 1046.01H422.98M431.498 1046.01H440.016M431.498 930.859V922.373M431.498 922.373V913.888M431.498 922.373H422.98M431.498 922.373H440.016M303.725 1013.29V1004.8M303.725 1004.8V996.316M303.725 1004.8H295.206M303.725 1004.8H312.243M346.316 1013.29V1004.8M346.316 1004.8V996.316M346.316 1004.8H337.798M346.316 1004.8H354.834M346.316 1054.5V1046.01M346.316 1046.01V1037.53M346.316 1046.01H337.798M346.316 1046.01H354.834M346.316 930.859V922.373M346.316 922.373V913.888M346.316 922.373H337.798M346.316 922.373H354.834M346.316 972.072V963.587M346.316 963.587V955.102M346.316 963.587H337.798M346.316 963.587H354.834M474.089 972.072V963.587M474.089 963.587V955.102M474.089 963.587H465.571M474.089 963.587H482.607M474.089 1013.29V1004.8M474.089 1004.8V996.316M474.089 1004.8H465.571M474.089 1004.8H482.607M474.089 1054.5V1046.01M474.089 1046.01V1037.53M474.089 1046.01H465.571M474.089 1046.01H482.607M474.089 930.859V922.373M474.089 922.373V913.888M474.089 922.373H465.571M474.089 922.373H482.607M261.134 1013.29V1004.8M261.134 1004.8V996.316M261.134 1004.8H252.615M261.134 1004.8H269.652M261.134 1054.5V1046.01M261.134 1046.01V1037.53M261.134 1046.01H252.615M261.134 1046.01H269.652M261.134 930.859V922.373M261.134 922.373V913.888M261.134 922.373H252.615M261.134 922.373H269.652M261.134 972.072V963.587M261.134 963.587V955.102M261.134 963.587H252.615M261.134 963.587H269.652M388.907 972.072V963.587M388.907 963.587V955.102M388.907 963.587H380.389M388.907 963.587H397.425M388.907 1013.29V1004.8M388.907 1004.8V996.316M388.907 1004.8H380.389M388.907 1004.8H397.425M388.907 1054.5V1046.01M388.907 1046.01V1037.53M388.907 1046.01H380.389M388.907 1046.01H397.425M388.907 930.859V922.373M388.907 922.373V913.888M388.907 922.373H380.389M388.907 922.373H397.425M303.725 894.222V885.737M303.725 885.737V877.252M303.725 885.737H295.206M303.725 885.737H312.243M303.725 770.581V762.096M303.725 762.096V753.611M303.725 762.096H295.206M303.725 762.096H312.243M303.725 811.795V803.31M303.725 803.31V794.824M303.725 803.31H295.206M303.725 803.31H312.243M431.498 811.795V803.31M431.498 803.31V794.824M431.498 803.31H422.98M431.498 803.31H440.016M431.498 853.009V844.523M431.498 844.523V836.038M431.498 844.523H422.98M431.498 844.523H440.016M431.498 894.222V885.737M431.498 885.737V877.252M431.498 885.737H422.98M431.498 885.737H440.016M431.498 770.581V762.096M431.498 762.096V753.611M431.498 762.096H422.98M431.498 762.096H440.016M303.725 853.009V844.523M303.725 844.523V836.038M303.725 844.523H295.206M303.725 844.523H312.243M346.316 853.009V844.523M346.316 844.523V836.038M346.316 844.523H337.798M346.316 844.523H354.834M346.316 894.222V885.737M346.316 885.737V877.252M346.316 885.737H337.798M346.316 885.737H354.834M346.316 770.581V762.096M346.316 762.096V753.611M346.316 762.096H337.798M346.316 762.096H354.834M346.316 811.795V803.31M346.316 803.31V794.824M346.316 803.31H337.798M346.316 803.31H354.834M474.089 811.795V803.31M474.089 803.31V794.824M474.089 803.31H465.571M474.089 803.31H482.607M474.089 853.009V844.523M474.089 844.523V836.038M474.089 844.523H465.571M474.089 844.523H482.607M474.089 894.222V885.737M474.089 885.737V877.252M474.089 885.737H465.571M474.089 885.737H482.607M474.089 770.581V762.096M474.089 762.096V753.611M474.089 762.096H465.571M474.089 762.096H482.607M261.134 853.009V844.523M261.134 844.523V836.038M261.134 844.523H252.615M261.134 844.523H269.652M261.134 894.222V885.737M261.134 885.737V877.252M261.134 885.737H252.615M261.134 885.737H269.652M261.134 770.581V762.096M261.134 762.096V753.611M261.134 762.096H252.615M261.134 762.096H269.652M261.134 811.795V803.31M261.134 803.31V794.824M261.134 803.31H252.615M261.134 803.31H269.652M388.907 811.795V803.31M388.907 803.31V794.824M388.907 803.31H380.389M388.907 803.31H397.425M388.907 853.009V844.523M388.907 844.523V836.038M388.907 844.523H380.389M388.907 844.523H397.425M388.907 894.222V885.737M388.907 885.737V877.252M388.907 885.737H380.389M388.907 885.737H397.425M388.907 770.581V762.096M388.907 762.096V753.611M388.907 762.096H380.389M388.907 762.096H397.425M303.725 733.945V725.46M303.725 725.46V716.974M303.725 725.46H295.206M303.725 725.46H312.243M303.725 610.303V601.818M303.725 601.818V593.333M303.725 601.818H295.206M303.725 601.818H312.243M303.725 651.517V643.032M303.725 643.032V634.547M303.725 643.032H295.206M303.725 643.032H312.243M431.498 651.517V643.032M431.498 643.032V634.547M431.498 643.032H422.98M431.498 643.032H440.016M431.498 692.731V684.246M431.498 684.246V675.761M431.498 684.246H422.98M431.498 684.246H440.016M431.498 733.945V725.46M431.498 725.46V716.974M431.498 725.46H422.98M431.498 725.46H440.016M431.498 610.303V601.818M431.498 601.818V593.333M431.498 601.818H422.98M431.498 601.818H440.016M303.725 692.731V684.246M303.725 684.246V675.761M303.725 684.246H295.206M303.725 684.246H312.243M346.316 692.731V684.246M346.316 684.246V675.761M346.316 684.246H337.798M346.316 684.246H354.834M346.316 733.945V725.46M346.316 725.46V716.974M346.316 725.46H337.798M346.316 725.46H354.834M346.316 610.303V601.818M346.316 601.818V593.333M346.316 601.818H337.798M346.316 601.818H354.834M346.316 651.517V643.032M346.316 643.032V634.547M346.316 643.032H337.798M346.316 643.032H354.834M474.089 651.517V643.032M474.089 643.032V634.547M474.089 643.032H465.571M474.089 643.032H482.607M474.089 692.731V684.246M474.089 684.246V675.761M474.089 684.246H465.571M474.089 684.246H482.607M474.089 733.945V725.46M474.089 725.46V716.974M474.089 725.46H465.571M474.089 725.46H482.607M474.089 610.303V601.818M474.089 601.818V593.333M474.089 601.818H465.571M474.089 601.818H482.607M261.134 692.731V684.246M261.134 684.246V675.761M261.134 684.246H252.615M261.134 684.246H269.652M261.134 733.945V725.46M261.134 725.46V716.974M261.134 725.46H252.615M261.134 725.46H269.652M261.134 610.303V601.818M261.134 601.818V593.333M261.134 601.818H252.615M261.134 601.818H269.652M261.134 651.517V643.032M261.134 643.032V634.547M261.134 643.032H252.615M261.134 643.032H269.652M388.907 651.517V643.032M388.907 643.032V634.547M388.907 643.032H380.389M388.907 643.032H397.425M388.907 692.731V684.246M388.907 684.246V675.761M388.907 684.246H380.389M388.907 684.246H397.425M388.907 733.945V725.46M388.907 725.46V716.974M388.907 725.46H380.389M388.907 725.46H397.425M388.907 610.303V601.818M388.907 601.818V593.333M388.907 601.818H380.389M388.907 601.818H397.425M303.725 573.667V565.182M303.725 565.182V556.697M303.725 565.182H295.206M303.725 565.182H312.243M303.725 450.026V441.54M303.725 441.54V433.055M303.725 441.54H295.206M303.725 441.54H312.243M303.725 491.24V482.754M303.725 482.754V474.269M303.725 482.754H295.206M303.725 482.754H312.243M431.498 491.24V482.754M431.498 482.754V474.269M431.498 482.754H422.98M431.498 482.754H440.016M431.498 532.453V523.968M431.498 523.968V515.483M431.498 523.968H422.98M431.498 523.968H440.016M431.498 573.667V565.182M431.498 565.182V556.697M431.498 565.182H422.98M431.498 565.182H440.016M431.498 450.026V441.54M431.498 441.54V433.055M431.498 441.54H422.98M431.498 441.54H440.016M303.725 532.453V523.968M303.725 523.968V515.483M303.725 523.968H295.206M303.725 523.968H312.243M346.316 532.453V523.968M346.316 523.968V515.483M346.316 523.968H337.798M346.316 523.968H354.834M346.316 573.667V565.182M346.316 565.182V556.697M346.316 565.182H337.798M346.316 565.182H354.834M346.316 450.026V441.54M346.316 441.54V433.055M346.316 441.54H337.798M346.316 441.54H354.834M346.316 491.24V482.754M346.316 482.754V474.269M346.316 482.754H337.798M346.316 482.754H354.834M474.089 491.24V482.754M474.089 482.754V474.269M474.089 482.754H465.571M474.089 482.754H482.607M474.089 532.453V523.968M474.089 523.968V515.483M474.089 523.968H465.571M474.089 523.968H482.607M474.089 573.667V565.182M474.089 565.182V556.697M474.089 565.182H465.571M474.089 565.182H482.607M474.089 450.026V441.54M474.089 441.54V433.055M474.089 441.54H465.571M474.089 441.54H482.607M261.134 532.453V523.968M261.134 523.968V515.483M261.134 523.968H252.615M261.134 523.968H269.652M261.134 573.667V565.182M261.134 565.182V556.697M261.134 565.182H252.615M261.134 565.182H269.652M261.134 450.026V441.54M261.134 441.54V433.055M261.134 441.54H252.615M261.134 441.54H269.652M261.134 491.24V482.754M261.134 482.754V474.269M261.134 482.754H252.615M261.134 482.754H269.652M388.907 491.24V482.754M388.907 482.754V474.269M388.907 482.754H380.389M388.907 482.754H397.425M388.907 532.453V523.968M388.907 523.968V515.483M388.907 523.968H380.389M388.907 523.968H397.425M388.907 573.667V565.182M388.907 565.182V556.697M388.907 565.182H380.389M388.907 565.182H397.425M388.907 450.026V441.54M388.907 441.54V433.055M388.907 441.54H380.389M388.907 441.54H397.425M303.725 413.389V404.904M303.725 404.904V396.419M303.725 404.904H295.206M303.725 404.904H312.243M303.725 289.748V281.263M303.725 281.263V272.778M303.725 281.263H295.206M303.725 281.263H312.243M303.725 330.962V322.477M303.725 322.477V313.991M303.725 322.477H295.206M303.725 322.477H312.243M431.498 330.962V322.477M431.498 322.477V313.991M431.498 322.477H422.98M431.498 322.477H440.016M431.498 372.176V363.69M431.498 363.69V355.205M431.498 363.69H422.98M431.498 363.69H440.016M431.498 413.389V404.904M431.498 404.904V396.419M431.498 404.904H422.98M431.498 404.904H440.016M431.498 289.748V281.263M431.498 281.263V272.778M431.498 281.263H422.98M431.498 281.263H440.016M303.725 372.176V363.69M303.725 363.69V355.205M303.725 363.69H295.206M303.725 363.69H312.243M346.316 372.176V363.69M346.316 363.69V355.205M346.316 363.69H337.798M346.316 363.69H354.834M346.316 413.389V404.904M346.316 404.904V396.419M346.316 404.904H337.798M346.316 404.904H354.834M346.316 289.748V281.263M346.316 281.263V272.778M346.316 281.263H337.798M346.316 281.263H354.834M346.316 330.962V322.477M346.316 322.477V313.991M346.316 322.477H337.798M346.316 322.477H354.834M474.089 330.962V322.477M474.089 322.477V313.991M474.089 322.477H465.571M474.089 322.477H482.607M474.089 372.176V363.69M474.089 363.69V355.205M474.089 363.69H465.571M474.089 363.69H482.607M474.089 413.389V404.904M474.089 404.904V396.419M474.089 404.904H465.571M474.089 404.904H482.607M474.089 289.748V281.263M474.089 281.263V272.778M474.089 281.263H465.571M474.089 281.263H482.607M261.134 372.176V363.69M261.134 363.69V355.205M261.134 363.69H252.615M261.134 363.69H269.652M261.134 413.389V404.904M261.134 404.904V396.419M261.134 404.904H252.615M261.134 404.904H269.652M261.134 289.748V281.263M261.134 281.263V272.778M261.134 281.263H252.615M261.134 281.263H269.652M261.134 330.962V322.477M261.134 322.477V313.991M261.134 322.477H252.615M261.134 322.477H269.652M388.907 330.962V322.477M388.907 322.477V313.991M388.907 322.477H380.389M388.907 322.477H397.425M388.907 372.176V363.69M388.907 363.69V355.205M388.907 363.69H380.389M388.907 363.69H397.425M388.907 413.389V404.904M388.907 404.904V396.419M388.907 404.904H380.389M388.907 404.904H397.425M388.907 289.748V281.263M388.907 281.263V272.778M388.907 281.263H380.389M388.907 281.263H397.425M303.725 253.112V244.627M303.725 244.627V236.141M303.725 244.627H295.206M303.725 244.627H312.243M303.725 129.47V120.985M303.725 120.985V112.5M303.725 120.985H295.206M303.725 120.985H312.243M303.725 170.684V162.199M303.725 162.199V153.714M303.725 162.199H295.206M303.725 162.199H312.243M431.498 170.684V162.199M431.498 162.199V153.714M431.498 162.199H422.98M431.498 162.199H440.016M431.498 211.898V203.413M431.498 203.413V194.928M431.498 203.413H422.98M431.498 203.413H440.016M431.498 253.112V244.627M431.498 244.627V236.141M431.498 244.627H422.98M431.498 244.627H440.016M431.498 129.47V120.985M431.498 120.985V112.5M431.498 120.985H422.98M431.498 120.985H440.016M303.725 211.898V203.413M303.725 203.413V194.928M303.725 203.413H295.206M303.725 203.413H312.243M346.316 211.898V203.413M346.316 203.413V194.928M346.316 203.413H337.798M346.316 203.413H354.834M346.316 253.112V244.627M346.316 244.627V236.141M346.316 244.627H337.798M346.316 244.627H354.834M346.316 129.47V120.985M346.316 120.985V112.5M346.316 120.985H337.798M346.316 120.985H354.834M346.316 170.684V162.199M346.316 162.199V153.714M346.316 162.199H337.798M346.316 162.199H354.834M474.089 170.684V162.199M474.089 162.199V153.714M474.089 162.199H465.571M474.089 162.199H482.607M474.089 211.898V203.413M474.089 203.413V194.928M474.089 203.413H465.571M474.089 203.413H482.607M474.089 253.112V244.627M474.089 244.627V236.141M474.089 244.627H465.571M474.089 244.627H482.607M474.089 129.47V120.985M474.089 120.985V112.5M474.089 120.985H465.571M474.089 120.985H482.607M261.134 211.898V203.413M261.134 203.413V194.928M261.134 203.413H252.615M261.134 203.413H269.652M261.134 253.112V244.627M261.134 244.627V236.141M261.134 244.627H252.615M261.134 244.627H269.652M261.134 129.47V120.985M261.134 120.985V112.5M261.134 120.985H252.615M261.134 120.985H269.652M261.134 170.684V162.199M261.134 162.199V153.714M261.134 162.199H252.615M261.134 162.199H269.652M388.907 170.684V162.199M388.907 162.199V153.714M388.907 162.199H380.389M388.907 162.199H397.425M388.907 211.898V203.413M388.907 203.413V194.928M388.907 203.413H380.389M388.907 203.413H397.425M388.907 253.112V244.627M388.907 244.627V236.141M388.907 244.627H380.389M388.907 244.627H397.425M388.907 129.47V120.985M388.907 120.985V112.5M388.907 120.985H380.389M388.907 120.985H397.425M52.1094 1054.5V1046.01M52.1094 1046.01V1037.53M52.1094 1046.01H43.5912M52.1094 1046.01H60.6276M52.1094 930.859V922.373M52.1094 922.373V913.888M52.1094 922.373H43.5912M52.1094 922.373H60.6276M52.1094 972.072V963.587M52.1094 963.587V955.102M52.1094 963.587H43.5912M52.1094 963.587H60.6276M179.883 972.072V963.587M179.883 963.587V955.102M179.883 963.587H171.365M179.883 963.587H188.401M179.883 1013.29V1004.8M179.883 1004.8V996.316M179.883 1004.8H171.365M179.883 1004.8H188.401M179.883 1054.5V1046.01M179.883 1046.01V1037.53M179.883 1046.01H171.365M179.883 1046.01H188.401M179.883 930.859V922.373M179.883 922.373V913.888M179.883 922.373H171.365M179.883 922.373H188.401M52.1094 1013.29V1004.8M52.1094 1004.8V996.316M52.1094 1004.8H43.5912M52.1094 1004.8H60.6276M94.7006 1013.29V1004.8M94.7006 1004.8V996.316M94.7006 1004.8H86.1823M94.7006 1004.8H103.219M94.7006 1054.5V1046.01M94.7006 1046.01V1037.53M94.7006 1046.01H86.1823M94.7006 1046.01H103.219M94.7006 930.859V922.373M94.7006 922.373V913.888M94.7006 922.373H86.1823M94.7006 922.373H103.219M94.7006 972.072V963.587M94.7006 963.587V955.102M94.7006 963.587H86.1823M94.7006 963.587H103.219M222.474 972.072V963.587M222.474 963.587V955.102M222.474 963.587H213.956M222.474 963.587H230.992M222.474 1013.29V1004.8M222.474 1004.8V996.316M222.474 1004.8H213.956M222.474 1004.8H230.992M222.474 1054.5V1046.01M222.474 1046.01V1037.53M222.474 1046.01H213.956M222.474 1046.01H230.992M222.474 930.859V922.373M222.474 922.373V913.888M222.474 922.373H213.956M222.474 922.373H230.992M9.51819 1013.29V1004.8M9.51819 1004.8V996.316M9.51819 1004.8H1M9.51819 1004.8H18.0365M9.51819 1054.5V1046.01M9.51819 1046.01V1037.53M9.51819 1046.01H1M9.51819 1046.01H18.0365M9.51819 930.859V922.373M9.51819 922.373V913.888M9.51819 922.373H1M9.51819 922.373H18.0365M9.51819 972.072V963.587M9.51819 963.587V955.102M9.51819 963.587H1M9.51819 963.587H18.0365M137.292 972.072V963.587M137.292 963.587V955.102M137.292 963.587H128.773M137.292 963.587H145.81M137.292 1013.29V1004.8M137.292 1004.8V996.316M137.292 1004.8H128.773M137.292 1004.8H145.81M137.292 1054.5V1046.01M137.292 1046.01V1037.53M137.292 1046.01H128.773M137.292 1046.01H145.81M137.292 930.859V922.373M137.292 922.373V913.888M137.292 922.373H128.773M137.292 922.373H145.81M52.1094 894.222V885.737M52.1094 885.737V877.252M52.1094 885.737H43.5912M52.1094 885.737H60.6276M52.1094 770.581V762.096M52.1094 762.096V753.611M52.1094 762.096H43.5912M52.1094 762.096H60.6276M52.1094 811.795V803.31M52.1094 803.31V794.824M52.1094 803.31H43.5912M52.1094 803.31H60.6276M179.883 811.795V803.31M179.883 803.31V794.824M179.883 803.31H171.365M179.883 803.31H188.401M179.883 853.009V844.523M179.883 844.523V836.038M179.883 844.523H171.365M179.883 844.523H188.401M179.883 894.222V885.737M179.883 885.737V877.252M179.883 885.737H171.365M179.883 885.737H188.401M179.883 770.581V762.096M179.883 762.096V753.611M179.883 762.096H171.365M179.883 762.096H188.401M52.1094 853.009V844.523M52.1094 844.523V836.038M52.1094 844.523H43.5912M52.1094 844.523H60.6276M94.7006 853.009V844.523M94.7006 844.523V836.038M94.7006 844.523H86.1823M94.7006 844.523H103.219M94.7006 894.222V885.737M94.7006 885.737V877.252M94.7006 885.737H86.1823M94.7006 885.737H103.219M94.7006 770.581V762.096M94.7006 762.096V753.611M94.7006 762.096H86.1823M94.7006 762.096H103.219M94.7006 811.795V803.31M94.7006 803.31V794.824M94.7006 803.31H86.1823M94.7006 803.31H103.219M222.474 811.795V803.31M222.474 803.31V794.824M222.474 803.31H213.956M222.474 803.31H230.992M222.474 853.009V844.523M222.474 844.523V836.038M222.474 844.523H213.956M222.474 844.523H230.992M222.474 894.222V885.737M222.474 885.737V877.252M222.474 885.737H213.956M222.474 885.737H230.992M222.474 770.581V762.096M222.474 762.096V753.611M222.474 762.096H213.956M222.474 762.096H230.992M9.51819 853.009V844.523M9.51819 844.523V836.038M9.51819 844.523H1M9.51819 844.523H18.0365M9.51819 894.222V885.737M9.51819 885.737V877.252M9.51819 885.737H1M9.51819 885.737H18.0365M9.51819 770.581V762.096M9.51819 762.096V753.611M9.51819 762.096H1M9.51819 762.096H18.0365M9.51819 811.795V803.31M9.51819 803.31V794.824M9.51819 803.31H1M9.51819 803.31H18.0365M137.292 811.795V803.31M137.292 803.31V794.824M137.292 803.31H128.773M137.292 803.31H145.81M137.292 853.009V844.523M137.292 844.523V836.038M137.292 844.523H128.773M137.292 844.523H145.81M137.292 894.222V885.737M137.292 885.737V877.252M137.292 885.737H128.773M137.292 885.737H145.81M137.292 770.581V762.096M137.292 762.096V753.611M137.292 762.096H128.773M137.292 762.096H145.81M52.1094 733.945V725.46M52.1094 725.46V716.974M52.1094 725.46H43.5912M52.1094 725.46H60.6276M52.1094 610.303V601.818M52.1094 601.818V593.333M52.1094 601.818H43.5912M52.1094 601.818H60.6276M52.1094 651.517V643.032M52.1094 643.032V634.547M52.1094 643.032H43.5912M52.1094 643.032H60.6276M179.883 651.517V643.032M179.883 643.032V634.547M179.883 643.032H171.365M179.883 643.032H188.401M179.883 692.731V684.246M179.883 684.246V675.761M179.883 684.246H171.365M179.883 684.246H188.401M179.883 733.945V725.46M179.883 725.46V716.974M179.883 725.46H171.365M179.883 725.46H188.401M179.883 610.303V601.818M179.883 601.818V593.333M179.883 601.818H171.365M179.883 601.818H188.401M52.1094 692.731V684.246M52.1094 684.246V675.761M52.1094 684.246H43.5912M52.1094 684.246H60.6276M94.7006 692.731V684.246M94.7006 684.246V675.761M94.7006 684.246H86.1823M94.7006 684.246H103.219M94.7006 733.945V725.46M94.7006 725.46V716.974M94.7006 725.46H86.1823M94.7006 725.46H103.219M94.7006 610.303V601.818M94.7006 601.818V593.333M94.7006 601.818H86.1823M94.7006 601.818H103.219M94.7006 651.517V643.032M94.7006 643.032V634.547M94.7006 643.032H86.1823M94.7006 643.032H103.219M222.474 651.517V643.032M222.474 643.032V634.547M222.474 643.032H213.956M222.474 643.032H230.992M222.474 692.731V684.246M222.474 684.246V675.761M222.474 684.246H213.956M222.474 684.246H230.992M222.474 733.945V725.46M222.474 725.46V716.974M222.474 725.46H213.956M222.474 725.46H230.992M222.474 610.303V601.818M222.474 601.818V593.333M222.474 601.818H213.956M222.474 601.818H230.992M9.51819 692.731V684.246M9.51819 684.246V675.761M9.51819 684.246H1M9.51819 684.246H18.0365M9.51819 733.945V725.46M9.51819 725.46V716.974M9.51819 725.46H1M9.51819 725.46H18.0365M9.51819 610.303V601.818M9.51819 601.818V593.333M9.51819 601.818H1M9.51819 601.818H18.0365M9.51819 651.517V643.032M9.51819 643.032V634.547M9.51819 643.032H1M9.51819 643.032H18.0365M137.292 651.517V643.032M137.292 643.032V634.547M137.292 643.032H128.773M137.292 643.032H145.81M137.292 692.731V684.246M137.292 684.246V675.761M137.292 684.246H128.773M137.292 684.246H145.81M137.292 733.945V725.46M137.292 725.46V716.974M137.292 725.46H128.773M137.292 725.46H145.81M137.292 610.303V601.818M137.292 601.818V593.333M137.292 601.818H128.773M137.292 601.818H145.81M52.1094 573.667V565.182M52.1094 565.182V556.697M52.1094 565.182H43.5912M52.1094 565.182H60.6276M52.1094 450.026V441.54M52.1094 441.54V433.055M52.1094 441.54H43.5912M52.1094 441.54H60.6276M52.1094 491.24V482.754M52.1094 482.754V474.269M52.1094 482.754H43.5912M52.1094 482.754H60.6276M179.883 491.24V482.754M179.883 482.754V474.269M179.883 482.754H171.365M179.883 482.754H188.401M179.883 532.453V523.968M179.883 523.968V515.483M179.883 523.968H171.365M179.883 523.968H188.401M179.883 573.667V565.182M179.883 565.182V556.697M179.883 565.182H171.365M179.883 565.182H188.401M179.883 450.026V441.54M179.883 441.54V433.055M179.883 441.54H171.365M179.883 441.54H188.401M52.1094 532.453V523.968M52.1094 523.968V515.483M52.1094 523.968H43.5912M52.1094 523.968H60.6276M94.7006 532.453V523.968M94.7006 523.968V515.483M94.7006 523.968H86.1823M94.7006 523.968H103.219M94.7006 573.667V565.182M94.7006 565.182V556.697M94.7006 565.182H86.1823M94.7006 565.182H103.219M94.7006 450.026V441.54M94.7006 441.54V433.055M94.7006 441.54H86.1823M94.7006 441.54H103.219M94.7006 491.24V482.754M94.7006 482.754V474.269M94.7006 482.754H86.1823M94.7006 482.754H103.219M222.474 491.24V482.754M222.474 482.754V474.269M222.474 482.754H213.956M222.474 482.754H230.992M222.474 532.453V523.968M222.474 523.968V515.483M222.474 523.968H213.956M222.474 523.968H230.992M222.474 573.667V565.182M222.474 565.182V556.697M222.474 565.182H213.956M222.474 565.182H230.992M222.474 450.026V441.54M222.474 441.54V433.055M222.474 441.54H213.956M222.474 441.54H230.992M9.51819 532.453V523.968M9.51819 523.968V515.483M9.51819 523.968H1M9.51819 523.968H18.0365M9.51819 573.667V565.182M9.51819 565.182V556.697M9.51819 565.182H1M9.51819 565.182H18.0365M9.51819 450.026V441.54M9.51819 441.54V433.055M9.51819 441.54H1M9.51819 441.54H18.0365M9.51819 491.24V482.754M9.51819 482.754V474.269M9.51819 482.754H1M9.51819 482.754H18.0365M137.292 491.24V482.754M137.292 482.754V474.269M137.292 482.754H128.773M137.292 482.754H145.81M137.292 532.453V523.968M137.292 523.968V515.483M137.292 523.968H128.773M137.292 523.968H145.81M137.292 573.667V565.182M137.292 565.182V556.697M137.292 565.182H128.773M137.292 565.182H145.81M137.292 450.026V441.54M137.292 441.54V433.055M137.292 441.54H128.773M137.292 441.54H145.81M52.1094 413.389V404.904M52.1094 404.904V396.419M52.1094 404.904H43.5912M52.1094 404.904H60.6276M52.1094 289.748V281.263M52.1094 281.263V272.778M52.1094 281.263H43.5912M52.1094 281.263H60.6276M52.1094 330.962V322.477M52.1094 322.477V313.991M52.1094 322.477H43.5912M52.1094 322.477H60.6276M179.883 330.962V322.477M179.883 322.477V313.991M179.883 322.477H171.365M179.883 322.477H188.401M179.883 372.176V363.69M179.883 363.69V355.205M179.883 363.69H171.365M179.883 363.69H188.401M179.883 413.389V404.904M179.883 404.904V396.419M179.883 404.904H171.365M179.883 404.904H188.401M179.883 289.748V281.263M179.883 281.263V272.778M179.883 281.263H171.365M179.883 281.263H188.401M52.1094 372.176V363.69M52.1094 363.69V355.205M52.1094 363.69H43.5912M52.1094 363.69H60.6276M94.7006 372.176V363.69M94.7006 363.69V355.205M94.7006 363.69H86.1823M94.7006 363.69H103.219M94.7006 413.389V404.904M94.7006 404.904V396.419M94.7006 404.904H86.1823M94.7006 404.904H103.219M94.7006 289.748V281.263M94.7006 281.263V272.778M94.7006 281.263H86.1823M94.7006 281.263H103.219M94.7006 330.962V322.477M94.7006 322.477V313.991M94.7006 322.477H86.1823M94.7006 322.477H103.219M222.474 330.962V322.477M222.474 322.477V313.991M222.474 322.477H213.956M222.474 322.477H230.992M222.474 372.176V363.69M222.474 363.69V355.205M222.474 363.69H213.956M222.474 363.69H230.992M222.474 413.389V404.904M222.474 404.904V396.419M222.474 404.904H213.956M222.474 404.904H230.992M222.474 289.748V281.263M222.474 281.263V272.778M222.474 281.263H213.956M222.474 281.263H230.992M9.51819 372.176V363.69M9.51819 363.69V355.205M9.51819 363.69H1M9.51819 363.69H18.0365M9.51819 413.389V404.904M9.51819 404.904V396.419M9.51819 404.904H1M9.51819 404.904H18.0365M9.51819 289.748V281.263M9.51819 281.263V272.778M9.51819 281.263H1M9.51819 281.263H18.0365M9.51819 330.962V322.477M9.51819 322.477V313.991M9.51819 322.477H1M9.51819 322.477H18.0365M137.292 330.962V322.477M137.292 322.477V313.991M137.292 322.477H128.773M137.292 322.477H145.81M137.292 372.176V363.69M137.292 363.69V355.205M137.292 363.69H128.773M137.292 363.69H145.81M137.292 413.389V404.904M137.292 404.904V396.419M137.292 404.904H128.773M137.292 404.904H145.81M137.292 289.748V281.263M137.292 281.263V272.778M137.292 281.263H128.773M137.292 281.263H145.81M52.1094 253.112V244.627M52.1094 244.627V236.141M52.1094 244.627H43.5912M52.1094 244.627H60.6276M52.1094 129.47V120.985M52.1094 120.985V112.5M52.1094 120.985H43.5912M52.1094 120.985H60.6276M52.1094 170.684V162.199M52.1094 162.199V153.714M52.1094 162.199H43.5912M52.1094 162.199H60.6276M179.883 170.684V162.199M179.883 162.199V153.714M179.883 162.199H171.365M179.883 162.199H188.401M179.883 211.898V203.413M179.883 203.413V194.928M179.883 203.413H171.365M179.883 203.413H188.401M179.883 253.112V244.627M179.883 244.627V236.141M179.883 244.627H171.365M179.883 244.627H188.401M179.883 129.47V120.985M179.883 120.985V112.5M179.883 120.985H171.365M179.883 120.985H188.401M52.1094 211.898V203.413M52.1094 203.413V194.928M52.1094 203.413H43.5912M52.1094 203.413H60.6276M94.7006 211.898V203.413M94.7006 203.413V194.928M94.7006 203.413H86.1823M94.7006 203.413H103.219M94.7006 253.112V244.627M94.7006 244.627V236.141M94.7006 244.627H86.1823M94.7006 244.627H103.219M94.7006 129.47V120.985M94.7006 120.985V112.5M94.7006 120.985H86.1823M94.7006 120.985H103.219M94.7006 170.684V162.199M94.7006 162.199V153.714M94.7006 162.199H86.1823M94.7006 162.199H103.219M222.474 170.684V162.199M222.474 162.199V153.714M222.474 162.199H213.956M222.474 162.199H230.992M222.474 211.898V203.413M222.474 203.413V194.928M222.474 203.413H213.956M222.474 203.413H230.992M222.474 253.112V244.627M222.474 244.627V236.141M222.474 244.627H213.956M222.474 244.627H230.992M222.474 129.47V120.985M222.474 120.985V112.5M222.474 120.985H213.956M222.474 120.985H230.992M9.51819 211.898V203.413M9.51819 203.413V194.928M9.51819 203.413H1M9.51819 203.413H18.0365M9.51819 253.112V244.627M9.51819 244.627V236.141M9.51819 244.627H1M9.51819 244.627H18.0365M9.51819 129.47V120.985M9.51819 120.985V112.5M9.51819 120.985H1M9.51819 120.985H18.0365M9.51819 170.684V162.199M9.51819 162.199V153.714M9.51819 162.199H1M9.51819 162.199H18.0365M137.292 170.684V162.199M137.292 162.199V153.714M137.292 162.199H128.773M137.292 162.199H145.81M137.292 211.898V203.413M137.292 203.413V194.928M137.292 203.413H128.773M137.292 203.413H145.81M137.292 253.112V244.627M137.292 244.627V236.141M137.292 244.627H128.773M137.292 244.627H145.81M137.292 129.47V120.985M137.292 120.985V112.5M137.292 120.985H128.773M137.292 120.985H145.81M1314.12 54.4703V45.9851M1314.12 45.9851V37.5M1314.12 45.9851H1305.6M1314.12 45.9851H1322.64M1314.12 95.6841V87.199M1314.12 87.199V78.7139M1314.12 87.199H1305.6M1314.12 87.199H1322.64M1441.89 95.6841V87.199M1441.89 87.199V78.7139M1441.89 87.199H1433.37M1441.89 87.199H1450.41M1441.89 54.4703V45.9851M1441.89 45.9851V37.5M1441.89 45.9851H1433.37M1441.89 45.9851H1450.41M1356.71 54.4703V45.9851M1356.71 45.9851V37.5M1356.71 45.9851H1348.19M1356.71 45.9851H1365.23M1356.71 95.6841V87.199M1356.71 87.199V78.7139M1356.71 87.199H1348.19M1356.71 87.199H1365.23M1484.48 95.6841V87.199M1484.48 87.199V78.7139M1484.48 87.199H1475.96M1484.48 87.199H1493M1484.48 54.4703V45.9851M1484.48 45.9851V37.5M1484.48 45.9851H1475.96M1484.48 45.9851H1493M1271.53 54.4703V45.9851M1271.53 45.9851V37.5M1271.53 45.9851H1263.01M1271.53 45.9851H1280.04M1271.53 95.6841V87.199M1271.53 87.199V78.7139M1271.53 87.199H1263.01M1271.53 87.199H1280.04M1399.3 95.6841V87.199M1399.3 87.199V78.7139M1399.3 87.199H1390.78M1399.3 87.199H1407.82M1399.3 54.4703V45.9851M1399.3 45.9851V37.5M1399.3 45.9851H1390.78M1399.3 45.9851H1407.82M1062.5 54.4703V45.9851M1062.5 45.9851V37.5M1062.5 45.9851H1053.98M1062.5 45.9851H1071.02M1062.5 95.6841V87.199M1062.5 87.199V78.7139M1062.5 87.199H1053.98M1062.5 87.199H1071.02M1190.28 95.6841V87.199M1190.28 87.199V78.7139M1190.28 87.199H1181.76M1190.28 87.199H1198.79M1190.28 54.4703V45.9851M1190.28 45.9851V37.5M1190.28 45.9851H1181.76M1190.28 45.9851H1198.79M1105.09 54.4703V45.9851M1105.09 45.9851V37.5M1105.09 45.9851H1096.57M1105.09 45.9851H1113.61M1105.09 95.6841V87.199M1105.09 87.199V78.7139M1105.09 87.199H1096.57M1105.09 87.199H1113.61M1232.87 95.6841V87.199M1232.87 87.199V78.7139M1232.87 87.199H1224.35M1232.87 87.199H1241.38M1232.87 54.4703V45.9851M1232.87 45.9851V37.5M1232.87 45.9851H1224.35M1232.87 45.9851H1241.38M1019.91 54.4703V45.9851M1019.91 45.9851V37.5M1019.91 45.9851H1011.39M1019.91 45.9851H1028.43M1019.91 95.6841V87.199M1019.91 87.199V78.7139M1019.91 87.199H1011.39M1019.91 87.199H1028.43M1147.68 95.6841V87.199M1147.68 87.199V78.7139M1147.68 87.199H1139.17M1147.68 87.199H1156.2M1147.68 54.4703V45.9851M1147.68 45.9851V37.5M1147.68 45.9851H1139.17M1147.68 45.9851H1156.2M810.887 54.4703V45.9851M810.887 45.9851V37.5M810.887 45.9851H802.368M810.887 45.9851H819.405M810.887 95.6841V87.199M810.887 87.199V78.7139M810.887 87.199H802.368M810.887 87.199H819.405M938.66 95.6841V87.199M938.66 87.199V78.7139M938.66 87.199H930.142M938.66 87.199H947.178M938.66 54.4703V45.9851M938.66 45.9851V37.5M938.66 45.9851H930.142M938.66 45.9851H947.178M853.478 54.4703V45.9851M853.478 45.9851V37.5M853.478 45.9851H844.96M853.478 45.9851H861.996M853.478 95.6841V87.199M853.478 87.199V78.7139M853.478 87.199H844.96M853.478 87.199H861.996M981.251 95.6841V87.199M981.251 87.199V78.7139M981.251 87.199H972.733M981.251 87.199H989.769M981.251 54.4703V45.9851M981.251 45.9851V37.5M981.251 45.9851H972.733M981.251 45.9851H989.769M768.296 54.4703V45.9851M768.296 45.9851V37.5M768.296 45.9851H759.777M768.296 45.9851H776.814M768.296 95.6841V87.199M768.296 87.199V78.7139M768.296 87.199H759.777M768.296 87.199H776.814M896.069 95.6841V87.199M896.069 87.199V78.7139M896.069 87.199H887.551M896.069 87.199H904.587M896.069 54.4703V45.9851M896.069 45.9851V37.5M896.069 45.9851H887.551M896.069 45.9851H904.587M555.34 54.4703V45.9851M555.34 45.9851V37.5M555.34 45.9851H546.822M555.34 45.9851H563.858M555.34 95.6841V87.199M555.34 87.199V78.7139M555.34 87.199H546.822M555.34 87.199H563.858M683.113 95.6841V87.199M683.113 87.199V78.7139M683.113 87.199H674.595M683.113 87.199H691.632M683.113 54.4703V45.9851M683.113 45.9851V37.5M683.113 45.9851H674.595M683.113 45.9851H691.632M597.931 54.4703V45.9851M597.931 45.9851V37.5M597.931 45.9851H589.413M597.931 45.9851H606.449M597.931 95.6841V87.199M597.931 87.199V78.7139M597.931 87.199H589.413M597.931 87.199H606.449M725.704 95.6841V87.199M725.704 87.199V78.7139M725.704 87.199H717.186M725.704 87.199H734.223M725.704 54.4703V45.9851M725.704 45.9851V37.5M725.704 45.9851H717.186M725.704 45.9851H734.223M512.749 54.4703V45.9851M512.749 45.9851V37.5M512.749 45.9851H504.231M512.749 45.9851H521.267M512.749 95.6841V87.199M512.749 87.199V78.7139M512.749 87.199H504.231M512.749 87.199H521.267M640.522 95.6841V87.199M640.522 87.199V78.7139M640.522 87.199H632.004M640.522 87.199H649.04M640.522 54.4703V45.9851M640.522 45.9851V37.5M640.522 45.9851H632.004M640.522 45.9851H649.04M303.725 54.4703V45.9851M303.725 45.9851V37.5M303.725 45.9851H295.206M303.725 45.9851H312.243M303.725 95.6841V87.199M303.725 87.199V78.7139M303.725 87.199H295.206M303.725 87.199H312.243M431.498 95.6841V87.199M431.498 87.199V78.7139M431.498 87.199H422.98M431.498 87.199H440.016M431.498 54.4703V45.9851M431.498 45.9851V37.5M431.498 45.9851H422.98M431.498 45.9851H440.016M346.316 54.4703V45.9851M346.316 45.9851V37.5M346.316 45.9851H337.798M346.316 45.9851H354.834M346.316 95.6841V87.199M346.316 87.199V78.7139M346.316 87.199H337.798M346.316 87.199H354.834M474.089 95.6841V87.199M474.089 87.199V78.7139M474.089 87.199H465.571M474.089 87.199H482.607M474.089 54.4703V45.9851M474.089 45.9851V37.5M474.089 45.9851H465.571M474.089 45.9851H482.607M261.134 54.4703V45.9851M261.134 45.9851V37.5M261.134 45.9851H252.615M261.134 45.9851H269.652M261.134 95.6841V87.199M261.134 87.199V78.7139M261.134 87.199H252.615M261.134 87.199H269.652M388.907 95.6841V87.199M388.907 87.199V78.7139M388.907 87.199H380.389M388.907 87.199H397.425M388.907 54.4703V45.9851M388.907 45.9851V37.5M388.907 45.9851H380.389M388.907 45.9851H397.425M52.1094 54.4703V45.9851M52.1094 45.9851V37.5M52.1094 45.9851H43.5912M52.1094 45.9851H60.6276M52.1094 95.6841V87.199M52.1094 87.199V78.7139M52.1094 87.199H43.5912M52.1094 87.199H60.6276M179.883 95.6841V87.199M179.883 87.199V78.7139M179.883 87.199H171.365M179.883 87.199H188.401M179.883 54.4703V45.9851M179.883 45.9851V37.5M179.883 45.9851H171.365M179.883 45.9851H188.401M94.7006 54.4703V45.9851M94.7006 45.9851V37.5M94.7006 45.9851H86.1823M94.7006 45.9851H103.219M94.7006 95.6841V87.199M94.7006 87.199V78.7139M94.7006 87.199H86.1823M94.7006 87.199H103.219M222.474 95.6841V87.199M222.474 87.199V78.7139M222.474 87.199H213.956M222.474 87.199H230.992M222.474 54.4703V45.9851M222.474 45.9851V37.5M222.474 45.9851H213.956M222.474 45.9851H230.992M9.51819 54.4703V45.9851M9.51819 45.9851V37.5M9.51819 45.9851H1M9.51819 45.9851H18.0365M9.51819 95.6841V87.199M9.51819 87.199V78.7139M9.51819 87.199H1M9.51819 87.199H18.0365M137.292 95.6841V87.199M137.292 87.199V78.7139M137.292 87.199H128.773M137.292 87.199H145.81M137.292 54.4703V45.9851M137.292 45.9851V37.5M137.292 45.9851H128.773M137.292 45.9851H145.81M1314.12 17.9703V9.48511M1314.12 9.48511V1M1314.12 9.48511H1305.6M1314.12 9.48511H1322.64M1441.89 17.9703V9.48511M1441.89 9.48511V1M1441.89 9.48511H1433.37M1441.89 9.48511H1450.41M1356.71 17.9703V9.48511M1356.71 9.48511V1M1356.71 9.48511H1348.19M1356.71 9.48511H1365.23M1484.48 17.9703V9.48511M1484.48 9.48511V1M1484.48 9.48511H1475.96M1484.48 9.48511H1493M1271.53 17.9703V9.48511M1271.53 9.48511V1M1271.53 9.48511H1263.01M1271.53 9.48511H1280.04M1399.3 17.9703V9.48511M1399.3 9.48511V1M1399.3 9.48511H1390.78M1399.3 9.48511H1407.82M1062.5 17.9703V9.48511M1062.5 9.48511V1M1062.5 9.48511H1053.98M1062.5 9.48511H1071.02M1190.28 17.9703V9.48511M1190.28 9.48511V1M1190.28 9.48511H1181.76M1190.28 9.48511H1198.79M1105.09 17.9703V9.48511M1105.09 9.48511V1M1105.09 9.48511H1096.57M1105.09 9.48511H1113.61M1232.87 17.9703V9.48511M1232.87 9.48511V1M1232.87 9.48511H1224.35M1232.87 9.48511H1241.38M1019.91 17.9703V9.48511M1019.91 9.48511V1M1019.91 9.48511H1011.39M1019.91 9.48511H1028.43M1147.68 17.9703V9.48511M1147.68 9.48511V1M1147.68 9.48511H1139.17M1147.68 9.48511H1156.2M810.887 17.9703V9.48511M810.887 9.48511V1M810.887 9.48511H802.368M810.887 9.48511H819.405M938.66 17.9703V9.48511M938.66 9.48511V1M938.66 9.48511H930.142M938.66 9.48511H947.178M853.478 17.9703V9.48511M853.478 9.48511V1M853.478 9.48511H844.96M853.478 9.48511H861.996M981.251 17.9703V9.48511M981.251 9.48511V1M981.251 9.48511H972.733M981.251 9.48511H989.769M768.296 17.9703V9.48511M768.296 9.48511V1M768.296 9.48511H759.777M768.296 9.48511H776.814M896.069 17.9703V9.48511M896.069 9.48511V1M896.069 9.48511H887.551M896.069 9.48511H904.587M555.34 17.9703V9.48511M555.34 9.48511V1M555.34 9.48511H546.822M555.34 9.48511H563.858M683.113 17.9703V9.48511M683.113 9.48511V1M683.113 9.48511H674.595M683.113 9.48511H691.632M597.931 17.9703V9.48511M597.931 9.48511V1M597.931 9.48511H589.413M597.931 9.48511H606.449M725.704 17.9703V9.48511M725.704 9.48511V1M725.704 9.48511H717.186M725.704 9.48511H734.223M512.749 17.9703V9.48511M512.749 9.48511V1M512.749 9.48511H504.231M512.749 9.48511H521.267M640.522 17.9703V9.48511M640.522 9.48511V1M640.522 9.48511H632.004M640.522 9.48511H649.04M303.725 17.9703V9.48511M303.725 9.48511V1M303.725 9.48511H295.206M303.725 9.48511H312.243M431.498 17.9703V9.48511M431.498 9.48511V1M431.498 9.48511H422.98M431.498 9.48511H440.016M346.316 17.9703V9.48511M346.316 9.48511V1M346.316 9.48511H337.798M346.316 9.48511H354.834M474.089 17.9703V9.48511M474.089 9.48511V1M474.089 9.48511H465.571M474.089 9.48511H482.607M261.134 17.9703V9.48511M261.134 9.48511V1M261.134 9.48511H252.615M261.134 9.48511H269.652M388.907 17.9703V9.48511M388.907 9.48511V1M388.907 9.48511H380.389M388.907 9.48511H397.425M52.1094 17.9703V9.48511M52.1094 9.48511V1M52.1094 9.48511H43.5912M52.1094 9.48511H60.6276M179.883 17.9703V9.48511M179.883 9.48511V1M179.883 9.48511H171.365M179.883 9.48511H188.401M94.7006 17.9703V9.48511M94.7006 9.48511V1M94.7006 9.48511H86.1823M94.7006 9.48511H103.219M222.474 17.9703V9.48511M222.474 9.48511V1M222.474 9.48511H213.956M222.474 9.48511H230.992M9.51819 17.9703V9.48511M9.51819 9.48511V1M9.51819 9.48511H1M9.51819 9.48511H18.0365M137.292 17.9703V9.48511M137.292 9.48511V1M137.292 9.48511H128.773M137.292 9.48511H145.81" stroke="url(#paint0_linear_14_743)" stroke-width="2" stroke-linecap="round" stroke-linejoin="round"/>
<defs>
<linearGradient id="paint0_linear_14_743" x1="1493" y1="1054.5" x2="727.5" y2="411.5" gradientUnits="userSpaceOnUse">
<stop stop-color="#25DD1F"/>
<stop offset="1" stop-color="#25DD1F" stop-opacity="0"/>
<stop offset="1" stop-color="#3A00FF" stop-opacity="0"/>
</linearGradient>
</defs>
<link xmlns="" id="lite-css-list" rel="stylesheet" type="text/css" href="moz-extension://dbb4c4c0-7dad-4beb-9250-bd77ea465eef/data/content_script/inject_b.css"/><style xmlns="" id="custom-css-list" type="text/css"/></svg>