<svg width="1494" height="944" viewBox="0 0 1494 944" fill="none" xmlns="http://www.w3.org/2000/svg">
<path d="M1314.12 1V9.48519M1314.12 9.48519V17.9704M1314.12 9.48519H1305.6M1314.12 9.48519H1322.64M1314.12 124.641V133.127M1314.12 133.127V141.612M1314.12 133.127H1305.6M1314.12 133.127H1322.64M1314.12 83.4275V91.9127M1314.12 91.9127V100.398M1314.12 91.9127H1305.6M1314.12 91.9127H1322.64M1441.89 83.4275V91.9127M1441.89 91.9127V100.398M1441.89 91.9127H1433.37M1441.89 91.9127H1450.41M1441.89 42.2138V50.699M1441.89 50.699V59.1842M1441.89 50.699H1433.37M1441.89 50.699H1450.41M1441.89 1V9.48519M1441.89 9.48519V17.9704M1441.89 9.48519H1433.37M1441.89 9.48519H1450.41M1441.89 124.641V133.127M1441.89 133.127V141.612M1441.89 133.127H1433.37M1441.89 133.127H1450.41M1314.12 42.2138V50.699M1314.12 50.699V59.1842M1314.12 50.699H1305.6M1314.12 50.699H1322.64M1356.71 42.2138V50.699M1356.71 50.699V59.1842M1356.71 50.699H1348.19M1356.71 50.699H1365.23M1356.71 1V9.48519M1356.71 9.48519V17.9704M1356.71 9.48519H1348.19M1356.71 9.48519H1365.23M1356.71 124.641V133.127M1356.71 133.127V141.612M1356.71 133.127H1348.19M1356.71 133.127H1365.23M1356.71 83.4275V91.9127M1356.71 91.9127V100.398M1356.71 91.9127H1348.19M1356.71 91.9127H1365.23M1484.48 83.4275V91.9127M1484.48 91.9127V100.398M1484.48 91.9127H1475.96M1484.48 91.9127H1493M1484.48 42.2138V50.699M1484.48 50.699V59.1842M1484.48 50.699H1475.96M1484.48 50.699H1493M1484.48 1V9.48519M1484.48 9.48519V17.9704M1484.48 9.48519H1475.96M1484.48 9.48519H1493M1484.48 124.641V133.127M1484.48 133.127V141.612M1484.48 133.127H1475.96M1484.48 133.127H1493M1271.53 42.2138V50.699M1271.53 50.699V59.1842M1271.53 50.699H1263.01M1271.53 50.699H1280.04M1271.53 1V9.48519M1271.53 9.48519V17.9704M1271.53 9.48519H1263.01M1271.53 9.48519H1280.04M1271.53 124.641V133.127M1271.53 133.127V141.612M1271.53 133.127H1263.01M1271.53 133.127H1280.04M1271.53 83.4275V91.9127M1271.53 91.9127V100.398M1271.53 91.9127H1263.01M1271.53 91.9127H1280.04M1399.3 83.4275V91.9127M1399.3 91.9127V100.398M1399.3 91.9127H1390.78M1399.3 91.9127H1407.82M1399.3 42.2138V50.699M1399.3 50.699V59.1842M1399.3 50.699H1390.78M1399.3 50.699H1407.82M1399.3 1V9.48519M1399.3 9.48519V17.9704M1399.3 9.48519H1390.78M1399.3 9.48519H1407.82M1399.3 124.641V133.127M1399.3 133.127V141.612M1399.3 133.127H1390.78M1399.3 133.127H1407.82M1314.12 161.278V169.763M1314.12 169.763V178.248M1314.12 169.763H1305.6M1314.12 169.763H1322.64M1314.12 284.919V293.404M1314.12 293.404V301.889M1314.12 293.404H1305.6M1314.12 293.404H1322.64M1314.12 243.705V252.19M1314.12 252.19V260.676M1314.12 252.19H1305.6M1314.12 252.19H1322.64M1441.89 243.705V252.19M1441.89 252.19V260.676M1441.89 252.19H1433.37M1441.89 252.19H1450.41M1441.89 202.491V210.977M1441.89 210.977V219.462M1441.89 210.977H1433.37M1441.89 210.977H1450.41M1441.89 161.278V169.763M1441.89 169.763V178.248M1441.89 169.763H1433.37M1441.89 169.763H1450.41M1441.89 284.919V293.404M1441.89 293.404V301.889M1441.89 293.404H1433.37M1441.89 293.404H1450.41M1314.12 202.491V210.977M1314.12 210.977V219.462M1314.12 210.977H1305.6M1314.12 210.977H1322.64M1356.71 202.491V210.977M1356.71 210.977V219.462M1356.71 210.977H1348.19M1356.71 210.977H1365.23M1356.71 161.278V169.763M1356.71 169.763V178.248M1356.71 169.763H1348.19M1356.71 169.763H1365.23M1356.71 284.919V293.404M1356.71 293.404V301.889M1356.71 293.404H1348.19M1356.71 293.404H1365.23M1356.71 243.705V252.19M1356.71 252.19V260.676M1356.71 252.19H1348.19M1356.71 252.19H1365.23M1484.48 243.705V252.19M1484.48 252.19V260.676M1484.48 252.19H1475.96M1484.48 252.19H1493M1484.48 202.491V210.977M1484.48 210.977V219.462M1484.48 210.977H1475.96M1484.48 210.977H1493M1484.48 161.278V169.763M1484.48 169.763V178.248M1484.48 169.763H1475.96M1484.48 169.763H1493M1484.48 284.919V293.404M1484.48 293.404V301.889M1484.48 293.404H1475.96M1484.48 293.404H1493M1271.53 202.491V210.977M1271.53 210.977V219.462M1271.53 210.977H1263.01M1271.53 210.977H1280.04M1271.53 161.278V169.763M1271.53 169.763V178.248M1271.53 169.763H1263.01M1271.53 169.763H1280.04M1271.53 284.919V293.404M1271.53 293.404V301.889M1271.53 293.404H1263.01M1271.53 293.404H1280.04M1271.53 243.705V252.19M1271.53 252.19V260.676M1271.53 252.19H1263.01M1271.53 252.19H1280.04M1399.3 243.705V252.19M1399.3 252.19V260.676M1399.3 252.19H1390.78M1399.3 252.19H1407.82M1399.3 202.491V210.977M1399.3 210.977V219.462M1399.3 210.977H1390.78M1399.3 210.977H1407.82M1399.3 161.278V169.763M1399.3 169.763V178.248M1399.3 169.763H1390.78M1399.3 169.763H1407.82M1399.3 284.919V293.404M1399.3 293.404V301.889M1399.3 293.404H1390.78M1399.3 293.404H1407.82M1314.12 321.555V330.041M1314.12 330.041V338.526M1314.12 330.041H1305.6M1314.12 330.041H1322.64M1314.12 445.197V453.682M1314.12 453.682V462.167M1314.12 453.682H1305.6M1314.12 453.682H1322.64M1314.12 403.983V412.468M1314.12 412.468V420.953M1314.12 412.468H1305.6M1314.12 412.468H1322.64M1441.89 403.983V412.468M1441.89 412.468V420.953M1441.89 412.468H1433.37M1441.89 412.468H1450.41M1441.89 362.769V371.254M1441.89 371.254V379.739M1441.89 371.254H1433.37M1441.89 371.254H1450.41M1441.89 321.555V330.041M1441.89 330.041V338.526M1441.89 330.041H1433.37M1441.89 330.041H1450.41M1441.89 445.197V453.682M1441.89 453.682V462.167M1441.89 453.682H1433.37M1441.89 453.682H1450.41M1314.12 362.769V371.254M1314.12 371.254V379.739M1314.12 371.254H1305.6M1314.12 371.254H1322.64M1356.71 362.769V371.254M1356.71 371.254V379.739M1356.71 371.254H1348.19M1356.71 371.254H1365.23M1356.71 321.555V330.041M1356.71 330.041V338.526M1356.71 330.041H1348.19M1356.71 330.041H1365.23M1356.71 445.197V453.682M1356.71 453.682V462.167M1356.71 453.682H1348.19M1356.71 453.682H1365.23M1356.71 403.983V412.468M1356.71 412.468V420.953M1356.71 412.468H1348.19M1356.71 412.468H1365.23M1484.48 403.983V412.468M1484.48 412.468V420.953M1484.48 412.468H1475.96M1484.48 412.468H1493M1484.48 362.769V371.254M1484.48 371.254V379.739M1484.48 371.254H1475.96M1484.48 371.254H1493M1484.48 321.555V330.041M1484.48 330.041V338.526M1484.48 330.041H1475.96M1484.48 330.041H1493M1484.48 445.197V453.682M1484.48 453.682V462.167M1484.48 453.682H1475.96M1484.48 453.682H1493M1271.53 362.769V371.254M1271.53 371.254V379.739M1271.53 371.254H1263.01M1271.53 371.254H1280.04M1271.53 321.555V330.041M1271.53 330.041V338.526M1271.53 330.041H1263.01M1271.53 330.041H1280.04M1271.53 445.197V453.682M1271.53 453.682V462.167M1271.53 453.682H1263.01M1271.53 453.682H1280.04M1271.53 403.983V412.468M1271.53 412.468V420.953M1271.53 412.468H1263.01M1271.53 412.468H1280.04M1399.3 403.983V412.468M1399.3 412.468V420.953M1399.3 412.468H1390.78M1399.3 412.468H1407.82M1399.3 362.769V371.254M1399.3 371.254V379.739M1399.3 371.254H1390.78M1399.3 371.254H1407.82M1399.3 321.555V330.041M1399.3 330.041V338.526M1399.3 330.041H1390.78M1399.3 330.041H1407.82M1399.3 445.197V453.682M1399.3 453.682V462.167M1399.3 453.682H1390.78M1399.3 453.682H1407.82M1314.12 481.833V490.318M1314.12 490.318V498.803M1314.12 490.318H1305.6M1314.12 490.318H1322.64M1314.12 605.474V613.96M1314.12 613.96V622.445M1314.12 613.96H1305.6M1314.12 613.96H1322.64M1314.12 564.261V572.746M1314.12 572.746V581.231M1314.12 572.746H1305.6M1314.12 572.746H1322.64M1441.89 564.261V572.746M1441.89 572.746V581.231M1441.89 572.746H1433.37M1441.89 572.746H1450.41M1441.89 523.047V531.532M1441.89 531.532V540.017M1441.89 531.532H1433.37M1441.89 531.532H1450.41M1441.89 481.833V490.318M1441.89 490.318V498.803M1441.89 490.318H1433.37M1441.89 490.318H1450.41M1441.89 605.474V613.96M1441.89 613.96V622.445M1441.89 613.96H1433.37M1441.89 613.96H1450.41M1314.12 523.047V531.532M1314.12 531.532V540.017M1314.12 531.532H1305.6M1314.12 531.532H1322.64M1356.71 523.047V531.532M1356.71 531.532V540.017M1356.71 531.532H1348.19M1356.71 531.532H1365.23M1356.71 481.833V490.318M1356.71 490.318V498.803M1356.71 490.318H1348.19M1356.71 490.318H1365.23M1356.71 605.474V613.96M1356.71 613.96V622.445M1356.71 613.96H1348.19M1356.71 613.96H1365.23M1356.71 564.261V572.746M1356.71 572.746V581.231M1356.71 572.746H1348.19M1356.71 572.746H1365.23M1484.48 564.261V572.746M1484.48 572.746V581.231M1484.48 572.746H1475.96M1484.48 572.746H1493M1484.48 523.047V531.532M1484.48 531.532V540.017M1484.48 531.532H1475.96M1484.48 531.532H1493M1484.48 481.833V490.318M1484.48 490.318V498.803M1484.48 490.318H1475.96M1484.48 490.318H1493M1484.48 605.474V613.96M1484.48 613.96V622.445M1484.48 613.96H1475.96M1484.48 613.96H1493M1271.53 523.047V531.532M1271.53 531.532V540.017M1271.53 531.532H1263.01M1271.53 531.532H1280.04M1271.53 481.833V490.318M1271.53 490.318V498.803M1271.53 490.318H1263.01M1271.53 490.318H1280.04M1271.53 605.474V613.96M1271.53 613.96V622.445M1271.53 613.96H1263.01M1271.53 613.96H1280.04M1271.53 564.261V572.746M1271.53 572.746V581.231M1271.53 572.746H1263.01M1271.53 572.746H1280.04M1399.3 564.261V572.746M1399.3 572.746V581.231M1399.3 572.746H1390.78M1399.3 572.746H1407.82M1399.3 523.047V531.532M1399.3 531.532V540.017M1399.3 531.532H1390.78M1399.3 531.532H1407.82M1399.3 481.833V490.318M1399.3 490.318V498.803M1399.3 490.318H1390.78M1399.3 490.318H1407.82M1399.3 605.474V613.96M1399.3 613.96V622.445M1399.3 613.96H1390.78M1399.3 613.96H1407.82M1314.12 642.111V650.596M1314.12 650.596V659.081M1314.12 650.596H1305.6M1314.12 650.596H1322.64M1314.12 765.752V774.237M1314.12 774.237V782.722M1314.12 774.237H1305.6M1314.12 774.237H1322.64M1314.12 724.538V733.023M1314.12 733.023V741.509M1314.12 733.023H1305.6M1314.12 733.023H1322.64M1441.89 724.538V733.023M1441.89 733.023V741.509M1441.89 733.023H1433.37M1441.89 733.023H1450.41M1441.89 683.324V691.81M1441.89 691.81V700.295M1441.89 691.81H1433.37M1441.89 691.81H1450.41M1441.89 642.111V650.596M1441.89 650.596V659.081M1441.89 650.596H1433.37M1441.89 650.596H1450.41M1441.89 765.752V774.237M1441.89 774.237V782.722M1441.89 774.237H1433.37M1441.89 774.237H1450.41M1314.12 683.324V691.81M1314.12 691.81V700.295M1314.12 691.81H1305.6M1314.12 691.81H1322.64M1356.71 683.324V691.81M1356.71 691.81V700.295M1356.71 691.81H1348.19M1356.71 691.81H1365.23M1356.71 642.111V650.596M1356.71 650.596V659.081M1356.71 650.596H1348.19M1356.71 650.596H1365.23M1356.71 765.752V774.237M1356.71 774.237V782.722M1356.71 774.237H1348.19M1356.71 774.237H1365.23M1356.71 724.538V733.023M1356.71 733.023V741.509M1356.71 733.023H1348.19M1356.71 733.023H1365.23M1484.48 724.538V733.023M1484.48 733.023V741.509M1484.48 733.023H1475.96M1484.48 733.023H1493M1484.48 683.324V691.81M1484.48 691.81V700.295M1484.48 691.81H1475.96M1484.48 691.81H1493M1484.48 642.111V650.596M1484.48 650.596V659.081M1484.48 650.596H1475.96M1484.48 650.596H1493M1484.48 765.752V774.237M1484.48 774.237V782.722M1484.48 774.237H1475.96M1484.48 774.237H1493M1271.53 683.324V691.81M1271.53 691.81V700.295M1271.53 691.81H1263.01M1271.53 691.81H1280.04M1271.53 642.111V650.596M1271.53 650.596V659.081M1271.53 650.596H1263.01M1271.53 650.596H1280.04M1271.53 765.752V774.237M1271.53 774.237V782.722M1271.53 774.237H1263.01M1271.53 774.237H1280.04M1271.53 724.538V733.023M1271.53 733.023V741.509M1271.53 733.023H1263.01M1271.53 733.023H1280.04M1399.3 724.538V733.023M1399.3 733.023V741.509M1399.3 733.023H1390.78M1399.3 733.023H1407.82M1399.3 683.324V691.81M1399.3 691.81V700.295M1399.3 691.81H1390.78M1399.3 691.81H1407.82M1399.3 642.111V650.596M1399.3 650.596V659.081M1399.3 650.596H1390.78M1399.3 650.596H1407.82M1399.3 765.752V774.237M1399.3 774.237V782.722M1399.3 774.237H1390.78M1399.3 774.237H1407.82M1314.12 802.388V810.873M1314.12 810.873V819.359M1314.12 810.873H1305.6M1314.12 810.873H1322.64M1314.12 926.03V934.515M1314.12 934.515V943M1314.12 934.515H1305.6M1314.12 934.515H1322.64M1314.12 884.816V893.301M1314.12 893.301V901.786M1314.12 893.301H1305.6M1314.12 893.301H1322.64M1441.89 884.816V893.301M1441.89 893.301V901.786M1441.89 893.301H1433.37M1441.89 893.301H1450.41M1441.89 843.602V852.087M1441.89 852.087V860.572M1441.89 852.087H1433.37M1441.89 852.087H1450.41M1441.89 802.388V810.873M1441.89 810.873V819.359M1441.89 810.873H1433.37M1441.89 810.873H1450.41M1441.89 926.03V934.515M1441.89 934.515V943M1441.89 934.515H1433.37M1441.89 934.515H1450.41M1314.12 843.602V852.087M1314.12 852.087V860.572M1314.12 852.087H1305.6M1314.12 852.087H1322.64M1356.71 843.602V852.087M1356.71 852.087V860.572M1356.71 852.087H1348.19M1356.71 852.087H1365.23M1356.71 802.388V810.873M1356.71 810.873V819.359M1356.71 810.873H1348.19M1356.71 810.873H1365.23M1356.71 926.03V934.515M1356.71 934.515V943M1356.71 934.515H1348.19M1356.71 934.515H1365.23M1356.71 884.816V893.301M1356.71 893.301V901.786M1356.71 893.301H1348.19M1356.71 893.301H1365.23M1484.48 884.816V893.301M1484.48 893.301V901.786M1484.48 893.301H1475.96M1484.48 893.301H1493M1484.48 843.602V852.087M1484.48 852.087V860.572M1484.48 852.087H1475.96M1484.48 852.087H1493M1484.48 802.388V810.873M1484.48 810.873V819.359M1484.48 810.873H1475.96M1484.48 810.873H1493M1484.48 926.03V934.515M1484.48 934.515V943M1484.48 934.515H1475.96M1484.48 934.515H1493M1271.53 843.602V852.087M1271.53 852.087V860.572M1271.53 852.087H1263.01M1271.53 852.087H1280.04M1271.53 802.388V810.873M1271.53 810.873V819.359M1271.53 810.873H1263.01M1271.53 810.873H1280.04M1271.53 926.03V934.515M1271.53 934.515V943M1271.53 934.515H1263.01M1271.53 934.515H1280.04M1271.53 884.816V893.301M1271.53 893.301V901.786M1271.53 893.301H1263.01M1271.53 893.301H1280.04M1399.3 884.816V893.301M1399.3 893.301V901.786M1399.3 893.301H1390.78M1399.3 893.301H1407.82M1399.3 843.602V852.087M1399.3 852.087V860.572M1399.3 852.087H1390.78M1399.3 852.087H1407.82M1399.3 802.388V810.873M1399.3 810.873V819.359M1399.3 810.873H1390.78M1399.3 810.873H1407.82M1399.3 926.03V934.515M1399.3 934.515V943M1399.3 934.515H1390.78M1399.3 934.515H1407.82M1062.5 1V9.48519M1062.5 9.48519V17.9704M1062.5 9.48519H1053.98M1062.5 9.48519H1071.02M1062.5 124.641V133.127M1062.5 133.127V141.612M1062.5 133.127H1053.98M1062.5 133.127H1071.02M1062.5 83.4275V91.9127M1062.5 91.9127V100.398M1062.5 91.9127H1053.98M1062.5 91.9127H1071.02M1190.28 83.4275V91.9127M1190.28 91.9127V100.398M1190.28 91.9127H1181.76M1190.28 91.9127H1198.79M1190.28 42.2138V50.699M1190.28 50.699V59.1842M1190.28 50.699H1181.76M1190.28 50.699H1198.79M1190.28 1V9.48519M1190.28 9.48519V17.9704M1190.28 9.48519H1181.76M1190.28 9.48519H1198.79M1190.28 124.641V133.127M1190.28 133.127V141.612M1190.28 133.127H1181.76M1190.28 133.127H1198.79M1062.5 42.2138V50.699M1062.5 50.699V59.1842M1062.5 50.699H1053.98M1062.5 50.699H1071.02M1105.09 42.2138V50.699M1105.09 50.699V59.1842M1105.09 50.699H1096.57M1105.09 50.699H1113.61M1105.09 1V9.48519M1105.09 9.48519V17.9704M1105.09 9.48519H1096.57M1105.09 9.48519H1113.61M1105.09 124.641V133.127M1105.09 133.127V141.612M1105.09 133.127H1096.57M1105.09 133.127H1113.61M1105.09 83.4275V91.9127M1105.09 91.9127V100.398M1105.09 91.9127H1096.57M1105.09 91.9127H1113.61M1232.87 83.4275V91.9127M1232.87 91.9127V100.398M1232.87 91.9127H1224.35M1232.87 91.9127H1241.38M1232.87 42.2138V50.699M1232.87 50.699V59.1842M1232.87 50.699H1224.35M1232.87 50.699H1241.38M1232.87 1V9.48519M1232.87 9.48519V17.9704M1232.87 9.48519H1224.35M1232.87 9.48519H1241.38M1232.87 124.641V133.127M1232.87 133.127V141.612M1232.87 133.127H1224.35M1232.87 133.127H1241.38M1019.91 42.2138V50.699M1019.91 50.699V59.1842M1019.91 50.699H1011.39M1019.91 50.699H1028.43M1019.91 1V9.48519M1019.91 9.48519V17.9704M1019.91 9.48519H1011.39M1019.91 9.48519H1028.43M1019.91 124.641V133.127M1019.91 133.127V141.612M1019.91 133.127H1011.39M1019.91 133.127H1028.43M1019.91 83.4275V91.9127M1019.91 91.9127V100.398M1019.91 91.9127H1011.39M1019.91 91.9127H1028.43M1147.68 83.4275V91.9127M1147.68 91.9127V100.398M1147.68 91.9127H1139.17M1147.68 91.9127H1156.2M1147.68 42.2138V50.699M1147.68 50.699V59.1842M1147.68 50.699H1139.17M1147.68 50.699H1156.2M1147.68 1V9.48519M1147.68 9.48519V17.9704M1147.68 9.48519H1139.17M1147.68 9.48519H1156.2M1147.68 124.641V133.127M1147.68 133.127V141.612M1147.68 133.127H1139.17M1147.68 133.127H1156.2M1062.5 161.278V169.763M1062.5 169.763V178.248M1062.5 169.763H1053.98M1062.5 169.763H1071.02M1062.5 284.919V293.404M1062.5 293.404V301.889M1062.5 293.404H1053.98M1062.5 293.404H1071.02M1062.5 243.705V252.19M1062.5 252.19V260.676M1062.5 252.19H1053.98M1062.5 252.19H1071.02M1190.28 243.705V252.19M1190.28 252.19V260.676M1190.28 252.19H1181.76M1190.28 252.19H1198.79M1190.28 202.491V210.977M1190.28 210.977V219.462M1190.28 210.977H1181.76M1190.28 210.977H1198.79M1190.28 161.278V169.763M1190.28 169.763V178.248M1190.28 169.763H1181.76M1190.28 169.763H1198.79M1190.28 284.919V293.404M1190.28 293.404V301.889M1190.28 293.404H1181.76M1190.28 293.404H1198.79M1062.5 202.491V210.977M1062.5 210.977V219.462M1062.5 210.977H1053.98M1062.5 210.977H1071.02M1105.09 202.491V210.977M1105.09 210.977V219.462M1105.09 210.977H1096.57M1105.09 210.977H1113.61M1105.09 161.278V169.763M1105.09 169.763V178.248M1105.09 169.763H1096.57M1105.09 169.763H1113.61M1105.09 284.919V293.404M1105.09 293.404V301.889M1105.09 293.404H1096.57M1105.09 293.404H1113.61M1105.09 243.705V252.19M1105.09 252.19V260.676M1105.09 252.19H1096.57M1105.09 252.19H1113.61M1232.87 243.705V252.19M1232.87 252.19V260.676M1232.87 252.19H1224.35M1232.87 252.19H1241.38M1232.87 202.491V210.977M1232.87 210.977V219.462M1232.87 210.977H1224.35M1232.87 210.977H1241.38M1232.87 161.278V169.763M1232.87 169.763V178.248M1232.87 169.763H1224.35M1232.87 169.763H1241.38M1232.87 284.919V293.404M1232.87 293.404V301.889M1232.87 293.404H1224.35M1232.87 293.404H1241.38M1019.91 202.491V210.977M1019.91 210.977V219.462M1019.91 210.977H1011.39M1019.91 210.977H1028.43M1019.91 161.278V169.763M1019.91 169.763V178.248M1019.91 169.763H1011.39M1019.91 169.763H1028.43M1019.91 284.919V293.404M1019.91 293.404V301.889M1019.91 293.404H1011.39M1019.91 293.404H1028.43M1019.91 243.705V252.19M1019.91 252.19V260.676M1019.91 252.19H1011.39M1019.91 252.19H1028.43M1147.68 243.705V252.19M1147.68 252.19V260.676M1147.68 252.19H1139.17M1147.68 252.19H1156.2M1147.68 202.491V210.977M1147.68 210.977V219.462M1147.68 210.977H1139.17M1147.68 210.977H1156.2M1147.68 161.278V169.763M1147.68 169.763V178.248M1147.68 169.763H1139.17M1147.68 169.763H1156.2M1147.68 284.919V293.404M1147.68 293.404V301.889M1147.68 293.404H1139.17M1147.68 293.404H1156.2M1062.5 321.555V330.041M1062.5 330.041V338.526M1062.5 330.041H1053.98M1062.5 330.041H1071.02M1062.5 445.197V453.682M1062.5 453.682V462.167M1062.5 453.682H1053.98M1062.5 453.682H1071.02M1062.5 403.983V412.468M1062.5 412.468V420.953M1062.5 412.468H1053.98M1062.5 412.468H1071.02M1190.28 403.983V412.468M1190.28 412.468V420.953M1190.28 412.468H1181.76M1190.28 412.468H1198.79M1190.28 362.769V371.254M1190.28 371.254V379.739M1190.28 371.254H1181.76M1190.28 371.254H1198.79M1190.28 321.555V330.041M1190.28 330.041V338.526M1190.28 330.041H1181.76M1190.28 330.041H1198.79M1190.28 445.197V453.682M1190.28 453.682V462.167M1190.28 453.682H1181.76M1190.28 453.682H1198.79M1062.5 362.769V371.254M1062.5 371.254V379.739M1062.5 371.254H1053.98M1062.5 371.254H1071.02M1105.09 362.769V371.254M1105.09 371.254V379.739M1105.09 371.254H1096.57M1105.09 371.254H1113.61M1105.09 321.555V330.041M1105.09 330.041V338.526M1105.09 330.041H1096.57M1105.09 330.041H1113.61M1105.09 445.197V453.682M1105.09 453.682V462.167M1105.09 453.682H1096.57M1105.09 453.682H1113.61M1105.09 403.983V412.468M1105.09 412.468V420.953M1105.09 412.468H1096.57M1105.09 412.468H1113.61M1232.87 403.983V412.468M1232.87 412.468V420.953M1232.87 412.468H1224.35M1232.87 412.468H1241.38M1232.87 362.769V371.254M1232.87 371.254V379.739M1232.87 371.254H1224.35M1232.87 371.254H1241.38M1232.87 321.555V330.041M1232.87 330.041V338.526M1232.87 330.041H1224.35M1232.87 330.041H1241.38M1232.87 445.197V453.682M1232.87 453.682V462.167M1232.87 453.682H1224.35M1232.87 453.682H1241.38M1019.91 362.769V371.254M1019.91 371.254V379.739M1019.91 371.254H1011.39M1019.91 371.254H1028.43M1019.91 321.555V330.041M1019.91 330.041V338.526M1019.91 330.041H1011.39M1019.91 330.041H1028.43M1019.91 445.197V453.682M1019.91 453.682V462.167M1019.91 453.682H1011.39M1019.91 453.682H1028.43M1019.91 403.983V412.468M1019.91 412.468V420.953M1019.91 412.468H1011.39M1019.91 412.468H1028.43M1147.68 403.983V412.468M1147.68 412.468V420.953M1147.68 412.468H1139.17M1147.68 412.468H1156.2M1147.68 362.769V371.254M1147.68 371.254V379.739M1147.68 371.254H1139.17M1147.68 371.254H1156.2M1147.68 321.555V330.041M1147.68 330.041V338.526M1147.68 330.041H1139.17M1147.68 330.041H1156.2M1147.68 445.197V453.682M1147.68 453.682V462.167M1147.68 453.682H1139.17M1147.68 453.682H1156.2M1062.5 481.833V490.318M1062.5 490.318V498.803M1062.5 490.318H1053.98M1062.5 490.318H1071.02M1062.5 605.474V613.96M1062.5 613.96V622.445M1062.5 613.96H1053.98M1062.5 613.96H1071.02M1062.5 564.261V572.746M1062.5 572.746V581.231M1062.5 572.746H1053.98M1062.5 572.746H1071.02M1190.28 564.261V572.746M1190.28 572.746V581.231M1190.28 572.746H1181.76M1190.28 572.746H1198.79M1190.28 523.047V531.532M1190.28 531.532V540.017M1190.28 531.532H1181.76M1190.28 531.532H1198.79M1190.28 481.833V490.318M1190.28 490.318V498.803M1190.28 490.318H1181.76M1190.28 490.318H1198.79M1190.28 605.474V613.96M1190.28 613.96V622.445M1190.28 613.96H1181.76M1190.28 613.96H1198.79M1062.5 523.047V531.532M1062.5 531.532V540.017M1062.5 531.532H1053.98M1062.5 531.532H1071.02M1105.09 523.047V531.532M1105.09 531.532V540.017M1105.09 531.532H1096.57M1105.09 531.532H1113.61M1105.09 481.833V490.318M1105.09 490.318V498.803M1105.09 490.318H1096.57M1105.09 490.318H1113.61M1105.09 605.474V613.96M1105.09 613.96V622.445M1105.09 613.96H1096.57M1105.09 613.96H1113.61M1105.09 564.261V572.746M1105.09 572.746V581.231M1105.09 572.746H1096.57M1105.09 572.746H1113.61M1232.87 564.261V572.746M1232.87 572.746V581.231M1232.87 572.746H1224.35M1232.87 572.746H1241.38M1232.87 523.047V531.532M1232.87 531.532V540.017M1232.87 531.532H1224.35M1232.87 531.532H1241.38M1232.87 481.833V490.318M1232.87 490.318V498.803M1232.87 490.318H1224.35M1232.87 490.318H1241.38M1232.87 605.474V613.96M1232.87 613.96V622.445M1232.87 613.96H1224.35M1232.87 613.96H1241.38M1019.91 523.047V531.532M1019.91 531.532V540.017M1019.91 531.532H1011.39M1019.91 531.532H1028.43M1019.91 481.833V490.318M1019.91 490.318V498.803M1019.91 490.318H1011.39M1019.91 490.318H1028.43M1019.91 605.474V613.96M1019.91 613.96V622.445M1019.91 613.96H1011.39M1019.91 613.96H1028.43M1019.91 564.261V572.746M1019.91 572.746V581.231M1019.91 572.746H1011.39M1019.91 572.746H1028.43M1147.68 564.261V572.746M1147.68 572.746V581.231M1147.68 572.746H1139.17M1147.68 572.746H1156.2M1147.68 523.047V531.532M1147.68 531.532V540.017M1147.68 531.532H1139.17M1147.68 531.532H1156.2M1147.68 481.833V490.318M1147.68 490.318V498.803M1147.68 490.318H1139.17M1147.68 490.318H1156.2M1147.68 605.474V613.96M1147.68 613.96V622.445M1147.68 613.96H1139.17M1147.68 613.96H1156.2M1062.5 642.111V650.596M1062.5 650.596V659.081M1062.5 650.596H1053.98M1062.5 650.596H1071.02M1062.5 765.752V774.237M1062.5 774.237V782.722M1062.5 774.237H1053.98M1062.5 774.237H1071.02M1062.5 724.538V733.023M1062.5 733.023V741.509M1062.5 733.023H1053.98M1062.5 733.023H1071.02M1190.28 724.538V733.023M1190.28 733.023V741.509M1190.28 733.023H1181.76M1190.28 733.023H1198.79M1190.28 683.324V691.81M1190.28 691.81V700.295M1190.28 691.81H1181.76M1190.28 691.81H1198.79M1190.28 642.111V650.596M1190.28 650.596V659.081M1190.28 650.596H1181.76M1190.28 650.596H1198.79M1190.28 765.752V774.237M1190.28 774.237V782.722M1190.28 774.237H1181.76M1190.28 774.237H1198.79M1062.5 683.324V691.81M1062.5 691.81V700.295M1062.5 691.81H1053.98M1062.5 691.81H1071.02M1105.09 683.324V691.81M1105.09 691.81V700.295M1105.09 691.81H1096.57M1105.09 691.81H1113.61M1105.09 642.111V650.596M1105.09 650.596V659.081M1105.09 650.596H1096.57M1105.09 650.596H1113.61M1105.09 765.752V774.237M1105.09 774.237V782.722M1105.09 774.237H1096.57M1105.09 774.237H1113.61M1105.09 724.538V733.023M1105.09 733.023V741.509M1105.09 733.023H1096.57M1105.09 733.023H1113.61M1232.87 724.538V733.023M1232.87 733.023V741.509M1232.87 733.023H1224.35M1232.87 733.023H1241.38M1232.87 683.324V691.81M1232.87 691.81V700.295M1232.87 691.81H1224.35M1232.87 691.81H1241.38M1232.87 642.111V650.596M1232.87 650.596V659.081M1232.87 650.596H1224.35M1232.87 650.596H1241.38M1232.87 765.752V774.237M1232.87 774.237V782.722M1232.87 774.237H1224.35M1232.87 774.237H1241.38M1019.91 683.324V691.81M1019.91 691.81V700.295M1019.91 691.81H1011.39M1019.91 691.81H1028.43M1019.91 642.111V650.596M1019.91 650.596V659.081M1019.91 650.596H1011.39M1019.91 650.596H1028.43M1019.91 765.752V774.237M1019.91 774.237V782.722M1019.91 774.237H1011.39M1019.91 774.237H1028.43M1019.91 724.538V733.023M1019.91 733.023V741.509M1019.91 733.023H1011.39M1019.91 733.023H1028.43M1147.68 724.538V733.023M1147.68 733.023V741.509M1147.68 733.023H1139.17M1147.68 733.023H1156.2M1147.68 683.324V691.81M1147.68 691.81V700.295M1147.68 691.81H1139.17M1147.68 691.81H1156.2M1147.68 642.111V650.596M1147.68 650.596V659.081M1147.68 650.596H1139.17M1147.68 650.596H1156.2M1147.68 765.752V774.237M1147.68 774.237V782.722M1147.68 774.237H1139.17M1147.68 774.237H1156.2M1062.5 802.388V810.873M1062.5 810.873V819.359M1062.5 810.873H1053.98M1062.5 810.873H1071.02M1062.5 926.03V934.515M1062.5 934.515V943M1062.5 934.515H1053.98M1062.5 934.515H1071.02M1062.5 884.816V893.301M1062.5 893.301V901.786M1062.5 893.301H1053.98M1062.5 893.301H1071.02M1190.28 884.816V893.301M1190.28 893.301V901.786M1190.28 893.301H1181.76M1190.28 893.301H1198.79M1190.28 843.602V852.087M1190.28 852.087V860.572M1190.28 852.087H1181.76M1190.28 852.087H1198.79M1190.28 802.388V810.873M1190.28 810.873V819.359M1190.28 810.873H1181.76M1190.28 810.873H1198.79M1190.28 926.03V934.515M1190.28 934.515V943M1190.28 934.515H1181.76M1190.28 934.515H1198.79M1062.5 843.602V852.087M1062.5 852.087V860.572M1062.5 852.087H1053.98M1062.5 852.087H1071.02M1105.09 843.602V852.087M1105.09 852.087V860.572M1105.09 852.087H1096.57M1105.09 852.087H1113.61M1105.09 802.388V810.873M1105.09 810.873V819.359M1105.09 810.873H1096.57M1105.09 810.873H1113.61M1105.09 926.03V934.515M1105.09 934.515V943M1105.09 934.515H1096.57M1105.09 934.515H1113.61M1105.09 884.816V893.301M1105.09 893.301V901.786M1105.09 893.301H1096.57M1105.09 893.301H1113.61M1232.87 884.816V893.301M1232.87 893.301V901.786M1232.87 893.301H1224.35M1232.87 893.301H1241.38M1232.87 843.602V852.087M1232.87 852.087V860.572M1232.87 852.087H1224.35M1232.87 852.087H1241.38M1232.87 802.388V810.873M1232.87 810.873V819.359M1232.87 810.873H1224.35M1232.87 810.873H1241.38M1232.87 926.03V934.515M1232.87 934.515V943M1232.87 934.515H1224.35M1232.87 934.515H1241.38M1019.91 843.602V852.087M1019.91 852.087V860.572M1019.91 852.087H1011.39M1019.91 852.087H1028.43M1019.91 802.388V810.873M1019.91 810.873V819.359M1019.91 810.873H1011.39M1019.91 810.873H1028.43M1019.91 926.03V934.515M1019.91 934.515V943M1019.91 934.515H1011.39M1019.91 934.515H1028.43M1019.91 884.816V893.301M1019.91 893.301V901.786M1019.91 893.301H1011.39M1019.91 893.301H1028.43M1147.68 884.816V893.301M1147.68 893.301V901.786M1147.68 893.301H1139.17M1147.68 893.301H1156.2M1147.68 843.602V852.087M1147.68 852.087V860.572M1147.68 852.087H1139.17M1147.68 852.087H1156.2M1147.68 802.388V810.873M1147.68 810.873V819.359M1147.68 810.873H1139.17M1147.68 810.873H1156.2M1147.68 926.03V934.515M1147.68 934.515V943M1147.68 934.515H1139.17M1147.68 934.515H1156.2M810.887 1V9.48519M810.887 9.48519V17.9704M810.887 9.48519H802.368M810.887 9.48519H819.405M810.887 124.641V133.127M810.887 133.127V141.612M810.887 133.127H802.368M810.887 133.127H819.405M810.887 83.4275V91.9127M810.887 91.9127V100.398M810.887 91.9127H802.368M810.887 91.9127H819.405M938.66 83.4275V91.9127M938.66 91.9127V100.398M938.66 91.9127H930.142M938.66 91.9127H947.178M938.66 42.2138V50.699M938.66 50.699V59.1842M938.66 50.699H930.142M938.66 50.699H947.178M938.66 1V9.48519M938.66 9.48519V17.9704M938.66 9.48519H930.142M938.66 9.48519H947.178M938.66 124.641V133.127M938.66 133.127V141.612M938.66 133.127H930.142M938.66 133.127H947.178M810.887 42.2138V50.699M810.887 50.699V59.1842M810.887 50.699H802.368M810.887 50.699H819.405M853.478 42.2138V50.699M853.478 50.699V59.1842M853.478 50.699H844.96M853.478 50.699H861.996M853.478 1V9.48519M853.478 9.48519V17.9704M853.478 9.48519H844.96M853.478 9.48519H861.996M853.478 124.641V133.127M853.478 133.127V141.612M853.478 133.127H844.96M853.478 133.127H861.996M853.478 83.4275V91.9127M853.478 91.9127V100.398M853.478 91.9127H844.96M853.478 91.9127H861.996M981.251 83.4275V91.9127M981.251 91.9127V100.398M981.251 91.9127H972.733M981.251 91.9127H989.769M981.251 42.2138V50.699M981.251 50.699V59.1842M981.251 50.699H972.733M981.251 50.699H989.769M981.251 1V9.48519M981.251 9.48519V17.9704M981.251 9.48519H972.733M981.251 9.48519H989.769M981.251 124.641V133.127M981.251 133.127V141.612M981.251 133.127H972.733M981.251 133.127H989.769M768.296 42.2138V50.699M768.296 50.699V59.1842M768.296 50.699H759.777M768.296 50.699H776.814M768.296 1V9.48519M768.296 9.48519V17.9704M768.296 9.48519H759.777M768.296 9.48519H776.814M768.296 124.641V133.127M768.296 133.127V141.612M768.296 133.127H759.777M768.296 133.127H776.814M768.296 83.4275V91.9127M768.296 91.9127V100.398M768.296 91.9127H759.777M768.296 91.9127H776.814M896.069 83.4275V91.9127M896.069 91.9127V100.398M896.069 91.9127H887.551M896.069 91.9127H904.587M896.069 42.2138V50.699M896.069 50.699V59.1842M896.069 50.699H887.551M896.069 50.699H904.587M896.069 1V9.48519M896.069 9.48519V17.9704M896.069 9.48519H887.551M896.069 9.48519H904.587M896.069 124.641V133.127M896.069 133.127V141.612M896.069 133.127H887.551M896.069 133.127H904.587M810.887 161.278V169.763M810.887 169.763V178.248M810.887 169.763H802.368M810.887 169.763H819.405M810.887 284.919V293.404M810.887 293.404V301.889M810.887 293.404H802.368M810.887 293.404H819.405M810.887 243.705V252.19M810.887 252.19V260.676M810.887 252.19H802.368M810.887 252.19H819.405M938.66 243.705V252.19M938.66 252.19V260.676M938.66 252.19H930.142M938.66 252.19H947.178M938.66 202.491V210.977M938.66 210.977V219.462M938.66 210.977H930.142M938.66 210.977H947.178M938.66 161.278V169.763M938.66 169.763V178.248M938.66 169.763H930.142M938.66 169.763H947.178M938.66 284.919V293.404M938.66 293.404V301.889M938.66 293.404H930.142M938.66 293.404H947.178M810.887 202.491V210.977M810.887 210.977V219.462M810.887 210.977H802.368M810.887 210.977H819.405M853.478 202.491V210.977M853.478 210.977V219.462M853.478 210.977H844.96M853.478 210.977H861.996M853.478 161.278V169.763M853.478 169.763V178.248M853.478 169.763H844.96M853.478 169.763H861.996M853.478 284.919V293.404M853.478 293.404V301.889M853.478 293.404H844.96M853.478 293.404H861.996M853.478 243.705V252.19M853.478 252.19V260.676M853.478 252.19H844.96M853.478 252.19H861.996M981.251 243.705V252.19M981.251 252.19V260.676M981.251 252.19H972.733M981.251 252.19H989.769M981.251 202.491V210.977M981.251 210.977V219.462M981.251 210.977H972.733M981.251 210.977H989.769M981.251 161.278V169.763M981.251 169.763V178.248M981.251 169.763H972.733M981.251 169.763H989.769M981.251 284.919V293.404M981.251 293.404V301.889M981.251 293.404H972.733M981.251 293.404H989.769M768.296 202.491V210.977M768.296 210.977V219.462M768.296 210.977H759.777M768.296 210.977H776.814M768.296 161.278V169.763M768.296 169.763V178.248M768.296 169.763H759.777M768.296 169.763H776.814M768.296 284.919V293.404M768.296 293.404V301.889M768.296 293.404H759.777M768.296 293.404H776.814M768.296 243.705V252.19M768.296 252.19V260.676M768.296 252.19H759.777M768.296 252.19H776.814M896.069 243.705V252.19M896.069 252.19V260.676M896.069 252.19H887.551M896.069 252.19H904.587M896.069 202.491V210.977M896.069 210.977V219.462M896.069 210.977H887.551M896.069 210.977H904.587M896.069 161.278V169.763M896.069 169.763V178.248M896.069 169.763H887.551M896.069 169.763H904.587M896.069 284.919V293.404M896.069 293.404V301.889M896.069 293.404H887.551M896.069 293.404H904.587M810.887 321.555V330.041M810.887 330.041V338.526M810.887 330.041H802.368M810.887 330.041H819.405M810.887 445.197V453.682M810.887 453.682V462.167M810.887 453.682H802.368M810.887 453.682H819.405M810.887 403.983V412.468M810.887 412.468V420.953M810.887 412.468H802.368M810.887 412.468H819.405M938.66 403.983V412.468M938.66 412.468V420.953M938.66 412.468H930.142M938.66 412.468H947.178M938.66 362.769V371.254M938.66 371.254V379.739M938.66 371.254H930.142M938.66 371.254H947.178M938.66 321.555V330.041M938.66 330.041V338.526M938.66 330.041H930.142M938.66 330.041H947.178M938.66 445.197V453.682M938.66 453.682V462.167M938.66 453.682H930.142M938.66 453.682H947.178M810.887 362.769V371.254M810.887 371.254V379.739M810.887 371.254H802.368M810.887 371.254H819.405M853.478 362.769V371.254M853.478 371.254V379.739M853.478 371.254H844.96M853.478 371.254H861.996M853.478 321.555V330.041M853.478 330.041V338.526M853.478 330.041H844.96M853.478 330.041H861.996M853.478 445.197V453.682M853.478 453.682V462.167M853.478 453.682H844.96M853.478 453.682H861.996M853.478 403.983V412.468M853.478 412.468V420.953M853.478 412.468H844.96M853.478 412.468H861.996M981.251 403.983V412.468M981.251 412.468V420.953M981.251 412.468H972.733M981.251 412.468H989.769M981.251 362.769V371.254M981.251 371.254V379.739M981.251 371.254H972.733M981.251 371.254H989.769M981.251 321.555V330.041M981.251 330.041V338.526M981.251 330.041H972.733M981.251 330.041H989.769M981.251 445.197V453.682M981.251 453.682V462.167M981.251 453.682H972.733M981.251 453.682H989.769M768.296 362.769V371.254M768.296 371.254V379.739M768.296 371.254H759.777M768.296 371.254H776.814M768.296 321.555V330.041M768.296 330.041V338.526M768.296 330.041H759.777M768.296 330.041H776.814M768.296 445.197V453.682M768.296 453.682V462.167M768.296 453.682H759.777M768.296 453.682H776.814M768.296 403.983V412.468M768.296 412.468V420.953M768.296 412.468H759.777M768.296 412.468H776.814M896.069 403.983V412.468M896.069 412.468V420.953M896.069 412.468H887.551M896.069 412.468H904.587M896.069 362.769V371.254M896.069 371.254V379.739M896.069 371.254H887.551M896.069 371.254H904.587M896.069 321.555V330.041M896.069 330.041V338.526M896.069 330.041H887.551M896.069 330.041H904.587M896.069 445.197V453.682M896.069 453.682V462.167M896.069 453.682H887.551M896.069 453.682H904.587M810.887 481.833V490.318M810.887 490.318V498.803M810.887 490.318H802.368M810.887 490.318H819.405M810.887 605.474V613.96M810.887 613.96V622.445M810.887 613.96H802.368M810.887 613.96H819.405M810.887 564.261V572.746M810.887 572.746V581.231M810.887 572.746H802.368M810.887 572.746H819.405M938.66 564.261V572.746M938.66 572.746V581.231M938.66 572.746H930.142M938.66 572.746H947.178M938.66 523.047V531.532M938.66 531.532V540.017M938.66 531.532H930.142M938.66 531.532H947.178M938.66 481.833V490.318M938.66 490.318V498.803M938.66 490.318H930.142M938.66 490.318H947.178M938.66 605.474V613.96M938.66 613.96V622.445M938.66 613.96H930.142M938.66 613.96H947.178M810.887 523.047V531.532M810.887 531.532V540.017M810.887 531.532H802.368M810.887 531.532H819.405M853.478 523.047V531.532M853.478 531.532V540.017M853.478 531.532H844.96M853.478 531.532H861.996M853.478 481.833V490.318M853.478 490.318V498.803M853.478 490.318H844.96M853.478 490.318H861.996M853.478 605.474V613.96M853.478 613.96V622.445M853.478 613.96H844.96M853.478 613.96H861.996M853.478 564.261V572.746M853.478 572.746V581.231M853.478 572.746H844.96M853.478 572.746H861.996M981.251 564.261V572.746M981.251 572.746V581.231M981.251 572.746H972.733M981.251 572.746H989.769M981.251 523.047V531.532M981.251 531.532V540.017M981.251 531.532H972.733M981.251 531.532H989.769M981.251 481.833V490.318M981.251 490.318V498.803M981.251 490.318H972.733M981.251 490.318H989.769M981.251 605.474V613.96M981.251 613.96V622.445M981.251 613.96H972.733M981.251 613.96H989.769M768.296 523.047V531.532M768.296 531.532V540.017M768.296 531.532H759.777M768.296 531.532H776.814M768.296 481.833V490.318M768.296 490.318V498.803M768.296 490.318H759.777M768.296 490.318H776.814M768.296 605.474V613.96M768.296 613.96V622.445M768.296 613.96H759.777M768.296 613.96H776.814M768.296 564.261V572.746M768.296 572.746V581.231M768.296 572.746H759.777M768.296 572.746H776.814M896.069 564.261V572.746M896.069 572.746V581.231M896.069 572.746H887.551M896.069 572.746H904.587M896.069 523.047V531.532M896.069 531.532V540.017M896.069 531.532H887.551M896.069 531.532H904.587M896.069 481.833V490.318M896.069 490.318V498.803M896.069 490.318H887.551M896.069 490.318H904.587M896.069 605.474V613.96M896.069 613.96V622.445M896.069 613.96H887.551M896.069 613.96H904.587M810.887 642.111V650.596M810.887 650.596V659.081M810.887 650.596H802.368M810.887 650.596H819.405M810.887 765.752V774.237M810.887 774.237V782.722M810.887 774.237H802.368M810.887 774.237H819.405M810.887 724.538V733.023M810.887 733.023V741.509M810.887 733.023H802.368M810.887 733.023H819.405M938.66 724.538V733.023M938.66 733.023V741.509M938.66 733.023H930.142M938.66 733.023H947.178M938.66 683.324V691.81M938.66 691.81V700.295M938.66 691.81H930.142M938.66 691.81H947.178M938.66 642.111V650.596M938.66 650.596V659.081M938.66 650.596H930.142M938.66 650.596H947.178M938.66 765.752V774.237M938.66 774.237V782.722M938.66 774.237H930.142M938.66 774.237H947.178M810.887 683.324V691.81M810.887 691.81V700.295M810.887 691.81H802.368M810.887 691.81H819.405M853.478 683.324V691.81M853.478 691.81V700.295M853.478 691.81H844.96M853.478 691.81H861.996M853.478 642.111V650.596M853.478 650.596V659.081M853.478 650.596H844.96M853.478 650.596H861.996M853.478 765.752V774.237M853.478 774.237V782.722M853.478 774.237H844.96M853.478 774.237H861.996M853.478 724.538V733.023M853.478 733.023V741.509M853.478 733.023H844.96M853.478 733.023H861.996M981.251 724.538V733.023M981.251 733.023V741.509M981.251 733.023H972.733M981.251 733.023H989.769M981.251 683.324V691.81M981.251 691.81V700.295M981.251 691.81H972.733M981.251 691.81H989.769M981.251 642.111V650.596M981.251 650.596V659.081M981.251 650.596H972.733M981.251 650.596H989.769M981.251 765.752V774.237M981.251 774.237V782.722M981.251 774.237H972.733M981.251 774.237H989.769M768.296 683.324V691.81M768.296 691.81V700.295M768.296 691.81H759.777M768.296 691.81H776.814M768.296 642.111V650.596M768.296 650.596V659.081M768.296 650.596H759.777M768.296 650.596H776.814M768.296 765.752V774.237M768.296 774.237V782.722M768.296 774.237H759.777M768.296 774.237H776.814M768.296 724.538V733.023M768.296 733.023V741.509M768.296 733.023H759.777M768.296 733.023H776.814M896.069 724.538V733.023M896.069 733.023V741.509M896.069 733.023H887.551M896.069 733.023H904.587M896.069 683.324V691.81M896.069 691.81V700.295M896.069 691.81H887.551M896.069 691.81H904.587M896.069 642.111V650.596M896.069 650.596V659.081M896.069 650.596H887.551M896.069 650.596H904.587M896.069 765.752V774.237M896.069 774.237V782.722M896.069 774.237H887.551M896.069 774.237H904.587M810.887 802.388V810.873M810.887 810.873V819.359M810.887 810.873H802.368M810.887 810.873H819.405M810.887 926.03V934.515M810.887 934.515V943M810.887 934.515H802.368M810.887 934.515H819.405M810.887 884.816V893.301M810.887 893.301V901.786M810.887 893.301H802.368M810.887 893.301H819.405M938.66 884.816V893.301M938.66 893.301V901.786M938.66 893.301H930.142M938.66 893.301H947.178M938.66 843.602V852.087M938.66 852.087V860.572M938.66 852.087H930.142M938.66 852.087H947.178M938.66 802.388V810.873M938.66 810.873V819.359M938.66 810.873H930.142M938.66 810.873H947.178M938.66 926.03V934.515M938.66 934.515V943M938.66 934.515H930.142M938.66 934.515H947.178M810.887 843.602V852.087M810.887 852.087V860.572M810.887 852.087H802.368M810.887 852.087H819.405M853.478 843.602V852.087M853.478 852.087V860.572M853.478 852.087H844.96M853.478 852.087H861.996M853.478 802.388V810.873M853.478 810.873V819.359M853.478 810.873H844.96M853.478 810.873H861.996M853.478 926.03V934.515M853.478 934.515V943M853.478 934.515H844.96M853.478 934.515H861.996M853.478 884.816V893.301M853.478 893.301V901.786M853.478 893.301H844.96M853.478 893.301H861.996M981.251 884.816V893.301M981.251 893.301V901.786M981.251 893.301H972.733M981.251 893.301H989.769M981.251 843.602V852.087M981.251 852.087V860.572M981.251 852.087H972.733M981.251 852.087H989.769M981.251 802.388V810.873M981.251 810.873V819.359M981.251 810.873H972.733M981.251 810.873H989.769M981.251 926.03V934.515M981.251 934.515V943M981.251 934.515H972.733M981.251 934.515H989.769M768.296 843.602V852.087M768.296 852.087V860.572M768.296 852.087H759.777M768.296 852.087H776.814M768.296 802.388V810.873M768.296 810.873V819.359M768.296 810.873H759.777M768.296 810.873H776.814M768.296 926.03V934.515M768.296 934.515V943M768.296 934.515H759.777M768.296 934.515H776.814M768.296 884.816V893.301M768.296 893.301V901.786M768.296 893.301H759.777M768.296 893.301H776.814M896.069 884.816V893.301M896.069 893.301V901.786M896.069 893.301H887.551M896.069 893.301H904.587M896.069 843.602V852.087M896.069 852.087V860.572M896.069 852.087H887.551M896.069 852.087H904.587M896.069 802.388V810.873M896.069 810.873V819.359M896.069 810.873H887.551M896.069 810.873H904.587M896.069 926.03V934.515M896.069 934.515V943M896.069 934.515H887.551M896.069 934.515H904.587M555.34 1V9.48519M555.34 9.48519V17.9704M555.34 9.48519H546.822M555.34 9.48519H563.858M555.34 124.641V133.127M555.34 133.127V141.612M555.34 133.127H546.822M555.34 133.127H563.858M555.34 83.4275V91.9127M555.34 91.9127V100.398M555.34 91.9127H546.822M555.34 91.9127H563.858M683.113 83.4275V91.9127M683.113 91.9127V100.398M683.113 91.9127H674.595M683.113 91.9127H691.632M683.113 42.2138V50.699M683.113 50.699V59.1842M683.113 50.699H674.595M683.113 50.699H691.632M683.113 1V9.48519M683.113 9.48519V17.9704M683.113 9.48519H674.595M683.113 9.48519H691.632M683.113 124.641V133.127M683.113 133.127V141.612M683.113 133.127H674.595M683.113 133.127H691.632M555.34 42.2138V50.699M555.34 50.699V59.1842M555.34 50.699H546.822M555.34 50.699H563.858M597.931 42.2138V50.699M597.931 50.699V59.1842M597.931 50.699H589.413M597.931 50.699H606.449M597.931 1V9.48519M597.931 9.48519V17.9704M597.931 9.48519H589.413M597.931 9.48519H606.449M597.931 124.641V133.127M597.931 133.127V141.612M597.931 133.127H589.413M597.931 133.127H606.449M597.931 83.4275V91.9127M597.931 91.9127V100.398M597.931 91.9127H589.413M597.931 91.9127H606.449M725.704 83.4275V91.9127M725.704 91.9127V100.398M725.704 91.9127H717.186M725.704 91.9127H734.223M725.704 42.2138V50.699M725.704 50.699V59.1842M725.704 50.699H717.186M725.704 50.699H734.223M725.704 1V9.48519M725.704 9.48519V17.9704M725.704 9.48519H717.186M725.704 9.48519H734.223M725.704 124.641V133.127M725.704 133.127V141.612M725.704 133.127H717.186M725.704 133.127H734.223M512.749 42.2138V50.699M512.749 50.699V59.1842M512.749 50.699H504.231M512.749 50.699H521.267M512.749 1V9.48519M512.749 9.48519V17.9704M512.749 9.48519H504.231M512.749 9.48519H521.267M512.749 124.641V133.127M512.749 133.127V141.612M512.749 133.127H504.231M512.749 133.127H521.267M512.749 83.4275V91.9127M512.749 91.9127V100.398M512.749 91.9127H504.231M512.749 91.9127H521.267M640.522 83.4275V91.9127M640.522 91.9127V100.398M640.522 91.9127H632.004M640.522 91.9127H649.04M640.522 42.2138V50.699M640.522 50.699V59.1842M640.522 50.699H632.004M640.522 50.699H649.04M640.522 1V9.48519M640.522 9.48519V17.9704M640.522 9.48519H632.004M640.522 9.48519H649.04M640.522 124.641V133.127M640.522 133.127V141.612M640.522 133.127H632.004M640.522 133.127H649.04M555.34 161.278V169.763M555.34 169.763V178.248M555.34 169.763H546.822M555.34 169.763H563.858M555.34 284.919V293.404M555.34 293.404V301.889M555.34 293.404H546.822M555.34 293.404H563.858M555.34 243.705V252.19M555.34 252.19V260.676M555.34 252.19H546.822M555.34 252.19H563.858M683.113 243.705V252.19M683.113 252.19V260.676M683.113 252.19H674.595M683.113 252.19H691.632M683.113 202.491V210.977M683.113 210.977V219.462M683.113 210.977H674.595M683.113 210.977H691.632M683.113 161.278V169.763M683.113 169.763V178.248M683.113 169.763H674.595M683.113 169.763H691.632M683.113 284.919V293.404M683.113 293.404V301.889M683.113 293.404H674.595M683.113 293.404H691.632M555.34 202.491V210.977M555.34 210.977V219.462M555.34 210.977H546.822M555.34 210.977H563.858M597.931 202.491V210.977M597.931 210.977V219.462M597.931 210.977H589.413M597.931 210.977H606.449M597.931 161.278V169.763M597.931 169.763V178.248M597.931 169.763H589.413M597.931 169.763H606.449M597.931 284.919V293.404M597.931 293.404V301.889M597.931 293.404H589.413M597.931 293.404H606.449M597.931 243.705V252.19M597.931 252.19V260.676M597.931 252.19H589.413M597.931 252.19H606.449M725.704 243.705V252.19M725.704 252.19V260.676M725.704 252.19H717.186M725.704 252.19H734.223M725.704 202.491V210.977M725.704 210.977V219.462M725.704 210.977H717.186M725.704 210.977H734.223M725.704 161.278V169.763M725.704 169.763V178.248M725.704 169.763H717.186M725.704 169.763H734.223M725.704 284.919V293.404M725.704 293.404V301.889M725.704 293.404H717.186M725.704 293.404H734.223M512.749 202.491V210.977M512.749 210.977V219.462M512.749 210.977H504.231M512.749 210.977H521.267M512.749 161.278V169.763M512.749 169.763V178.248M512.749 169.763H504.231M512.749 169.763H521.267M512.749 284.919V293.404M512.749 293.404V301.889M512.749 293.404H504.231M512.749 293.404H521.267M512.749 243.705V252.19M512.749 252.19V260.676M512.749 252.19H504.231M512.749 252.19H521.267M640.522 243.705V252.19M640.522 252.19V260.676M640.522 252.19H632.004M640.522 252.19H649.04M640.522 202.491V210.977M640.522 210.977V219.462M640.522 210.977H632.004M640.522 210.977H649.04M640.522 161.278V169.763M640.522 169.763V178.248M640.522 169.763H632.004M640.522 169.763H649.04M640.522 284.919V293.404M640.522 293.404V301.889M640.522 293.404H632.004M640.522 293.404H649.04M555.34 321.555V330.041M555.34 330.041V338.526M555.34 330.041H546.822M555.34 330.041H563.858M555.34 445.197V453.682M555.34 453.682V462.167M555.34 453.682H546.822M555.34 453.682H563.858M555.34 403.983V412.468M555.34 412.468V420.953M555.34 412.468H546.822M555.34 412.468H563.858M683.113 403.983V412.468M683.113 412.468V420.953M683.113 412.468H674.595M683.113 412.468H691.632M683.113 362.769V371.254M683.113 371.254V379.739M683.113 371.254H674.595M683.113 371.254H691.632M683.113 321.555V330.041M683.113 330.041V338.526M683.113 330.041H674.595M683.113 330.041H691.632M683.113 445.197V453.682M683.113 453.682V462.167M683.113 453.682H674.595M683.113 453.682H691.632M555.34 362.769V371.254M555.34 371.254V379.739M555.34 371.254H546.822M555.34 371.254H563.858M597.931 362.769V371.254M597.931 371.254V379.739M597.931 371.254H589.413M597.931 371.254H606.449M597.931 321.555V330.041M597.931 330.041V338.526M597.931 330.041H589.413M597.931 330.041H606.449M597.931 445.197V453.682M597.931 453.682V462.167M597.931 453.682H589.413M597.931 453.682H606.449M597.931 403.983V412.468M597.931 412.468V420.953M597.931 412.468H589.413M597.931 412.468H606.449M725.704 403.983V412.468M725.704 412.468V420.953M725.704 412.468H717.186M725.704 412.468H734.223M725.704 362.769V371.254M725.704 371.254V379.739M725.704 371.254H717.186M725.704 371.254H734.223M725.704 321.555V330.041M725.704 330.041V338.526M725.704 330.041H717.186M725.704 330.041H734.223M725.704 445.197V453.682M725.704 453.682V462.167M725.704 453.682H717.186M725.704 453.682H734.223M512.749 362.769V371.254M512.749 371.254V379.739M512.749 371.254H504.231M512.749 371.254H521.267M512.749 321.555V330.041M512.749 330.041V338.526M512.749 330.041H504.231M512.749 330.041H521.267M512.749 445.197V453.682M512.749 453.682V462.167M512.749 453.682H504.231M512.749 453.682H521.267M512.749 403.983V412.468M512.749 412.468V420.953M512.749 412.468H504.231M512.749 412.468H521.267M640.522 403.983V412.468M640.522 412.468V420.953M640.522 412.468H632.004M640.522 412.468H649.04M640.522 362.769V371.254M640.522 371.254V379.739M640.522 371.254H632.004M640.522 371.254H649.04M640.522 321.555V330.041M640.522 330.041V338.526M640.522 330.041H632.004M640.522 330.041H649.04M640.522 445.197V453.682M640.522 453.682V462.167M640.522 453.682H632.004M640.522 453.682H649.04M555.34 481.833V490.318M555.34 490.318V498.803M555.34 490.318H546.822M555.34 490.318H563.858M555.34 605.474V613.96M555.34 613.96V622.445M555.34 613.96H546.822M555.34 613.96H563.858M555.34 564.261V572.746M555.34 572.746V581.231M555.34 572.746H546.822M555.34 572.746H563.858M683.113 564.261V572.746M683.113 572.746V581.231M683.113 572.746H674.595M683.113 572.746H691.632M683.113 523.047V531.532M683.113 531.532V540.017M683.113 531.532H674.595M683.113 531.532H691.632M683.113 481.833V490.318M683.113 490.318V498.803M683.113 490.318H674.595M683.113 490.318H691.632M683.113 605.474V613.96M683.113 613.96V622.445M683.113 613.96H674.595M683.113 613.96H691.632M555.34 523.047V531.532M555.34 531.532V540.017M555.34 531.532H546.822M555.34 531.532H563.858M597.931 523.047V531.532M597.931 531.532V540.017M597.931 531.532H589.413M597.931 531.532H606.449M597.931 481.833V490.318M597.931 490.318V498.803M597.931 490.318H589.413M597.931 490.318H606.449M597.931 605.474V613.96M597.931 613.96V622.445M597.931 613.96H589.413M597.931 613.96H606.449M597.931 564.261V572.746M597.931 572.746V581.231M597.931 572.746H589.413M597.931 572.746H606.449M725.704 564.261V572.746M725.704 572.746V581.231M725.704 572.746H717.186M725.704 572.746H734.223M725.704 523.047V531.532M725.704 531.532V540.017M725.704 531.532H717.186M725.704 531.532H734.223M725.704 481.833V490.318M725.704 490.318V498.803M725.704 490.318H717.186M725.704 490.318H734.223M725.704 605.474V613.96M725.704 613.96V622.445M725.704 613.96H717.186M725.704 613.96H734.223M512.749 523.047V531.532M512.749 531.532V540.017M512.749 531.532H504.231M512.749 531.532H521.267M512.749 481.833V490.318M512.749 490.318V498.803M512.749 490.318H504.231M512.749 490.318H521.267M512.749 605.474V613.96M512.749 613.96V622.445M512.749 613.96H504.231M512.749 613.96H521.267M512.749 564.261V572.746M512.749 572.746V581.231M512.749 572.746H504.231M512.749 572.746H521.267M640.522 564.261V572.746M640.522 572.746V581.231M640.522 572.746H632.004M640.522 572.746H649.04M640.522 523.047V531.532M640.522 531.532V540.017M640.522 531.532H632.004M640.522 531.532H649.04M640.522 481.833V490.318M640.522 490.318V498.803M640.522 490.318H632.004M640.522 490.318H649.04M640.522 605.474V613.96M640.522 613.96V622.445M640.522 613.96H632.004M640.522 613.96H649.04M555.34 642.111V650.596M555.34 650.596V659.081M555.34 650.596H546.822M555.34 650.596H563.858M555.34 765.752V774.237M555.34 774.237V782.722M555.34 774.237H546.822M555.34 774.237H563.858M555.34 724.538V733.023M555.34 733.023V741.509M555.34 733.023H546.822M555.34 733.023H563.858M683.113 724.538V733.023M683.113 733.023V741.509M683.113 733.023H674.595M683.113 733.023H691.632M683.113 683.324V691.81M683.113 691.81V700.295M683.113 691.81H674.595M683.113 691.81H691.632M683.113 642.111V650.596M683.113 650.596V659.081M683.113 650.596H674.595M683.113 650.596H691.632M683.113 765.752V774.237M683.113 774.237V782.722M683.113 774.237H674.595M683.113 774.237H691.632M555.34 683.324V691.81M555.34 691.81V700.295M555.34 691.81H546.822M555.34 691.81H563.858M597.931 683.324V691.81M597.931 691.81V700.295M597.931 691.81H589.413M597.931 691.81H606.449M597.931 642.111V650.596M597.931 650.596V659.081M597.931 650.596H589.413M597.931 650.596H606.449M597.931 765.752V774.237M597.931 774.237V782.722M597.931 774.237H589.413M597.931 774.237H606.449M597.931 724.538V733.023M597.931 733.023V741.509M597.931 733.023H589.413M597.931 733.023H606.449M725.704 724.538V733.023M725.704 733.023V741.509M725.704 733.023H717.186M725.704 733.023H734.223M725.704 683.324V691.81M725.704 691.81V700.295M725.704 691.81H717.186M725.704 691.81H734.223M725.704 642.111V650.596M725.704 650.596V659.081M725.704 650.596H717.186M725.704 650.596H734.223M725.704 765.752V774.237M725.704 774.237V782.722M725.704 774.237H717.186M725.704 774.237H734.223M512.749 683.324V691.81M512.749 691.81V700.295M512.749 691.81H504.231M512.749 691.81H521.267M512.749 642.111V650.596M512.749 650.596V659.081M512.749 650.596H504.231M512.749 650.596H521.267M512.749 765.752V774.237M512.749 774.237V782.722M512.749 774.237H504.231M512.749 774.237H521.267M512.749 724.538V733.023M512.749 733.023V741.509M512.749 733.023H504.231M512.749 733.023H521.267M640.522 724.538V733.023M640.522 733.023V741.509M640.522 733.023H632.004M640.522 733.023H649.04M640.522 683.324V691.81M640.522 691.81V700.295M640.522 691.81H632.004M640.522 691.81H649.04M640.522 642.111V650.596M640.522 650.596V659.081M640.522 650.596H632.004M640.522 650.596H649.04M640.522 765.752V774.237M640.522 774.237V782.722M640.522 774.237H632.004M640.522 774.237H649.04M555.34 802.388V810.873M555.34 810.873V819.359M555.34 810.873H546.822M555.34 810.873H563.858M555.34 926.03V934.515M555.34 934.515V943M555.34 934.515H546.822M555.34 934.515H563.858M555.34 884.816V893.301M555.34 893.301V901.786M555.34 893.301H546.822M555.34 893.301H563.858M683.113 884.816V893.301M683.113 893.301V901.786M683.113 893.301H674.595M683.113 893.301H691.632M683.113 843.602V852.087M683.113 852.087V860.572M683.113 852.087H674.595M683.113 852.087H691.632M683.113 802.388V810.873M683.113 810.873V819.359M683.113 810.873H674.595M683.113 810.873H691.632M683.113 926.03V934.515M683.113 934.515V943M683.113 934.515H674.595M683.113 934.515H691.632M555.34 843.602V852.087M555.34 852.087V860.572M555.34 852.087H546.822M555.34 852.087H563.858M597.931 843.602V852.087M597.931 852.087V860.572M597.931 852.087H589.413M597.931 852.087H606.449M597.931 802.388V810.873M597.931 810.873V819.359M597.931 810.873H589.413M597.931 810.873H606.449M597.931 926.03V934.515M597.931 934.515V943M597.931 934.515H589.413M597.931 934.515H606.449M597.931 884.816V893.301M597.931 893.301V901.786M597.931 893.301H589.413M597.931 893.301H606.449M725.704 884.816V893.301M725.704 893.301V901.786M725.704 893.301H717.186M725.704 893.301H734.223M725.704 843.602V852.087M725.704 852.087V860.572M725.704 852.087H717.186M725.704 852.087H734.223M725.704 802.388V810.873M725.704 810.873V819.359M725.704 810.873H717.186M725.704 810.873H734.223M725.704 926.03V934.515M725.704 934.515V943M725.704 934.515H717.186M725.704 934.515H734.223M512.749 843.602V852.087M512.749 852.087V860.572M512.749 852.087H504.231M512.749 852.087H521.267M512.749 802.388V810.873M512.749 810.873V819.359M512.749 810.873H504.231M512.749 810.873H521.267M512.749 926.03V934.515M512.749 934.515V943M512.749 934.515H504.231M512.749 934.515H521.267M512.749 884.816V893.301M512.749 893.301V901.786M512.749 893.301H504.231M512.749 893.301H521.267M640.522 884.816V893.301M640.522 893.301V901.786M640.522 893.301H632.004M640.522 893.301H649.04M640.522 843.602V852.087M640.522 852.087V860.572M640.522 852.087H632.004M640.522 852.087H649.04M640.522 802.388V810.873M640.522 810.873V819.359M640.522 810.873H632.004M640.522 810.873H649.04M640.522 926.03V934.515M640.522 934.515V943M640.522 934.515H632.004M640.522 934.515H649.04M303.725 1V9.48519M303.725 9.48519V17.9704M303.725 9.48519H295.206M303.725 9.48519H312.243M303.725 124.641V133.127M303.725 133.127V141.612M303.725 133.127H295.206M303.725 133.127H312.243M303.725 83.4275V91.9127M303.725 91.9127V100.398M303.725 91.9127H295.206M303.725 91.9127H312.243M431.498 83.4275V91.9127M431.498 91.9127V100.398M431.498 91.9127H422.98M431.498 91.9127H440.016M431.498 42.2138V50.699M431.498 50.699V59.1842M431.498 50.699H422.98M431.498 50.699H440.016M431.498 1V9.48519M431.498 9.48519V17.9704M431.498 9.48519H422.98M431.498 9.48519H440.016M431.498 124.641V133.127M431.498 133.127V141.612M431.498 133.127H422.98M431.498 133.127H440.016M303.725 42.2138V50.699M303.725 50.699V59.1842M303.725 50.699H295.206M303.725 50.699H312.243M346.316 42.2138V50.699M346.316 50.699V59.1842M346.316 50.699H337.798M346.316 50.699H354.834M346.316 1V9.48519M346.316 9.48519V17.9704M346.316 9.48519H337.798M346.316 9.48519H354.834M346.316 124.641V133.127M346.316 133.127V141.612M346.316 133.127H337.798M346.316 133.127H354.834M346.316 83.4275V91.9127M346.316 91.9127V100.398M346.316 91.9127H337.798M346.316 91.9127H354.834M474.089 83.4275V91.9127M474.089 91.9127V100.398M474.089 91.9127H465.571M474.089 91.9127H482.607M474.089 42.2138V50.699M474.089 50.699V59.1842M474.089 50.699H465.571M474.089 50.699H482.607M474.089 1V9.48519M474.089 9.48519V17.9704M474.089 9.48519H465.571M474.089 9.48519H482.607M474.089 124.641V133.127M474.089 133.127V141.612M474.089 133.127H465.571M474.089 133.127H482.607M261.133 42.2138V50.699M261.133 50.699V59.1842M261.133 50.699H252.615M261.133 50.699H269.652M261.133 1V9.48519M261.133 9.48519V17.9704M261.133 9.48519H252.615M261.133 9.48519H269.652M261.133 124.641V133.127M261.133 133.127V141.612M261.133 133.127H252.615M261.133 133.127H269.652M261.133 83.4275V91.9127M261.133 91.9127V100.398M261.133 91.9127H252.615M261.133 91.9127H269.652M388.907 83.4275V91.9127M388.907 91.9127V100.398M388.907 91.9127H380.389M388.907 91.9127H397.425M388.907 42.2138V50.699M388.907 50.699V59.1842M388.907 50.699H380.389M388.907 50.699H397.425M388.907 1V9.48519M388.907 9.48519V17.9704M388.907 9.48519H380.389M388.907 9.48519H397.425M388.907 124.641V133.127M388.907 133.127V141.612M388.907 133.127H380.389M388.907 133.127H397.425M303.725 161.278V169.763M303.725 169.763V178.248M303.725 169.763H295.206M303.725 169.763H312.243M303.725 284.919V293.404M303.725 293.404V301.889M303.725 293.404H295.206M303.725 293.404H312.243M303.725 243.705V252.19M303.725 252.19V260.676M303.725 252.19H295.206M303.725 252.19H312.243M431.498 243.705V252.19M431.498 252.19V260.676M431.498 252.19H422.98M431.498 252.19H440.016M431.498 202.491V210.977M431.498 210.977V219.462M431.498 210.977H422.98M431.498 210.977H440.016M431.498 161.278V169.763M431.498 169.763V178.248M431.498 169.763H422.98M431.498 169.763H440.016M431.498 284.919V293.404M431.498 293.404V301.889M431.498 293.404H422.98M431.498 293.404H440.016M303.725 202.491V210.977M303.725 210.977V219.462M303.725 210.977H295.206M303.725 210.977H312.243M346.316 202.491V210.977M346.316 210.977V219.462M346.316 210.977H337.798M346.316 210.977H354.834M346.316 161.278V169.763M346.316 169.763V178.248M346.316 169.763H337.798M346.316 169.763H354.834M346.316 284.919V293.404M346.316 293.404V301.889M346.316 293.404H337.798M346.316 293.404H354.834M346.316 243.705V252.19M346.316 252.19V260.676M346.316 252.19H337.798M346.316 252.19H354.834M474.089 243.705V252.19M474.089 252.19V260.676M474.089 252.19H465.571M474.089 252.19H482.607M474.089 202.491V210.977M474.089 210.977V219.462M474.089 210.977H465.571M474.089 210.977H482.607M474.089 161.278V169.763M474.089 169.763V178.248M474.089 169.763H465.571M474.089 169.763H482.607M474.089 284.919V293.404M474.089 293.404V301.889M474.089 293.404H465.571M474.089 293.404H482.607M261.133 202.491V210.977M261.133 210.977V219.462M261.133 210.977H252.615M261.133 210.977H269.652M261.133 161.278V169.763M261.133 169.763V178.248M261.133 169.763H252.615M261.133 169.763H269.652M261.133 284.919V293.404M261.133 293.404V301.889M261.133 293.404H252.615M261.133 293.404H269.652M261.133 243.705V252.19M261.133 252.19V260.676M261.133 252.19H252.615M261.133 252.19H269.652M388.907 243.705V252.19M388.907 252.19V260.676M388.907 252.19H380.389M388.907 252.19H397.425M388.907 202.491V210.977M388.907 210.977V219.462M388.907 210.977H380.389M388.907 210.977H397.425M388.907 161.278V169.763M388.907 169.763V178.248M388.907 169.763H380.389M388.907 169.763H397.425M388.907 284.919V293.404M388.907 293.404V301.889M388.907 293.404H380.389M388.907 293.404H397.425M303.725 321.555V330.041M303.725 330.041V338.526M303.725 330.041H295.206M303.725 330.041H312.243M303.725 445.197V453.682M303.725 453.682V462.167M303.725 453.682H295.206M303.725 453.682H312.243M303.725 403.983V412.468M303.725 412.468V420.953M303.725 412.468H295.206M303.725 412.468H312.243M431.498 403.983V412.468M431.498 412.468V420.953M431.498 412.468H422.98M431.498 412.468H440.016M431.498 362.769V371.254M431.498 371.254V379.739M431.498 371.254H422.98M431.498 371.254H440.016M431.498 321.555V330.041M431.498 330.041V338.526M431.498 330.041H422.98M431.498 330.041H440.016M431.498 445.197V453.682M431.498 453.682V462.167M431.498 453.682H422.98M431.498 453.682H440.016M303.725 362.769V371.254M303.725 371.254V379.739M303.725 371.254H295.206M303.725 371.254H312.243M346.316 362.769V371.254M346.316 371.254V379.739M346.316 371.254H337.798M346.316 371.254H354.834M346.316 321.555V330.041M346.316 330.041V338.526M346.316 330.041H337.798M346.316 330.041H354.834M346.316 445.197V453.682M346.316 453.682V462.167M346.316 453.682H337.798M346.316 453.682H354.834M346.316 403.983V412.468M346.316 412.468V420.953M346.316 412.468H337.798M346.316 412.468H354.834M474.089 403.983V412.468M474.089 412.468V420.953M474.089 412.468H465.571M474.089 412.468H482.607M474.089 362.769V371.254M474.089 371.254V379.739M474.089 371.254H465.571M474.089 371.254H482.607M474.089 321.555V330.041M474.089 330.041V338.526M474.089 330.041H465.571M474.089 330.041H482.607M474.089 445.197V453.682M474.089 453.682V462.167M474.089 453.682H465.571M474.089 453.682H482.607M261.133 362.769V371.254M261.133 371.254V379.739M261.133 371.254H252.615M261.133 371.254H269.652M261.133 321.555V330.041M261.133 330.041V338.526M261.133 330.041H252.615M261.133 330.041H269.652M261.133 445.197V453.682M261.133 453.682V462.167M261.133 453.682H252.615M261.133 453.682H269.652M261.133 403.983V412.468M261.133 412.468V420.953M261.133 412.468H252.615M261.133 412.468H269.652M388.907 403.983V412.468M388.907 412.468V420.953M388.907 412.468H380.389M388.907 412.468H397.425M388.907 362.769V371.254M388.907 371.254V379.739M388.907 371.254H380.389M388.907 371.254H397.425M388.907 321.555V330.041M388.907 330.041V338.526M388.907 330.041H380.389M388.907 330.041H397.425M388.907 445.197V453.682M388.907 453.682V462.167M388.907 453.682H380.389M388.907 453.682H397.425M303.725 481.833V490.318M303.725 490.318V498.803M303.725 490.318H295.206M303.725 490.318H312.243M303.725 605.474V613.96M303.725 613.96V622.445M303.725 613.96H295.206M303.725 613.96H312.243M303.725 564.261V572.746M303.725 572.746V581.231M303.725 572.746H295.206M303.725 572.746H312.243M431.498 564.261V572.746M431.498 572.746V581.231M431.498 572.746H422.98M431.498 572.746H440.016M431.498 523.047V531.532M431.498 531.532V540.017M431.498 531.532H422.98M431.498 531.532H440.016M431.498 481.833V490.318M431.498 490.318V498.803M431.498 490.318H422.98M431.498 490.318H440.016M431.498 605.474V613.96M431.498 613.96V622.445M431.498 613.96H422.98M431.498 613.96H440.016M303.725 523.047V531.532M303.725 531.532V540.017M303.725 531.532H295.206M303.725 531.532H312.243M346.316 523.047V531.532M346.316 531.532V540.017M346.316 531.532H337.798M346.316 531.532H354.834M346.316 481.833V490.318M346.316 490.318V498.803M346.316 490.318H337.798M346.316 490.318H354.834M346.316 605.474V613.96M346.316 613.96V622.445M346.316 613.96H337.798M346.316 613.96H354.834M346.316 564.261V572.746M346.316 572.746V581.231M346.316 572.746H337.798M346.316 572.746H354.834M474.089 564.261V572.746M474.089 572.746V581.231M474.089 572.746H465.571M474.089 572.746H482.607M474.089 523.047V531.532M474.089 531.532V540.017M474.089 531.532H465.571M474.089 531.532H482.607M474.089 481.833V490.318M474.089 490.318V498.803M474.089 490.318H465.571M474.089 490.318H482.607M474.089 605.474V613.96M474.089 613.96V622.445M474.089 613.96H465.571M474.089 613.96H482.607M261.133 523.047V531.532M261.133 531.532V540.017M261.133 531.532H252.615M261.133 531.532H269.652M261.133 481.833V490.318M261.133 490.318V498.803M261.133 490.318H252.615M261.133 490.318H269.652M261.133 605.474V613.96M261.133 613.96V622.445M261.133 613.96H252.615M261.133 613.96H269.652M261.133 564.261V572.746M261.133 572.746V581.231M261.133 572.746H252.615M261.133 572.746H269.652M388.907 564.261V572.746M388.907 572.746V581.231M388.907 572.746H380.389M388.907 572.746H397.425M388.907 523.047V531.532M388.907 531.532V540.017M388.907 531.532H380.389M388.907 531.532H397.425M388.907 481.833V490.318M388.907 490.318V498.803M388.907 490.318H380.389M388.907 490.318H397.425M388.907 605.474V613.96M388.907 613.96V622.445M388.907 613.96H380.389M388.907 613.96H397.425M303.725 642.111V650.596M303.725 650.596V659.081M303.725 650.596H295.206M303.725 650.596H312.243M303.725 765.752V774.237M303.725 774.237V782.722M303.725 774.237H295.206M303.725 774.237H312.243M303.725 724.538V733.023M303.725 733.023V741.509M303.725 733.023H295.206M303.725 733.023H312.243M431.498 724.538V733.023M431.498 733.023V741.509M431.498 733.023H422.98M431.498 733.023H440.016M431.498 683.324V691.81M431.498 691.81V700.295M431.498 691.81H422.98M431.498 691.81H440.016M431.498 642.111V650.596M431.498 650.596V659.081M431.498 650.596H422.98M431.498 650.596H440.016M431.498 765.752V774.237M431.498 774.237V782.722M431.498 774.237H422.98M431.498 774.237H440.016M303.725 683.324V691.81M303.725 691.81V700.295M303.725 691.81H295.206M303.725 691.81H312.243M346.316 683.324V691.81M346.316 691.81V700.295M346.316 691.81H337.798M346.316 691.81H354.834M346.316 642.111V650.596M346.316 650.596V659.081M346.316 650.596H337.798M346.316 650.596H354.834M346.316 765.752V774.237M346.316 774.237V782.722M346.316 774.237H337.798M346.316 774.237H354.834M346.316 724.538V733.023M346.316 733.023V741.509M346.316 733.023H337.798M346.316 733.023H354.834M474.089 724.538V733.023M474.089 733.023V741.509M474.089 733.023H465.571M474.089 733.023H482.607M474.089 683.324V691.81M474.089 691.81V700.295M474.089 691.81H465.571M474.089 691.81H482.607M474.089 642.111V650.596M474.089 650.596V659.081M474.089 650.596H465.571M474.089 650.596H482.607M474.089 765.752V774.237M474.089 774.237V782.722M474.089 774.237H465.571M474.089 774.237H482.607M261.133 683.324V691.81M261.133 691.81V700.295M261.133 691.81H252.615M261.133 691.81H269.652M261.133 642.111V650.596M261.133 650.596V659.081M261.133 650.596H252.615M261.133 650.596H269.652M261.133 765.752V774.237M261.133 774.237V782.722M261.133 774.237H252.615M261.133 774.237H269.652M261.133 724.538V733.023M261.133 733.023V741.509M261.133 733.023H252.615M261.133 733.023H269.652M388.907 724.538V733.023M388.907 733.023V741.509M388.907 733.023H380.389M388.907 733.023H397.425M388.907 683.324V691.81M388.907 691.81V700.295M388.907 691.81H380.389M388.907 691.81H397.425M388.907 642.111V650.596M388.907 650.596V659.081M388.907 650.596H380.389M388.907 650.596H397.425M388.907 765.752V774.237M388.907 774.237V782.722M388.907 774.237H380.389M388.907 774.237H397.425M303.725 802.388V810.873M303.725 810.873V819.359M303.725 810.873H295.206M303.725 810.873H312.243M303.725 926.03V934.515M303.725 934.515V943M303.725 934.515H295.206M303.725 934.515H312.243M303.725 884.816V893.301M303.725 893.301V901.786M303.725 893.301H295.206M303.725 893.301H312.243M431.498 884.816V893.301M431.498 893.301V901.786M431.498 893.301H422.98M431.498 893.301H440.016M431.498 843.602V852.087M431.498 852.087V860.572M431.498 852.087H422.98M431.498 852.087H440.016M431.498 802.388V810.873M431.498 810.873V819.359M431.498 810.873H422.98M431.498 810.873H440.016M431.498 926.03V934.515M431.498 934.515V943M431.498 934.515H422.98M431.498 934.515H440.016M303.725 843.602V852.087M303.725 852.087V860.572M303.725 852.087H295.206M303.725 852.087H312.243M346.316 843.602V852.087M346.316 852.087V860.572M346.316 852.087H337.798M346.316 852.087H354.834M346.316 802.388V810.873M346.316 810.873V819.359M346.316 810.873H337.798M346.316 810.873H354.834M346.316 926.03V934.515M346.316 934.515V943M346.316 934.515H337.798M346.316 934.515H354.834M346.316 884.816V893.301M346.316 893.301V901.786M346.316 893.301H337.798M346.316 893.301H354.834M474.089 884.816V893.301M474.089 893.301V901.786M474.089 893.301H465.571M474.089 893.301H482.607M474.089 843.602V852.087M474.089 852.087V860.572M474.089 852.087H465.571M474.089 852.087H482.607M474.089 802.388V810.873M474.089 810.873V819.359M474.089 810.873H465.571M474.089 810.873H482.607M474.089 926.03V934.515M474.089 934.515V943M474.089 934.515H465.571M474.089 934.515H482.607M261.133 843.602V852.087M261.133 852.087V860.572M261.133 852.087H252.615M261.133 852.087H269.652M261.133 802.388V810.873M261.133 810.873V819.359M261.133 810.873H252.615M261.133 810.873H269.652M261.133 926.03V934.515M261.133 934.515V943M261.133 934.515H252.615M261.133 934.515H269.652M261.133 884.816V893.301M261.133 893.301V901.786M261.133 893.301H252.615M261.133 893.301H269.652M388.907 884.816V893.301M388.907 893.301V901.786M388.907 893.301H380.389M388.907 893.301H397.425M388.907 843.602V852.087M388.907 852.087V860.572M388.907 852.087H380.389M388.907 852.087H397.425M388.907 802.388V810.873M388.907 810.873V819.359M388.907 810.873H380.389M388.907 810.873H397.425M388.907 926.03V934.515M388.907 934.515V943M388.907 934.515H380.389M388.907 934.515H397.425M52.1094 1V9.48519M52.1094 9.48519V17.9704M52.1094 9.48519H43.5912M52.1094 9.48519H60.6276M52.1094 124.641V133.127M52.1094 133.127V141.612M52.1094 133.127H43.5912M52.1094 133.127H60.6276M52.1094 83.4275V91.9127M52.1094 91.9127V100.398M52.1094 91.9127H43.5912M52.1094 91.9127H60.6276M179.883 83.4275V91.9127M179.883 91.9127V100.398M179.883 91.9127H171.365M179.883 91.9127H188.401M179.883 42.2138V50.699M179.883 50.699V59.1842M179.883 50.699H171.365M179.883 50.699H188.401M179.883 1V9.48519M179.883 9.48519V17.9704M179.883 9.48519H171.365M179.883 9.48519H188.401M179.883 124.641V133.127M179.883 133.127V141.612M179.883 133.127H171.365M179.883 133.127H188.401M52.1094 42.2138V50.699M52.1094 50.699V59.1842M52.1094 50.699H43.5912M52.1094 50.699H60.6276M94.7005 42.2138V50.699M94.7005 50.699V59.1842M94.7005 50.699H86.1822M94.7005 50.699H103.219M94.7005 1V9.48519M94.7005 9.48519V17.9704M94.7005 9.48519H86.1822M94.7005 9.48519H103.219M94.7005 124.641V133.127M94.7005 133.127V141.612M94.7005 133.127H86.1822M94.7005 133.127H103.219M94.7005 83.4275V91.9127M94.7005 91.9127V100.398M94.7005 91.9127H86.1822M94.7005 91.9127H103.219M222.474 83.4275V91.9127M222.474 91.9127V100.398M222.474 91.9127H213.956M222.474 91.9127H230.992M222.474 42.2138V50.699M222.474 50.699V59.1842M222.474 50.699H213.956M222.474 50.699H230.992M222.474 1V9.48519M222.474 9.48519V17.9704M222.474 9.48519H213.956M222.474 9.48519H230.992M222.474 124.641V133.127M222.474 133.127V141.612M222.474 133.127H213.956M222.474 133.127H230.992M9.5182 42.2138V50.699M9.5182 50.699V59.1842M9.5182 50.699H1.00002M9.5182 50.699H18.0365M9.5182 1V9.48519M9.5182 9.48519V17.9704M9.5182 9.48519H1.00002M9.5182 9.48519H18.0365M9.5182 124.641V133.127M9.5182 133.127V141.612M9.5182 133.127H1.00002M9.5182 133.127H18.0365M9.5182 83.4275V91.9127M9.5182 91.9127V100.398M9.5182 91.9127H1.00002M9.5182 91.9127H18.0365M137.292 83.4275V91.9127M137.292 91.9127V100.398M137.292 91.9127H128.773M137.292 91.9127H145.81M137.292 42.2138V50.699M137.292 50.699V59.1842M137.292 50.699H128.773M137.292 50.699H145.81M137.292 1V9.48519M137.292 9.48519V17.9704M137.292 9.48519H128.773M137.292 9.48519H145.81M137.292 124.641V133.127M137.292 133.127V141.612M137.292 133.127H128.773M137.292 133.127H145.81M52.1094 161.278V169.763M52.1094 169.763V178.248M52.1094 169.763H43.5912M52.1094 169.763H60.6276M52.1094 284.919V293.404M52.1094 293.404V301.889M52.1094 293.404H43.5912M52.1094 293.404H60.6276M52.1094 243.705V252.19M52.1094 252.19V260.676M52.1094 252.19H43.5912M52.1094 252.19H60.6276M179.883 243.705V252.19M179.883 252.19V260.676M179.883 252.19H171.365M179.883 252.19H188.401M179.883 202.491V210.977M179.883 210.977V219.462M179.883 210.977H171.365M179.883 210.977H188.401M179.883 161.278V169.763M179.883 169.763V178.248M179.883 169.763H171.365M179.883 169.763H188.401M179.883 284.919V293.404M179.883 293.404V301.889M179.883 293.404H171.365M179.883 293.404H188.401M52.1094 202.491V210.977M52.1094 210.977V219.462M52.1094 210.977H43.5912M52.1094 210.977H60.6276M94.7005 202.491V210.977M94.7005 210.977V219.462M94.7005 210.977H86.1822M94.7005 210.977H103.219M94.7005 161.278V169.763M94.7005 169.763V178.248M94.7005 169.763H86.1822M94.7005 169.763H103.219M94.7005 284.919V293.404M94.7005 293.404V301.889M94.7005 293.404H86.1822M94.7005 293.404H103.219M94.7005 243.705V252.19M94.7005 252.19V260.676M94.7005 252.19H86.1822M94.7005 252.19H103.219M222.474 243.705V252.19M222.474 252.19V260.676M222.474 252.19H213.956M222.474 252.19H230.992M222.474 202.491V210.977M222.474 210.977V219.462M222.474 210.977H213.956M222.474 210.977H230.992M222.474 161.278V169.763M222.474 169.763V178.248M222.474 169.763H213.956M222.474 169.763H230.992M222.474 284.919V293.404M222.474 293.404V301.889M222.474 293.404H213.956M222.474 293.404H230.992M9.5182 202.491V210.977M9.5182 210.977V219.462M9.5182 210.977H1.00002M9.5182 210.977H18.0365M9.5182 161.278V169.763M9.5182 169.763V178.248M9.5182 169.763H1.00002M9.5182 169.763H18.0365M9.5182 284.919V293.404M9.5182 293.404V301.889M9.5182 293.404H1.00002M9.5182 293.404H18.0365M9.5182 243.705V252.19M9.5182 252.19V260.676M9.5182 252.19H1.00002M9.5182 252.19H18.0365M137.292 243.705V252.19M137.292 252.19V260.676M137.292 252.19H128.773M137.292 252.19H145.81M137.292 202.491V210.977M137.292 210.977V219.462M137.292 210.977H128.773M137.292 210.977H145.81M137.292 161.278V169.763M137.292 169.763V178.248M137.292 169.763H128.773M137.292 169.763H145.81M137.292 284.919V293.404M137.292 293.404V301.889M137.292 293.404H128.773M137.292 293.404H145.81M52.1094 321.555V330.041M52.1094 330.041V338.526M52.1094 330.041H43.5912M52.1094 330.041H60.6276M52.1094 445.197V453.682M52.1094 453.682V462.167M52.1094 453.682H43.5912M52.1094 453.682H60.6276M52.1094 403.983V412.468M52.1094 412.468V420.953M52.1094 412.468H43.5912M52.1094 412.468H60.6276M179.883 403.983V412.468M179.883 412.468V420.953M179.883 412.468H171.365M179.883 412.468H188.401M179.883 362.769V371.254M179.883 371.254V379.739M179.883 371.254H171.365M179.883 371.254H188.401M179.883 321.555V330.041M179.883 330.041V338.526M179.883 330.041H171.365M179.883 330.041H188.401M179.883 445.197V453.682M179.883 453.682V462.167M179.883 453.682H171.365M179.883 453.682H188.401M52.1094 362.769V371.254M52.1094 371.254V379.739M52.1094 371.254H43.5912M52.1094 371.254H60.6276M94.7005 362.769V371.254M94.7005 371.254V379.739M94.7005 371.254H86.1822M94.7005 371.254H103.219M94.7005 321.555V330.041M94.7005 330.041V338.526M94.7005 330.041H86.1822M94.7005 330.041H103.219M94.7005 445.197V453.682M94.7005 453.682V462.167M94.7005 453.682H86.1822M94.7005 453.682H103.219M94.7005 403.983V412.468M94.7005 412.468V420.953M94.7005 412.468H86.1822M94.7005 412.468H103.219M222.474 403.983V412.468M222.474 412.468V420.953M222.474 412.468H213.956M222.474 412.468H230.992M222.474 362.769V371.254M222.474 371.254V379.739M222.474 371.254H213.956M222.474 371.254H230.992M222.474 321.555V330.041M222.474 330.041V338.526M222.474 330.041H213.956M222.474 330.041H230.992M222.474 445.197V453.682M222.474 453.682V462.167M222.474 453.682H213.956M222.474 453.682H230.992M9.5182 362.769V371.254M9.5182 371.254V379.739M9.5182 371.254H1.00002M9.5182 371.254H18.0365M9.5182 321.555V330.041M9.5182 330.041V338.526M9.5182 330.041H1.00002M9.5182 330.041H18.0365M9.5182 445.197V453.682M9.5182 453.682V462.167M9.5182 453.682H1.00002M9.5182 453.682H18.0365M9.5182 403.983V412.468M9.5182 412.468V420.953M9.5182 412.468H1.00002M9.5182 412.468H18.0365M137.292 403.983V412.468M137.292 412.468V420.953M137.292 412.468H128.773M137.292 412.468H145.81M137.292 362.769V371.254M137.292 371.254V379.739M137.292 371.254H128.773M137.292 371.254H145.81M137.292 321.555V330.041M137.292 330.041V338.526M137.292 330.041H128.773M137.292 330.041H145.81M137.292 445.197V453.682M137.292 453.682V462.167M137.292 453.682H128.773M137.292 453.682H145.81M52.1094 481.833V490.318M52.1094 490.318V498.803M52.1094 490.318H43.5912M52.1094 490.318H60.6276M52.1094 605.474V613.96M52.1094 613.96V622.445M52.1094 613.96H43.5912M52.1094 613.96H60.6276M52.1094 564.261V572.746M52.1094 572.746V581.231M52.1094 572.746H43.5912M52.1094 572.746H60.6276M179.883 564.261V572.746M179.883 572.746V581.231M179.883 572.746H171.365M179.883 572.746H188.401M179.883 523.047V531.532M179.883 531.532V540.017M179.883 531.532H171.365M179.883 531.532H188.401M179.883 481.833V490.318M179.883 490.318V498.803M179.883 490.318H171.365M179.883 490.318H188.401M179.883 605.474V613.96M179.883 613.96V622.445M179.883 613.96H171.365M179.883 613.96H188.401M52.1094 523.047V531.532M52.1094 531.532V540.017M52.1094 531.532H43.5912M52.1094 531.532H60.6276M94.7005 523.047V531.532M94.7005 531.532V540.017M94.7005 531.532H86.1822M94.7005 531.532H103.219M94.7005 481.833V490.318M94.7005 490.318V498.803M94.7005 490.318H86.1822M94.7005 490.318H103.219M94.7005 605.474V613.96M94.7005 613.96V622.445M94.7005 613.96H86.1822M94.7005 613.96H103.219M94.7005 564.261V572.746M94.7005 572.746V581.231M94.7005 572.746H86.1822M94.7005 572.746H103.219M222.474 564.261V572.746M222.474 572.746V581.231M222.474 572.746H213.956M222.474 572.746H230.992M222.474 523.047V531.532M222.474 531.532V540.017M222.474 531.532H213.956M222.474 531.532H230.992M222.474 481.833V490.318M222.474 490.318V498.803M222.474 490.318H213.956M222.474 490.318H230.992M222.474 605.474V613.96M222.474 613.96V622.445M222.474 613.96H213.956M222.474 613.96H230.992M9.5182 523.047V531.532M9.5182 531.532V540.017M9.5182 531.532H1.00002M9.5182 531.532H18.0365M9.5182 481.833V490.318M9.5182 490.318V498.803M9.5182 490.318H1.00002M9.5182 490.318H18.0365M9.5182 605.474V613.96M9.5182 613.96V622.445M9.5182 613.96H1.00002M9.5182 613.96H18.0365M9.5182 564.261V572.746M9.5182 572.746V581.231M9.5182 572.746H1.00002M9.5182 572.746H18.0365M137.292 564.261V572.746M137.292 572.746V581.231M137.292 572.746H128.773M137.292 572.746H145.81M137.292 523.047V531.532M137.292 531.532V540.017M137.292 531.532H128.773M137.292 531.532H145.81M137.292 481.833V490.318M137.292 490.318V498.803M137.292 490.318H128.773M137.292 490.318H145.81M137.292 605.474V613.96M137.292 613.96V622.445M137.292 613.96H128.773M137.292 613.96H145.81M52.1094 642.111V650.596M52.1094 650.596V659.081M52.1094 650.596H43.5912M52.1094 650.596H60.6276M52.1094 765.752V774.237M52.1094 774.237V782.722M52.1094 774.237H43.5912M52.1094 774.237H60.6276M52.1094 724.538V733.023M52.1094 733.023V741.509M52.1094 733.023H43.5912M52.1094 733.023H60.6276M179.883 724.538V733.023M179.883 733.023V741.509M179.883 733.023H171.365M179.883 733.023H188.401M179.883 683.324V691.81M179.883 691.81V700.295M179.883 691.81H171.365M179.883 691.81H188.401M179.883 642.111V650.596M179.883 650.596V659.081M179.883 650.596H171.365M179.883 650.596H188.401M179.883 765.752V774.237M179.883 774.237V782.722M179.883 774.237H171.365M179.883 774.237H188.401M52.1094 683.324V691.81M52.1094 691.81V700.295M52.1094 691.81H43.5912M52.1094 691.81H60.6276M94.7005 683.324V691.81M94.7005 691.81V700.295M94.7005 691.81H86.1822M94.7005 691.81H103.219M94.7005 642.111V650.596M94.7005 650.596V659.081M94.7005 650.596H86.1822M94.7005 650.596H103.219M94.7005 765.752V774.237M94.7005 774.237V782.722M94.7005 774.237H86.1822M94.7005 774.237H103.219M94.7005 724.538V733.023M94.7005 733.023V741.509M94.7005 733.023H86.1822M94.7005 733.023H103.219M222.474 724.538V733.023M222.474 733.023V741.509M222.474 733.023H213.956M222.474 733.023H230.992M222.474 683.324V691.81M222.474 691.81V700.295M222.474 691.81H213.956M222.474 691.81H230.992M222.474 642.111V650.596M222.474 650.596V659.081M222.474 650.596H213.956M222.474 650.596H230.992M222.474 765.752V774.237M222.474 774.237V782.722M222.474 774.237H213.956M222.474 774.237H230.992M9.5182 683.324V691.81M9.5182 691.81V700.295M9.5182 691.81H1.00002M9.5182 691.81H18.0365M9.5182 642.111V650.596M9.5182 650.596V659.081M9.5182 650.596H1.00002M9.5182 650.596H18.0365M9.5182 765.752V774.237M9.5182 774.237V782.722M9.5182 774.237H1.00002M9.5182 774.237H18.0365M9.5182 724.538V733.023M9.5182 733.023V741.509M9.5182 733.023H1.00002M9.5182 733.023H18.0365M137.292 724.538V733.023M137.292 733.023V741.509M137.292 733.023H128.773M137.292 733.023H145.81M137.292 683.324V691.81M137.292 691.81V700.295M137.292 691.81H128.773M137.292 691.81H145.81M137.292 642.111V650.596M137.292 650.596V659.081M137.292 650.596H128.773M137.292 650.596H145.81M137.292 765.752V774.237M137.292 774.237V782.722M137.292 774.237H128.773M137.292 774.237H145.81M52.1094 802.388V810.873M52.1094 810.873V819.359M52.1094 810.873H43.5912M52.1094 810.873H60.6276M52.1094 926.03V934.515M52.1094 934.515V943M52.1094 934.515H43.5912M52.1094 934.515H60.6276M52.1094 884.816V893.301M52.1094 893.301V901.786M52.1094 893.301H43.5912M52.1094 893.301H60.6276M179.883 884.816V893.301M179.883 893.301V901.786M179.883 893.301H171.365M179.883 893.301H188.401M179.883 843.602V852.087M179.883 852.087V860.572M179.883 852.087H171.365M179.883 852.087H188.401M179.883 802.388V810.873M179.883 810.873V819.359M179.883 810.873H171.365M179.883 810.873H188.401M179.883 926.03V934.515M179.883 934.515V943M179.883 934.515H171.365M179.883 934.515H188.401M52.1094 843.602V852.087M52.1094 852.087V860.572M52.1094 852.087H43.5912M52.1094 852.087H60.6276M94.7005 843.602V852.087M94.7005 852.087V860.572M94.7005 852.087H86.1822M94.7005 852.087H103.219M94.7005 802.388V810.873M94.7005 810.873V819.359M94.7005 810.873H86.1822M94.7005 810.873H103.219M94.7005 926.03V934.515M94.7005 934.515V943M94.7005 934.515H86.1822M94.7005 934.515H103.219M94.7005 884.816V893.301M94.7005 893.301V901.786M94.7005 893.301H86.1822M94.7005 893.301H103.219M222.474 884.816V893.301M222.474 893.301V901.786M222.474 893.301H213.956M222.474 893.301H230.992M222.474 843.602V852.087M222.474 852.087V860.572M222.474 852.087H213.956M222.474 852.087H230.992M222.474 802.388V810.873M222.474 810.873V819.359M222.474 810.873H213.956M222.474 810.873H230.992M222.474 926.03V934.515M222.474 934.515V943M222.474 934.515H213.956M222.474 934.515H230.992M9.5182 843.602V852.087M9.5182 852.087V860.572M9.5182 852.087H1.00002M9.5182 852.087H18.0365M9.5182 802.388V810.873M9.5182 810.873V819.359M9.5182 810.873H1.00002M9.5182 810.873H18.0365M9.5182 926.03V934.515M9.5182 934.515V943M9.5182 934.515H1.00002M9.5182 934.515H18.0365M9.5182 884.816V893.301M9.5182 893.301V901.786M9.5182 893.301H1.00002M9.5182 893.301H18.0365M137.292 884.816V893.301M137.292 893.301V901.786M137.292 893.301H128.773M137.292 893.301H145.81M137.292 843.602V852.087M137.292 852.087V860.572M137.292 852.087H128.773M137.292 852.087H145.81M137.292 802.388V810.873M137.292 810.873V819.359M137.292 810.873H128.773M137.292 810.873H145.81M137.292 926.03V934.515M137.292 934.515V943M137.292 934.515H128.773M137.292 934.515H145.81" stroke="url(#paint0_linear_6_586)" stroke-opacity="0.8" stroke-width="2" stroke-linecap="round" stroke-linejoin="round"/>
<defs>
<linearGradient id="paint0_linear_6_586" x1="1493" y1="1" x2="717.735" y2="674.195" gradientUnits="userSpaceOnUse">
<stop stop-color="#3A00FF" stop-opacity="0.72"/>
<stop offset="1" stop-color="#3A00FF" stop-opacity="0"/>
</linearGradient>
</defs>
</svg>
