<svg width="458" height="459" viewBox="0 0 458 459" fill="none" xmlns="http://www.w3.org/2000/svg">
<path d="M-0.562047 194.125L-7.42843 200.991M-7.42843 200.991L-14.2948 207.858M-7.42843 200.991L-14.2948 194.125M-7.42843 200.991L-0.56205 207.858M21.018 172.545L14.1516 179.411M14.1516 179.411L7.28525 186.278M14.1516 179.411L7.28525 172.545M14.1516 179.411L21.018 186.278M-5.4666 146.06L-12.333 152.927M-12.333 152.927L-19.1994 159.793M-12.333 152.927L-19.1994 146.06M-12.333 152.927L-5.4666 159.793M42.5981 150.965L35.7317 157.831M35.7317 157.831L28.8653 164.698M35.7317 157.831L28.8653 150.965M35.7317 157.831L42.5981 164.698M16.1135 124.48L9.24708 131.347M9.24708 131.347L2.3807 138.213M9.24708 131.347L2.3807 124.48M9.24708 131.347L16.1135 138.213M-10.3711 97.9957L-17.2375 104.862M-17.2375 104.862L-24.1039 111.728M-17.2375 104.862L-24.1039 97.9957M-17.2375 104.862L-10.3712 111.729M64.1781 129.385L57.3118 136.251M57.3118 136.251L50.4454 143.118M57.3118 136.251L50.4454 129.385M57.3118 136.251L64.1781 143.118M37.6935 102.9L30.8271 109.767M30.8271 109.767L23.9608 116.633M30.8271 109.767L23.9608 102.9M30.8271 109.767L37.6935 116.633M11.2089 76.4157L4.34253 83.2821M4.34253 83.2821L-2.52385 90.1484M4.34253 83.2821L-2.52385 76.4157M4.34253 83.2821L11.2089 90.1484M-15.2757 49.9311L-22.1421 56.7974M-22.1421 56.7974L-29.0085 63.6638M-22.1421 56.7974L-29.0085 49.9311M-22.1421 56.7974L-15.2757 63.6638M85.7582 107.805L78.8918 114.671M78.8918 114.671L72.0254 121.538M78.8918 114.671L72.0254 107.805M78.8918 114.671L85.7582 121.538M59.2736 81.3202L52.4072 88.1866M52.4072 88.1866L45.5408 95.053M52.4072 88.1866L45.5408 81.3202M52.4072 88.1866L59.2736 95.053M32.789 54.8356L25.9226 61.702M25.9226 61.702L19.0562 68.5684M25.9226 61.702L19.0562 54.8356M25.9226 61.702L32.789 68.5684M6.30436 28.351L-0.562021 35.2174M-0.562021 35.2174L-7.4284 42.0838M-0.562021 35.2174L-7.4284 28.351M-0.562021 35.2174L6.30436 42.0838M-20.1802 1.86638L-27.0466 8.73276M-27.0466 8.73276L-33.913 15.5991M-27.0466 8.73276L-33.913 1.86638M-27.0466 8.73276L-20.1803 15.5991M25.9226 220.61L19.0562 227.476M19.0562 227.476L12.1898 234.342M19.0562 227.476L12.1898 220.61M19.0562 227.476L25.9226 234.342M47.5026 199.03L40.6362 205.896M40.6362 205.896L33.7699 212.762M40.6362 205.896L33.7699 199.03M40.6362 205.896L47.5026 212.762M69.0827 177.45L62.2163 184.316M62.2163 184.316L55.3499 191.182M62.2163 184.316L55.3499 177.45M62.2163 184.316L69.0827 191.182M90.6628 155.87L83.7964 162.736M83.7964 162.736L76.93 169.602M83.7964 162.736L76.93 155.87M83.7964 162.736L90.6627 169.602M112.243 134.289L105.376 141.156M105.376 141.156L98.51 148.022M105.376 141.156L98.51 134.289M105.376 141.156L112.243 148.022M4.3425 242.19L-2.52388 249.056M-2.52388 249.056L-9.39026 255.923M-2.52388 249.056L-9.39026 242.19M-2.52388 249.056L4.3425 255.923M52.4072 247.094L45.5408 253.961M45.5408 253.961L38.6744 260.827M45.5408 253.961L38.6744 247.094M45.5408 253.961L52.4072 260.827M73.9872 225.514L67.1209 232.381M67.1209 232.381L60.2545 239.247M67.1209 232.381L60.2545 225.514M67.1209 232.381L73.9872 239.247M95.5673 203.934L88.7009 210.801M88.7009 210.801L81.8345 217.667M88.7009 210.801L81.8345 203.934M88.7009 210.801L95.5673 217.667M117.147 182.354L110.281 189.221M110.281 189.221L103.415 196.087M110.281 189.221L103.415 182.354M110.281 189.221L117.147 196.087M138.727 160.774L131.861 167.64M131.861 167.64L124.995 174.507M131.861 167.64L124.995 160.774M131.861 167.64L138.727 174.507M30.8271 268.674L23.9607 275.541M23.9607 275.541L17.0943 282.407M23.9607 275.541L17.0944 268.674M23.9607 275.541L30.8271 282.407M9.24705 290.254L2.38067 297.121M2.38067 297.121L-4.48571 303.987M2.38067 297.121L-4.48571 290.254M2.38067 297.121L9.24705 303.987M78.8918 273.579L72.0254 280.445M72.0254 280.445L65.159 287.312M72.0254 280.445L65.159 273.579M72.0254 280.445L78.8918 287.312M100.472 251.999L93.6055 258.865M93.6055 258.865L86.7391 265.732M93.6055 258.865L86.7391 251.999M93.6055 258.865L100.472 265.732M122.052 230.419L115.186 237.285M115.186 237.285L108.319 244.152M115.186 237.285L108.319 230.419M115.186 237.285L122.052 244.152M143.632 208.839L136.766 215.705M136.766 215.705L129.899 222.572M136.766 215.705L129.899 208.839M136.766 215.705L143.632 222.572M165.212 187.259L158.346 194.125M158.346 194.125L151.479 200.991M158.346 194.125L151.479 187.259M158.346 194.125L165.212 200.991M57.3117 295.159L50.4453 302.025M50.4453 302.025L43.579 308.892M50.4453 302.025L43.579 295.159M50.4453 302.025L57.3117 308.892M35.7317 316.739L28.8653 323.605M28.8653 323.605L21.9989 330.472M28.8653 323.605L21.9989 316.739M28.8653 323.605L35.7317 330.472M14.1516 338.319L7.28522 345.185M7.28522 345.185L0.418838 352.052M7.28522 345.185L0.41884 338.319M7.28522 345.185L14.1516 352.052M105.376 300.064L98.51 306.93M98.51 306.93L91.6436 313.796M98.51 306.93L91.6436 300.064M98.51 306.93L105.376 313.796M126.956 278.484L120.09 285.35M120.09 285.35L113.224 292.216M120.09 285.35L113.224 278.484M120.09 285.35L126.956 292.216M148.537 256.903L141.67 263.77M141.67 263.77L134.804 270.636M141.67 263.77L134.804 256.903M141.67 263.77L148.537 270.636M170.117 235.323L163.25 242.19M163.25 242.19L156.384 249.056M163.25 242.19L156.384 235.323M163.25 242.19L170.117 249.056M191.697 213.743L184.83 220.61M184.83 220.61L177.964 227.476M184.83 220.61L177.964 213.743M184.83 220.61L191.697 227.476M83.7963 321.644L76.93 328.51M76.93 328.51L70.0636 335.376M76.93 328.51L70.0636 321.644M76.93 328.51L83.7963 335.376M62.2163 343.224L55.3499 350.09M55.3499 350.09L48.4835 356.956M55.3499 350.09L48.4835 343.224M55.3499 350.09L62.2163 356.956M40.6362 364.804L33.7698 371.67M33.7698 371.67L26.9035 378.537M33.7698 371.67L26.9035 364.804M33.7698 371.67L40.6362 378.537M19.0562 386.384L12.1898 393.25M12.1898 393.25L5.32339 400.117M12.1898 393.25L5.32339 386.384M12.1898 393.25L19.0562 400.117M131.861 326.548L124.995 333.415M124.995 333.415L118.128 340.281M124.995 333.415L118.128 326.548M124.995 333.415L131.861 340.281M153.441 304.968L146.575 311.835M146.575 311.835L139.708 318.701M146.575 311.835L139.708 304.968M146.575 311.835L153.441 318.701M175.021 283.388L168.155 290.254M168.155 290.254L161.288 297.121M168.155 290.254L161.288 283.388M168.155 290.254L175.021 297.121M196.601 261.808L189.735 268.674M189.735 268.674L182.868 275.541M189.735 268.674L182.868 261.808M189.735 268.674L196.601 275.541M218.181 240.228L211.315 247.094M211.315 247.094L204.448 253.961M211.315 247.094L204.448 240.228M211.315 247.094L218.181 253.961M110.281 348.128L103.415 354.995M103.415 354.995L96.5482 361.861M103.415 354.995L96.5482 348.128M103.415 354.995L110.281 361.861M88.7009 369.708L81.8345 376.575M81.8345 376.575L74.9681 383.441M81.8345 376.575L74.9681 369.708M81.8345 376.575L88.7009 383.441M67.1208 391.288L60.2544 398.155M60.2544 398.155L53.3881 405.021M60.2544 398.155L53.3881 391.288M60.2544 398.155L67.1208 405.021M45.5408 412.868L38.6744 419.735M38.6744 419.735L31.808 426.601M38.6744 419.735L31.808 412.868M38.6744 419.735L45.5408 426.601M23.9607 434.448L17.0943 441.315M17.0943 441.315L10.2279 448.181M17.0943 441.315L10.2279 434.448M17.0943 441.315L23.9607 448.181M158.346 353.033L151.479 359.899M151.479 359.899L144.613 366.766M151.479 359.899L144.613 353.033M151.479 359.899L158.346 366.766M179.926 331.453L173.059 338.319M173.059 338.319L166.193 345.186M173.059 338.319L166.193 331.453M173.059 338.319L179.926 345.186M201.506 309.873L194.639 316.739M194.639 316.739L187.773 323.605M194.639 316.739L187.773 309.873M194.639 316.739L201.506 323.605M223.086 288.293L216.219 295.159M216.219 295.159L209.353 302.025M216.219 295.159L209.353 288.293M216.219 295.159L223.086 302.025M244.666 266.713L237.799 273.579M237.799 273.579L230.933 280.445M237.799 273.579L230.933 266.713M237.799 273.579L244.666 280.445M136.766 374.613L129.899 381.479M129.899 381.479L123.033 388.346M129.899 381.479L123.033 374.613M129.899 381.479L136.766 388.346M115.186 396.193L108.319 403.059M108.319 403.059L101.453 409.926M108.319 403.059L101.453 396.193M108.319 403.059L115.186 409.926M93.6054 417.773L86.7391 424.639M86.7391 424.639L79.8727 431.506M86.7391 424.639L79.8727 417.773M86.7391 424.639L93.6054 431.506M72.0254 439.353L65.159 446.219M65.159 446.219L58.2926 453.086M65.159 446.219L58.2926 439.353M65.159 446.219L72.0254 453.086M184.83 379.517L177.964 386.384M177.964 386.384L171.097 393.25M177.964 386.384L171.097 379.517M177.964 386.384L184.83 393.25M206.41 357.937L199.544 364.804M199.544 364.804L192.678 371.67M199.544 364.804L192.678 357.937M199.544 364.804L206.41 371.67M227.99 336.357L221.124 343.224M221.124 343.224L214.258 350.09M221.124 343.224L214.258 336.357M221.124 343.224L227.99 350.09M249.57 314.777L242.704 321.644M242.704 321.644L235.838 328.51M242.704 321.644L235.838 314.777M242.704 321.644L249.57 328.51M271.15 293.197L264.284 300.064M264.284 300.064L257.418 306.93M264.284 300.064L257.418 293.197M264.284 300.064L271.15 306.93M163.25 401.097L156.384 407.964M156.384 407.964L149.517 414.83M156.384 407.964L149.517 401.097M156.384 407.964L163.25 414.83M141.67 422.678L134.804 429.544M134.804 429.544L127.937 436.41M134.804 429.544L127.937 422.678M134.804 429.544L141.67 436.41M120.09 444.258L113.224 451.124M113.224 451.124L106.357 457.99M113.224 451.124L106.357 444.258M113.224 451.124L120.09 457.99M211.315 406.002L204.448 412.868M204.448 412.868L197.582 419.735M204.448 412.868L197.582 406.002M204.448 412.868L211.315 419.735M232.895 384.422L226.029 391.288M226.029 391.288L219.162 398.155M226.029 391.288L219.162 384.422M226.029 391.288L232.895 398.155M254.475 362.842L247.609 369.708M247.609 369.708L240.742 376.575M247.609 369.708L240.742 362.842M247.609 369.708L254.475 376.575M276.055 341.262L269.189 348.128M269.189 348.128L262.322 354.995M269.189 348.128L262.322 341.262M269.189 348.128L276.055 354.995M297.635 319.682L290.769 326.548M290.769 326.548L283.902 333.415M290.769 326.548L283.902 319.682M290.769 326.548L297.635 333.415M189.735 427.582L182.868 434.448M182.868 434.448L176.002 441.315M182.868 434.448L176.002 427.582M182.868 434.448L189.735 441.315M168.155 449.162L161.288 456.029M161.288 456.029L154.422 462.895M161.288 456.029L154.422 449.162M161.288 456.029L168.155 462.895M237.799 432.487L230.933 439.353M230.933 439.353L224.067 446.219M230.933 439.353L224.067 432.487M230.933 439.353L237.799 446.219M259.38 410.907L252.513 417.773M252.513 417.773L245.647 424.639M252.513 417.773L245.647 410.907M252.513 417.773L259.38 424.639M280.96 389.327L274.093 396.193M274.093 396.193L267.227 403.059M274.093 396.193L267.227 389.327M274.093 396.193L280.96 403.059M302.54 367.747L295.673 374.613M295.673 374.613L288.807 381.479M295.673 374.613L288.807 367.747M295.673 374.613L302.54 381.479M324.12 346.166L317.253 353.033M317.253 353.033L310.387 359.899M317.253 353.033L310.387 346.166M317.253 353.033L324.12 359.899M216.219 454.067L209.353 460.933M209.353 460.933L202.487 467.799M209.353 460.933L202.487 454.067M209.353 460.933L216.219 467.8M264.284 458.971L257.418 465.838M257.418 465.838L250.551 472.704M257.418 465.838L250.551 458.971M257.418 465.838L264.284 472.704M285.864 437.391L278.998 444.258M278.998 444.258L272.131 451.124M278.998 444.258L272.131 437.391M278.998 444.258L285.864 451.124M312.349 463.876L305.482 470.742M305.482 470.742L298.616 477.609M305.482 470.742L298.616 463.876M305.482 470.742L312.349 477.609M307.444 415.811L300.578 422.678M300.578 422.678L293.711 429.544M300.578 422.678L293.711 415.811M300.578 422.678L307.444 429.544M333.929 442.296L327.062 449.162M327.062 449.162L320.196 456.029M327.062 449.162L320.196 442.296M327.062 449.162L333.929 456.029M360.413 468.78L353.547 475.647M353.547 475.647L346.681 482.513M353.547 475.647L346.681 468.78M353.547 475.647L360.413 482.513M329.024 394.231L322.158 401.098M322.158 401.098L315.291 407.964M322.158 401.098L315.292 394.231M322.158 401.098L329.024 407.964M355.509 420.716L348.642 427.582M348.642 427.582L341.776 434.449M348.642 427.582L341.776 420.716M348.642 427.582L355.509 434.449M381.993 447.2L375.127 454.067M375.127 454.067L368.261 460.933M375.127 454.067L368.261 447.2M375.127 454.067L381.993 460.933M408.478 473.685L401.612 480.551M401.612 480.551L394.745 487.418M401.612 480.551L394.745 473.685M401.612 480.551L408.478 487.418M350.604 372.651L343.738 379.517M343.738 379.517L336.872 386.384M343.738 379.517L336.872 372.651M343.738 379.517L350.604 386.384M377.089 399.136L370.223 406.002M370.223 406.002L363.356 412.868M370.223 406.002L363.356 399.136M370.223 406.002L377.089 412.868M403.574 425.62L396.707 432.487M396.707 432.487L389.841 439.353M396.707 432.487L389.841 425.62M396.707 432.487L403.574 439.353M430.058 452.105L423.192 458.971M423.192 458.971L416.325 465.838M423.192 458.971L416.325 452.105M423.192 458.971L430.058 465.838M456.543 478.59L449.676 485.456M449.676 485.456L442.81 492.322M449.676 485.456L442.81 478.59M449.676 485.456L456.543 492.322" stroke="url(#paint0_linear_6_690)" stroke-width="2" stroke-linecap="round" stroke-linejoin="round"/>
<defs>
<linearGradient id="paint0_linear_6_690" x1="42.1076" y1="416.302" x2="202.487" y2="255.923" gradientUnits="userSpaceOnUse">
<stop stop-color="#25DD1F"/>
<stop offset="0.442708" stop-color="#6031FF" stop-opacity="0.38"/>
<stop offset="0.994792" stop-color="#6031FF" stop-opacity="0"/>
</linearGradient>
</defs>
</svg>
