<svg width="224" height="217" viewBox="0 0 224 217" fill="none" xmlns="http://www.w3.org/2000/svg">
<g id="Base nome">
<g id="bordas">
<g id="Vector">
<path d="M22.5158 115.96C10.0389 145.488 23.883 168.951 33.242 179.737L13.529 182.346C-3.75843 158.374 -3.55396 123.189 10.9199 97.9864C26.5276 70.8092 80.9809 40.7064 125.429 78.5633C168.992 115.666 154.007 162.594 142.823 179.737C113.215 225.427 66.1294 218.838 46.5773 209.887L45.9975 190.174C74.9872 206.408 108.035 198.001 125.429 174.229C142.823 150.458 140.504 113.641 113.833 92.1885C87.1629 70.7361 38.3566 78.4711 22.5158 115.96Z" fill="url(#paint0_linear_174_150)"/>
<path d="M20.7764 205.248C11.2678 197.131 11.9829 186.018 13.529 181.477L33.242 179.737C31.3094 182.733 28.6037 189.536 33.242 192.783C37.8804 196.03 43.6783 192.396 45.9975 190.174L47.447 209.597C42.5187 211.529 30.2851 213.365 20.7764 205.248Z" fill="url(#paint1_linear_174_150)"/>
</g>
<path id="Frame 1 (Traced)" fill-rule="evenodd" clip-rule="evenodd" d="M167.577 1.87609C156.179 5.00615 148.845 8.88613 142.28 15.2576C137.482 19.916 135.271 23.1798 133.251 28.5877C129.931 37.4811 129.9 45.8149 133.152 55.768L134.535 59.9978L139.972 59.7156C158.808 58.7368 171.844 48.3802 175.876 31.1929C177.157 25.7322 177.384 16.7284 176.395 10.6163C175.28 3.72234 174.386 0.644142 173.472 0.542313C173.065 0.497108 170.412 1.09714 167.577 1.87609ZM166.594 14.0147C167.229 17.1391 166.439 27.4871 165.28 31.2338C162.887 38.9653 158.297 44.4959 151.855 47.4114C147.793 49.2491 142.852 50.3183 142.01 49.5412C141.006 48.6143 140.834 39.5743 141.744 35.5978C143.8 26.6177 150.259 19.2561 160.049 14.7313C162.965 13.3842 165.551 12.2817 165.796 12.2817C166.042 12.2817 166.4 13.0616 166.594 14.0147ZM177.014 51.3175C166.89 53.6158 157.508 59.5571 150.792 67.9243L148.334 70.9872L150.578 73.6786C154.247 78.0801 160.184 82.868 164.592 84.9788C170.805 87.9537 173.821 88.6237 180.98 88.6175C188.596 88.6113 191.617 87.898 200.053 84.1128C207.578 80.7367 213.734 76.5179 219.594 70.7203L224 66.3616L221.876 64.66C215.021 59.1703 207.171 54.6698 200.999 52.6927C193.165 50.1827 184.264 49.6726 177.014 51.3175ZM194.624 60.8448C200.282 62.2923 208.85 66.4344 208.454 67.5308C208.17 68.3178 200.101 73.6438 196.703 75.2874C189.679 78.6839 181.83 80.081 176.119 78.9504C172.04 78.1429 167.441 75.944 164.226 73.2632L161.391 70.8992L163.195 69.151C167.166 65.3034 173.628 61.8197 179.038 60.6097C183.57 59.5962 190.129 59.6951 194.624 60.8448Z" fill="url(#paint2_linear_174_150)"/>
</g>
</g>
<defs>
<linearGradient id="paint0_linear_174_150" x1="77.4815" y1="60.7312" x2="77.4815" y2="216.329" gradientUnits="userSpaceOnUse">
<stop stop-color="#25DD1F"/>
<stop offset="1" stop-color="#1CCE16"/>
</linearGradient>
<linearGradient id="paint1_linear_174_150" x1="77.4815" y1="60.7312" x2="77.4815" y2="216.329" gradientUnits="userSpaceOnUse">
<stop stop-color="#25DD1F"/>
<stop offset="1" stop-color="#1CCE16"/>
</linearGradient>
<linearGradient id="paint2_linear_174_150" x1="177.368" y1="0.539917" x2="177.368" y2="88.6175" gradientUnits="userSpaceOnUse">
<stop stop-color="#25DD1F"/>
<stop offset="1" stop-color="#1CCE16"/>
</linearGradient>
</defs>
</svg>
