<svg width="225" height="219" viewBox="0 0 225 219" fill="none" xmlns="http://www.w3.org/2000/svg">
<g id="Base nome">
<g id="bordas">
<path id="Vector" d="M126.429 79.5633C169.992 116.666 155.007 163.594 143.823 180.737C114.231 226.404 67.1775 219.845 47.6073 210.9C42.2353 212.695 30.7833 213.937 21.7764 206.248C12.6667 198.472 12.9409 187.946 14.3395 183.082C-2.75674 159.116 -2.50088 124.097 11.9199 98.9864C27.5276 71.8092 81.9809 41.7064 126.429 79.5633Z" stroke="url(#paint0_linear_174_135)" stroke-opacity="0.7" stroke-width="2"/>
<path id="Frame 1 (Traced)" d="M195.871 59.4864L195.872 59.4864C198.783 60.2312 202.404 61.6563 205.244 63.0295C206.664 63.7158 207.923 64.4055 208.816 65.009C209.256 65.3063 209.652 65.6125 209.935 65.9141C210.075 66.063 210.228 66.253 210.333 66.4787C210.438 66.7041 210.542 67.0725 210.395 67.4806C210.395 67.4807 210.395 67.4808 210.395 67.4808L209.454 67.1412C209.17 67.9282 201.101 73.2543 197.703 74.8978L195.871 59.4864ZM195.871 59.4864C191.224 58.2977 184.506 58.1963 179.82 59.2442L180.038 60.2201L195.871 59.4864ZM168.842 2.4508L168.842 2.45077C170.248 2.06457 171.605 1.7237 172.656 1.48591C173.183 1.36676 173.624 1.2754 173.952 1.21717C174.055 1.19897 174.143 1.1847 174.216 1.17401C174.236 1.2045 174.259 1.24225 174.285 1.28862C174.459 1.60002 174.666 2.12402 174.898 2.92137C175.357 4.50337 175.851 6.94582 176.408 10.3864C177.379 16.383 177.151 25.2541 175.903 30.5749C173.933 38.9713 169.778 45.6534 163.853 50.3599C157.925 55.0695 150.166 57.8469 140.921 58.3273C140.921 58.3273 140.921 58.3274 140.921 58.3274L136.247 58.5698L135.103 55.0679L134.155 55.3775L135.103 55.0679C131.913 45.3065 131.955 37.207 135.188 28.5479L135.188 28.5479C137.148 23.2993 139.268 20.1571 143.977 15.5855C150.39 9.3607 157.56 5.54893 168.842 2.4508ZM174.135 1.06566C174.13 1.06192 174.128 1.05962 174.128 1.0594C174.128 1.05919 174.131 1.06106 174.135 1.06566ZM168.574 13.4261L168.574 13.4258C168.466 12.8921 168.307 12.3823 168.123 11.983C168.033 11.7884 167.919 11.5785 167.775 11.4001C167.702 11.3108 167.599 11.1995 167.46 11.1039C167.323 11.0096 167.095 10.8921 166.796 10.8921C166.648 10.8921 166.52 10.9247 166.48 10.935L166.477 10.9356C166.413 10.9518 166.348 10.972 166.287 10.992C166.163 11.0325 166.013 11.0877 165.845 11.1525C165.507 11.2829 165.058 11.4679 164.532 11.6919C163.479 12.1406 162.095 12.7573 160.63 13.4339L160.63 13.434C150.612 18.0636 143.907 25.6494 141.769 34.985C141.287 37.0924 141.104 40.4426 141.159 43.3426C141.187 44.802 141.276 46.1853 141.426 47.2775C141.501 47.8211 141.595 48.3182 141.712 48.7264C141.771 48.9305 141.842 49.1324 141.929 49.3157C142.011 49.4879 142.136 49.7058 142.332 49.8864C142.641 50.1717 143.03 50.2868 143.326 50.3418C143.645 50.401 144 50.4157 144.363 50.4046C145.092 50.3824 145.98 50.2515 146.936 50.0446C148.854 49.6297 151.172 48.8806 153.267 47.9329L153.267 47.9328C160.009 44.8817 164.771 39.1009 167.235 31.1399L167.235 31.1399C167.85 29.1512 168.343 25.5307 168.607 22.0774C168.74 20.3356 168.817 18.6068 168.82 17.1088C168.822 15.6313 168.754 14.3128 168.574 13.4261ZM223.499 66.0507L219.891 69.6198C214.115 75.3332 208.059 79.4837 200.644 82.8108C196.435 84.6994 193.643 85.7904 190.979 86.4195C188.328 87.0457 185.758 87.2248 181.979 87.2279C178.426 87.231 175.967 87.0653 173.648 86.5503C171.331 86.0358 169.103 85.1615 166.024 83.6873C161.766 81.6483 155.938 76.9587 152.346 72.6487L152.346 72.6486L150.626 70.5856L152.572 68.1606C159.152 59.9633 168.339 54.1497 178.236 51.9032C185.293 50.3019 194.012 50.794 201.694 53.2554L201.694 53.2554C207.717 55.1846 215.46 59.6121 222.251 65.051L223.499 66.0507Z" stroke="url(#paint1_linear_174_135)" stroke-opacity="0.7" stroke-width="2"/>
</g>
</g>
<defs>
<linearGradient id="paint0_linear_174_135" x1="78.4815" y1="61.7312" x2="78.4815" y2="217.329" gradientUnits="userSpaceOnUse">
<stop stop-color="#6D52CC"/>
<stop offset="1" stop-color="#827B9F"/>
</linearGradient>
<linearGradient id="paint1_linear_174_135" x1="178.368" y1="0.15033" x2="178.368" y2="88.228" gradientUnits="userSpaceOnUse">
<stop stop-color="#6D52CC"/>
<stop offset="1" stop-color="#827B9F"/>
</linearGradient>
</defs>
</svg>
