<svg width="219" height="198" viewBox="0 0 219 198" fill="none" xmlns="http://www.w3.org/2000/svg">
<g id="CONX">
<mask id="path-1-inside-1_190_7" fill="white">
<path fill-rule="evenodd" clip-rule="evenodd" d="M20.2771 0.184388C10.078 0.237623 1.71048 0.300805 1.68271 0.324751C1.65495 0.348698 1.63205 3.50816 1.63205 7.34568C1.63205 13.3682 1.6742 14.3546 1.9405 14.5556C2.18917 14.7431 7.53704 14.7256 29.5134 14.465C44.5089 14.2872 56.8164 14.1767 56.8637 14.2196C56.9109 14.2625 44.5257 19.145 29.3414 25.0696L1.73338 35.8414L1.67988 41.8913C1.64178 46.2024 1.69264 48.0136 1.8568 48.1934C2.05055 48.4056 9.76796 48.4456 50.4854 48.4456C81.4418 48.4456 99.0713 48.3809 99.4039 48.266L99.9237 48.0864V40.9203C99.9237 34.8788 99.8775 33.7196 99.6293 33.5323C99.3992 33.3588 94.512 33.393 77.2856 33.689C65.1587 33.8972 53.6405 34.1105 51.6899 34.1628C49.142 34.2311 48.2288 34.2024 48.4473 34.0609C48.6145 33.9526 60.2423 28.9513 74.2868 22.9472L99.8224 12.0307V6.06141V0.0921019L69.3216 0.0898914C52.5461 0.088602 30.4761 0.131153 20.2771 0.184388ZM111.268 0.281279C111.055 0.515402 113.499 7.22779 125.875 40.3872C134.05 62.2911 140.728 80.3384 140.715 80.4928C140.702 80.6472 133.936 100.01 125.678 123.522C117.421 147.034 110.665 166.526 110.665 166.836C110.665 167.182 110.789 167.445 110.985 167.514C111.162 167.575 118.143 167.625 126.498 167.625H141.691L142.137 167.211C142.493 166.881 144.446 160.452 151.704 135.712C156.72 118.616 160.874 104.628 160.934 104.628C161.031 104.628 180.989 174.708 180.989 175.046C180.989 175.118 140.479 175.198 90.9672 175.224L0.945424 175.27L0.528748 175.915C0.124435 176.54 0.110451 176.851 0.0559351 186.322L0 196.085L0.461262 196.914L0.922726 197.743L109.433 197.789C206.036 197.83 217.996 197.805 218.412 197.556C218.67 197.403 218.934 197.084 218.999 196.848C219.077 196.566 212.561 176.396 200.122 138.411C189.674 106.508 181.125 80.3175 181.125 80.2104C181.124 80.1036 187.808 62.1629 195.978 40.3425C207.035 10.8111 210.782 0.595162 210.633 0.380381C210.454 0.123601 208.761 0.0869442 195.143 0.0449457C182.476 0.00571032 179.789 0.0408932 179.475 0.249412C179.194 0.436563 176.775 7.87876 170.032 29.3087C164.636 46.4562 160.912 57.992 160.83 57.8092C160.754 57.6403 156.733 44.7092 151.894 29.0734C144.856 6.33053 143.011 0.580242 142.666 0.322357C142.264 0.0215518 141.205 0 126.88 0C113.36 0 111.495 0.0335251 111.268 0.281279ZM46.218 58.3882C26.7603 58.4981 24.0547 58.5479 22.7141 58.8196C16.9745 59.9834 12.2362 62.3509 8.1122 66.1153C3.88323 69.9761 1.57429 73.8141 0.478083 78.8057C-0.0200637 81.0742 -0.0111465 86.095 0.494701 88.2238C1.67785 93.2032 4.08792 97.2657 8.04938 100.958C12.1722 104.801 16.5475 107.047 22.0516 108.147C23.974 108.531 24.6359 108.546 47.0286 108.714C72.9914 108.908 75.61 108.875 78.5808 108.324C87.2692 106.712 94.8241 101.423 98.7282 94.2202C100.525 90.9051 101.159 88.4847 101.29 84.4473C101.367 82.0619 101.312 80.8468 101.059 79.3986C99.2813 69.196 89.6313 60.5122 78.0361 58.6807C75.4408 58.2708 72.232 58.2414 46.218 58.3882ZM75.6949 74.1472C77.6447 74.6088 79.6128 75.6621 81.1871 77.0863C83.5102 79.1885 84.4761 81.4168 84.2621 84.1811C83.95 88.2121 80.8896 91.4773 76.1856 92.7974C75.2039 93.073 72.7824 93.1086 51.4069 93.1601C25.266 93.2233 25.6391 93.2373 22.9859 92.0942C21.351 91.3898 19.0739 89.4114 18.2065 87.9416C17.0555 85.9917 16.709 83.1838 17.3451 80.964C18.4012 77.2788 22.1083 74.5462 26.7126 74.0588C27.4645 73.9792 38.5255 73.9033 51.2926 73.8898C71.5231 73.8688 74.6585 73.9018 75.6949 74.1472ZM24.886 116.999C13.7057 118.054 3.61369 125.822 0.930022 135.437C-0.414649 140.256 -0.222119 145.542 1.45735 149.908C2.88552 153.62 5.21007 156.865 8.51915 159.766C12.4642 163.223 16.6008 165.262 21.8984 166.36C24.8068 166.963 31.168 167.091 54.9327 167.025C76.5625 166.965 77.1703 166.953 78.9481 166.58C84.7842 165.354 89.9758 162.71 93.9638 158.933C97.587 155.501 99.7825 151.753 100.883 147.122C101.407 144.916 101.394 138.657 100.862 136.587C99.654 131.89 97.3949 128.15 93.7425 124.798C89.0302 120.474 83.094 117.719 76.8951 116.977C75.8163 116.848 73.193 116.785 70.3349 116.82L65.5723 116.877V124.522V132.166L70.3349 132.275C75.5585 132.393 76.0011 132.472 78.6998 133.769C80.3313 134.552 82.6311 136.637 83.3325 137.969C85.7174 142.495 83.6142 147.978 78.6441 150.191C75.8042 151.455 76.8779 151.409 50.557 151.412C27.5967 151.415 26.7765 151.404 25.2644 151.052C21.0346 150.069 18.0107 147.506 17.2606 144.269C17.1362 143.732 17.0345 142.648 17.0345 141.861C17.0345 139.31 17.9918 137.23 19.984 135.453C21.4239 134.168 22.5692 133.506 24.5087 132.838C25.7601 132.406 26.1703 132.368 30.6129 132.271L35.3755 132.166V124.522V116.877L31.0182 116.854C28.6217 116.842 25.8623 116.907 24.886 116.999Z"/>
</mask>
<path fill-rule="evenodd" clip-rule="evenodd" d="M20.2771 0.184388C10.078 0.237623 1.71048 0.300805 1.68271 0.324751C1.65495 0.348698 1.63205 3.50816 1.63205 7.34568C1.63205 13.3682 1.6742 14.3546 1.9405 14.5556C2.18917 14.7431 7.53704 14.7256 29.5134 14.465C44.5089 14.2872 56.8164 14.1767 56.8637 14.2196C56.9109 14.2625 44.5257 19.145 29.3414 25.0696L1.73338 35.8414L1.67988 41.8913C1.64178 46.2024 1.69264 48.0136 1.8568 48.1934C2.05055 48.4056 9.76796 48.4456 50.4854 48.4456C81.4418 48.4456 99.0713 48.3809 99.4039 48.266L99.9237 48.0864V40.9203C99.9237 34.8788 99.8775 33.7196 99.6293 33.5323C99.3992 33.3588 94.512 33.393 77.2856 33.689C65.1587 33.8972 53.6405 34.1105 51.6899 34.1628C49.142 34.2311 48.2288 34.2024 48.4473 34.0609C48.6145 33.9526 60.2423 28.9513 74.2868 22.9472L99.8224 12.0307V6.06141V0.0921019L69.3216 0.0898914C52.5461 0.088602 30.4761 0.131153 20.2771 0.184388ZM111.268 0.281279C111.055 0.515402 113.499 7.22779 125.875 40.3872C134.05 62.2911 140.728 80.3384 140.715 80.4928C140.702 80.6472 133.936 100.01 125.678 123.522C117.421 147.034 110.665 166.526 110.665 166.836C110.665 167.182 110.789 167.445 110.985 167.514C111.162 167.575 118.143 167.625 126.498 167.625H141.691L142.137 167.211C142.493 166.881 144.446 160.452 151.704 135.712C156.72 118.616 160.874 104.628 160.934 104.628C161.031 104.628 180.989 174.708 180.989 175.046C180.989 175.118 140.479 175.198 90.9672 175.224L0.945424 175.27L0.528748 175.915C0.124435 176.54 0.110451 176.851 0.0559351 186.322L0 196.085L0.461262 196.914L0.922726 197.743L109.433 197.789C206.036 197.83 217.996 197.805 218.412 197.556C218.67 197.403 218.934 197.084 218.999 196.848C219.077 196.566 212.561 176.396 200.122 138.411C189.674 106.508 181.125 80.3175 181.125 80.2104C181.124 80.1036 187.808 62.1629 195.978 40.3425C207.035 10.8111 210.782 0.595162 210.633 0.380381C210.454 0.123601 208.761 0.0869442 195.143 0.0449457C182.476 0.00571032 179.789 0.0408932 179.475 0.249412C179.194 0.436563 176.775 7.87876 170.032 29.3087C164.636 46.4562 160.912 57.992 160.83 57.8092C160.754 57.6403 156.733 44.7092 151.894 29.0734C144.856 6.33053 143.011 0.580242 142.666 0.322357C142.264 0.0215518 141.205 0 126.88 0C113.36 0 111.495 0.0335251 111.268 0.281279ZM46.218 58.3882C26.7603 58.4981 24.0547 58.5479 22.7141 58.8196C16.9745 59.9834 12.2362 62.3509 8.1122 66.1153C3.88323 69.9761 1.57429 73.8141 0.478083 78.8057C-0.0200637 81.0742 -0.0111465 86.095 0.494701 88.2238C1.67785 93.2032 4.08792 97.2657 8.04938 100.958C12.1722 104.801 16.5475 107.047 22.0516 108.147C23.974 108.531 24.6359 108.546 47.0286 108.714C72.9914 108.908 75.61 108.875 78.5808 108.324C87.2692 106.712 94.8241 101.423 98.7282 94.2202C100.525 90.9051 101.159 88.4847 101.29 84.4473C101.367 82.0619 101.312 80.8468 101.059 79.3986C99.2813 69.196 89.6313 60.5122 78.0361 58.6807C75.4408 58.2708 72.232 58.2414 46.218 58.3882ZM75.6949 74.1472C77.6447 74.6088 79.6128 75.6621 81.1871 77.0863C83.5102 79.1885 84.4761 81.4168 84.2621 84.1811C83.95 88.2121 80.8896 91.4773 76.1856 92.7974C75.2039 93.073 72.7824 93.1086 51.4069 93.1601C25.266 93.2233 25.6391 93.2373 22.9859 92.0942C21.351 91.3898 19.0739 89.4114 18.2065 87.9416C17.0555 85.9917 16.709 83.1838 17.3451 80.964C18.4012 77.2788 22.1083 74.5462 26.7126 74.0588C27.4645 73.9792 38.5255 73.9033 51.2926 73.8898C71.5231 73.8688 74.6585 73.9018 75.6949 74.1472ZM24.886 116.999C13.7057 118.054 3.61369 125.822 0.930022 135.437C-0.414649 140.256 -0.222119 145.542 1.45735 149.908C2.88552 153.62 5.21007 156.865 8.51915 159.766C12.4642 163.223 16.6008 165.262 21.8984 166.36C24.8068 166.963 31.168 167.091 54.9327 167.025C76.5625 166.965 77.1703 166.953 78.9481 166.58C84.7842 165.354 89.9758 162.71 93.9638 158.933C97.587 155.501 99.7825 151.753 100.883 147.122C101.407 144.916 101.394 138.657 100.862 136.587C99.654 131.89 97.3949 128.15 93.7425 124.798C89.0302 120.474 83.094 117.719 76.8951 116.977C75.8163 116.848 73.193 116.785 70.3349 116.82L65.5723 116.877V124.522V132.166L70.3349 132.275C75.5585 132.393 76.0011 132.472 78.6998 133.769C80.3313 134.552 82.6311 136.637 83.3325 137.969C85.7174 142.495 83.6142 147.978 78.6441 150.191C75.8042 151.455 76.8779 151.409 50.557 151.412C27.5967 151.415 26.7765 151.404 25.2644 151.052C21.0346 150.069 18.0107 147.506 17.2606 144.269C17.1362 143.732 17.0345 142.648 17.0345 141.861C17.0345 139.31 17.9918 137.23 19.984 135.453C21.4239 134.168 22.5692 133.506 24.5087 132.838C25.7601 132.406 26.1703 132.368 30.6129 132.271L35.3755 132.166V124.522V116.877L31.0182 116.854C28.6217 116.842 25.8623 116.907 24.886 116.999Z" stroke="url(#paint0_linear_190_7)" stroke-opacity="0.7" stroke-width="7" mask="url(#path-1-inside-1_190_7)"/>
</g>
<defs>
<linearGradient id="paint0_linear_190_7" x1="109.5" y1="0" x2="109.5" y2="197.805" gradientUnits="userSpaceOnUse">
<stop stop-color="#7455E1"/>
<stop offset="1" stop-color="#3A10D3"/>
</linearGradient>
</defs>
</svg>
