<svg width="47" height="42" viewBox="0 0 47 42" fill="none" xmlns="http://www.w3.org/2000/svg">
<path id="CONX" fill-rule="evenodd" clip-rule="evenodd" d="M4.3517 0.297819C2.16287 0.309052 0.367089 0.322384 0.36113 0.327437C0.355172 0.33249 0.350257 0.999165 0.350257 1.80892C0.350257 3.07973 0.359303 3.28787 0.416454 3.33028C0.469822 3.36984 1.61754 3.36615 6.33393 3.31115C9.55214 3.27364 12.1935 3.25032 12.2036 3.25938C12.2138 3.26844 9.55575 4.29869 6.29701 5.54882L0.372004 7.82179L0.360521 9.09835C0.352344 10.008 0.363261 10.3902 0.398491 10.4282C0.440072 10.4729 2.09632 10.4814 10.8348 10.4814C17.4784 10.4814 21.2619 10.4677 21.3333 10.4435L21.4448 10.4056V8.89347C21.4448 7.61866 21.4349 7.37406 21.3816 7.33453C21.3323 7.29791 20.2834 7.30514 16.5864 7.36761C13.9838 7.41153 11.5119 7.45654 11.0933 7.46758C10.5465 7.482 10.3505 7.47593 10.3974 7.44608C10.4332 7.42323 12.9287 6.3679 15.9428 5.10098L21.4231 2.7975V1.53792V0.278345L14.8772 0.277879C11.277 0.277607 6.54053 0.286586 4.3517 0.297819ZM23.8795 0.318264C23.8336 0.367666 24.3583 1.78404 27.0143 8.78099C28.7687 13.4029 30.2019 17.2111 30.1991 17.2436C30.1964 17.2762 28.7442 21.362 26.9721 26.3232C25.1999 31.2844 23.75 35.3973 23.75 35.4629C23.75 35.5359 23.7767 35.5914 23.8188 35.6058C23.8566 35.6188 25.3548 35.6294 27.148 35.6294H30.4085L30.5044 35.5419C30.5807 35.4722 30.9997 34.1158 32.5575 28.8954C33.634 25.288 34.5254 22.3364 34.5384 22.3364C34.5591 22.3363 38.8424 37.1238 38.8424 37.1953C38.8424 37.2105 30.1485 37.2273 19.5226 37.2327L0.202899 37.2425L0.113476 37.3785C0.0267053 37.5105 0.0237042 37.576 0.0120043 39.5746L0 41.6346L0.0989922 41.8095L0.198028 41.9844L23.4857 41.9942C44.2177 42.0029 46.7845 41.9975 46.8739 41.9451C46.9292 41.9128 46.9858 41.8455 46.9999 41.7956C47.0166 41.7362 45.6181 37.48 42.9485 29.465C40.7062 22.7331 38.8716 17.2066 38.8715 17.184C38.8714 17.1615 40.3059 13.3758 42.0593 8.77154C44.4322 2.54015 45.2362 0.384496 45.2043 0.339175C45.166 0.284992 44.8026 0.277257 41.8801 0.268395C39.1615 0.260116 38.5849 0.26754 38.5175 0.311539C38.4571 0.35103 37.938 1.9214 36.4909 6.44331C35.3329 10.0616 34.5336 12.4957 34.516 12.4572C34.4997 12.4215 33.6368 9.69296 32.5984 6.39367C31.0879 1.59471 30.6918 0.381347 30.6179 0.326931C30.5316 0.263459 30.3043 0.258911 27.23 0.258911C24.3284 0.258911 23.9281 0.265985 23.8795 0.318264ZM9.91892 12.5794C5.74307 12.6026 5.16243 12.6131 4.87471 12.6704C3.64292 12.916 2.62603 13.4155 1.74098 14.2099C0.833387 15.0245 0.337861 15.8344 0.102602 16.8876C-0.0043059 17.3663 -0.00239217 18.4257 0.106169 18.875C0.360086 19.9257 0.877316 20.7829 1.72749 21.5619C2.61229 22.3728 3.55128 22.8468 4.73253 23.0789C5.14512 23.1599 5.28717 23.1631 10.0929 23.1985C15.6648 23.2395 16.2268 23.2326 16.8644 23.1163C18.729 22.7761 20.3504 21.6602 21.1882 20.1402C21.5738 19.4407 21.71 18.93 21.738 18.0781C21.7546 17.5747 21.7427 17.3183 21.6885 17.0128C21.3069 14.8599 19.2359 13.0275 16.7475 12.6411C16.1905 12.5546 15.5018 12.5484 9.91892 12.5794ZM16.245 15.9046C16.6635 16.0021 17.0859 16.2243 17.4237 16.5248C17.9223 16.9684 18.1296 17.4386 18.0836 18.0219C18.0167 18.8725 17.3599 19.5615 16.3503 19.84C16.1396 19.8982 15.62 19.9057 11.0325 19.9166C5.42239 19.9299 5.50246 19.9328 4.93304 19.6916C4.58217 19.543 4.09348 19.1255 3.90732 18.8154C3.66032 18.4039 3.58594 17.8115 3.72247 17.3431C3.94912 16.5655 4.74471 15.9888 5.73285 15.886C5.89421 15.8692 8.26802 15.8532 11.008 15.8503C15.3497 15.8459 16.0226 15.8529 16.245 15.9046ZM5.34084 24.9467C2.94141 25.1694 0.77554 26.8084 0.199594 28.8375C-0.0889886 29.8541 -0.0476693 30.9695 0.312765 31.8908C0.619267 32.6742 1.11814 33.3589 1.82831 33.9709C2.67496 34.7005 3.56272 35.1307 4.69965 35.3625C5.32383 35.4897 6.68902 35.5167 11.7892 35.5027C16.4312 35.49 16.5617 35.4876 16.9432 35.4088C18.1957 35.1501 19.3099 34.5922 20.1657 33.7952C20.9433 33.071 21.4145 32.2802 21.6506 31.303C21.7631 30.8374 21.7605 29.5169 21.6462 29.08C21.3869 28.0889 20.9021 27.2997 20.1183 26.5925C19.1069 25.6801 17.8329 25.0986 16.5026 24.9421C16.2711 24.9149 15.7081 24.9016 15.0947 24.9089L14.0726 24.9211V26.5341V28.1472L15.0947 28.17C16.2158 28.1951 16.3107 28.2118 16.8899 28.4854C17.24 28.6507 17.7336 29.0907 17.8841 29.3716C18.396 30.3266 17.9446 31.4836 16.878 31.9505C16.2685 32.2174 16.4989 32.2075 10.8501 32.2083C5.92257 32.2089 5.74655 32.2065 5.42204 32.1323C4.51428 31.9248 3.86531 31.3841 3.70434 30.7009C3.67763 30.5876 3.6558 30.359 3.6558 30.1929C3.6558 29.6546 3.86126 29.2157 4.28881 28.8407C4.59783 28.5697 4.84362 28.43 5.25985 28.2889C5.52843 28.1978 5.61646 28.1898 6.56989 28.1692L7.592 28.1472V26.5341V24.9211L6.65688 24.9162C6.14256 24.9136 5.55035 24.9273 5.34084 24.9467Z" fill="url(#paint0_linear_184_33)"/>
<defs>
<linearGradient id="paint0_linear_184_33" x1="23.5" y1="0.258911" x2="23.5" y2="41.9976" gradientUnits="userSpaceOnUse">
<stop stop-color="#6234FF"/>
<stop offset="1" stop-color="#8A68FF"/>
</linearGradient>
</defs>
</svg>
