<svg width="662" height="388" viewBox="0 0 662 388" fill="none" xmlns="http://www.w3.org/2000/svg">
<path d="M461.21 351.476C450.176 351.476 439.974 348.667 430.605 343.049C421.236 337.222 413.741 329.523 408.12 319.952C402.707 310.38 400 299.872 400 288.428L400.625 132.37C400.625 131.537 401.041 131.121 401.874 131.121H436.851C437.684 131.121 438.1 131.537 438.1 132.37V288.428C438.1 295.503 440.286 301.537 444.659 306.531C449.239 311.317 454.756 313.71 461.21 313.71C467.873 313.71 473.39 311.317 477.762 306.531C482.343 301.537 484.633 295.503 484.633 288.428V132.37C484.633 131.537 485.049 131.121 485.882 131.121H520.859C521.692 131.121 522.109 131.537 522.109 132.37L522.733 288.428C522.733 300.08 519.923 310.692 514.301 320.264C508.888 329.836 501.497 337.43 492.128 343.049C482.967 348.667 472.661 351.476 461.21 351.476Z" fill="url(#paint0_linear_184_30)"/>
<path d="M600.483 351.476C589.24 351.476 578.935 348.667 569.566 343.049C560.405 337.222 553.014 329.628 547.392 320.264C541.979 310.692 539.273 300.185 539.273 288.74V274.383C539.273 273.342 539.793 272.822 540.834 272.822H575.812C576.644 272.822 577.061 273.342 577.061 274.383V288.74C577.061 295.607 579.351 301.537 583.931 306.531C588.512 311.317 594.029 313.71 600.483 313.71C606.937 313.71 612.455 311.213 617.035 306.219C621.615 301.225 623.906 295.399 623.906 288.74C623.906 281.041 618.909 274.383 608.915 268.765C605.584 266.892 600.379 263.979 593.3 260.025C586.222 256.072 579.559 252.327 573.313 248.789C561.862 242.131 553.326 233.808 547.705 223.82C542.292 213.624 539.585 202.18 539.585 189.487C539.585 177.835 542.396 167.431 548.017 158.275C553.638 148.912 561.03 141.525 570.19 136.115C579.559 130.705 589.657 128 600.483 128C611.518 128 621.615 130.809 630.776 136.427C640.145 141.837 647.536 149.224 652.949 158.587C658.571 167.743 661.381 178.043 661.381 189.487V215.081C661.381 215.913 660.965 216.329 660.132 216.329H625.155C624.322 216.329 623.906 215.913 623.906 215.081L623.593 189.487C623.593 182.204 621.303 176.274 616.723 171.696C612.142 167.119 606.729 164.83 600.483 164.83C594.029 164.83 588.512 167.327 583.931 172.321C579.351 177.106 577.061 182.829 577.061 189.487C577.061 196.354 578.518 202.076 581.433 206.653C584.348 211.231 589.657 215.601 597.36 219.762C598.401 220.387 600.379 221.531 603.294 223.196C606.417 224.652 609.748 226.421 613.287 228.502C616.827 230.374 619.95 232.039 622.656 233.495C625.571 234.952 627.341 235.888 627.965 236.305C638.375 242.131 646.599 249.309 652.637 257.841C658.675 266.164 661.694 276.464 661.694 288.74C661.694 300.601 658.883 311.317 653.262 320.888C647.848 330.252 640.457 337.743 631.088 343.361C621.928 348.771 611.726 351.476 600.483 351.476Z" fill="url(#paint1_linear_184_30)"/>
<path d="M15.4694 348.233C13.8038 348.233 12.9711 347.505 12.9711 346.048L12.6588 133.497C12.6588 131.832 13.4915 131 15.1571 131H43.264L96.0423 253.974L94.4809 133.497C94.4809 131.832 95.4177 131 97.2915 131H128.209C129.458 131 130.083 131.832 130.083 133.497L130.395 346.361C130.395 347.609 129.875 348.233 128.834 348.233H101.351L47.3238 233.374L49.5099 345.736C49.5099 347.401 48.573 348.233 46.6992 348.233H15.4694Z" fill="url(#paint2_linear_184_30)"/>
<path d="M158.773 348.233C157.94 348.233 157.524 347.713 157.524 346.673L157.836 132.248C157.836 131.416 158.252 131 159.085 131H259.333C260.166 131 260.582 131.52 260.582 132.56V167.518C260.582 168.35 260.166 168.766 259.333 168.766H195.312V217.456H259.333C260.166 217.456 260.582 217.872 260.582 218.705L260.894 253.974C260.894 254.806 260.478 255.222 259.645 255.222H195.312V309.843H259.645C260.478 309.843 260.894 310.363 260.894 311.403V346.985C260.894 347.817 260.478 348.233 259.645 348.233H158.773Z" fill="url(#paint3_linear_184_30)"/>
<path d="M272.274 348.233C271.441 348.233 271.128 347.713 271.337 346.673L306.939 235.247L271.961 132.248C271.753 131.416 272.065 131 272.898 131H307.876C308.917 131 309.541 131.416 309.749 132.248L330.673 206.532L351.91 132.248C352.118 131.416 352.742 131 353.783 131H388.448C389.281 131 389.594 131.416 389.385 132.248L354.408 234.935L399.146 385.092C399.291 385.578 399.225 386.102 398.964 386.537C398.637 387.082 398.048 387.415 397.412 387.415H363.459C362.627 387.415 362.002 386.895 361.586 385.855L330.673 266.146L309.125 346.673C308.917 347.713 308.292 348.233 307.251 348.233H272.274Z" fill="url(#paint4_linear_184_30)"/>
<path d="M12.2217 360.659C12.2217 358.638 13.4169 357 14.8912 357H387.552C389.026 357 390.222 358.638 390.222 360.659V383.341C390.222 385.362 389.026 387 387.552 387H201.222H14.8912C13.4168 387 12.2217 385.362 12.2217 383.341V360.659Z" fill="url(#paint5_linear_184_30)"/>
<path d="M44.9006 119.614C38.7872 119.614 33.2296 118.113 28.2277 115.11C23.337 111.996 19.4466 107.881 16.5567 102.765C13.6667 97.6488 12.2217 91.9211 12.2217 85.5817L12.3884 33.532C12.3884 27.415 13.7778 21.8542 16.5566 16.8494C19.4466 11.7334 23.3369 7.67399 28.2277 4.67112C33.2295 1.55704 38.7872 -4.72804e-06 44.9006 -4.72819e-06C51.014 -4.72835e-06 56.5161 1.50143 61.4068 4.5043C66.2975 7.50716 70.1878 11.5666 73.0778 16.6826C75.9678 21.6874 77.4128 27.3038 77.4128 33.532L77.4128 41.206C77.4128 41.6509 77.1905 41.8733 76.7458 41.8733L58.0722 41.8733C57.6276 41.8733 57.4053 41.6509 57.4053 41.206L57.4053 33.532C57.4053 29.8618 56.1826 26.6921 53.7372 24.0229C51.403 21.3537 48.4575 20.0191 44.9006 20.0191C40.8991 20.0191 37.8424 21.4093 35.7305 24.1897C33.6186 26.859 32.5626 29.973 32.5626 33.532L32.5626 85.5817C32.5626 89.6967 33.7297 93.0332 36.064 95.5912C38.5093 98.1492 41.4549 99.4282 44.9006 99.4282C48.4575 99.4282 51.403 98.038 53.7372 95.2576C56.1826 92.3659 57.4053 89.1406 57.4053 85.5817L57.4053 77.9077C57.4053 77.4628 57.6276 77.2404 58.0722 77.2404L76.9126 77.2404C77.3572 77.2404 77.5795 77.4628 77.5795 77.9077L77.5795 85.5817C77.5795 91.9211 76.0789 97.6487 73.0778 102.765C70.1878 107.881 66.2975 111.996 61.4068 115.11C56.5161 118.113 51.014 119.614 44.9006 119.614Z" fill="url(#paint6_linear_184_30)"/>
<path d="M120.616 119.614C114.614 119.614 109.112 118.113 104.11 115.11C99.2196 111.996 95.2736 107.936 92.2725 102.932C89.2714 97.8156 87.7708 92.1991 87.7708 86.0822L87.9376 33.1984C87.9376 27.0814 89.3825 21.5205 92.2725 16.5158C95.2736 11.511 99.2751 7.50716 104.277 4.5043C109.279 1.50143 114.725 -4.72996e-06 120.616 -4.73011e-06C126.619 -4.73027e-06 132.065 1.50143 136.956 4.5043C141.847 7.50716 145.737 11.511 148.627 16.5158C151.628 21.5205 153.129 27.0814 153.129 33.1983L153.295 86.0822C153.295 92.1991 151.795 97.8156 148.794 102.932C145.904 107.936 141.958 111.996 136.956 115.11C132.065 118.113 126.619 119.614 120.616 119.614ZM120.616 99.4282C123.951 99.4282 126.841 98.0936 129.286 95.4244C131.843 92.644 133.121 89.5299 133.121 86.0822L132.954 33.1983C132.954 29.5282 131.787 26.4141 129.453 23.8561C127.119 21.2981 124.173 20.0191 120.616 20.0191C117.171 20.0191 114.225 21.2981 111.78 23.8561C109.334 26.3029 108.112 29.417 108.112 33.1983L108.112 86.0822C108.112 89.7523 109.334 92.922 111.78 95.5912C114.225 98.1492 117.171 99.4282 120.616 99.4282Z" fill="url(#paint7_linear_184_30)"/>
<path d="M167.473 117.946C166.583 117.946 166.139 117.557 166.139 116.778L165.972 3.16969C165.972 2.27995 166.417 1.83508 167.306 1.83508L182.311 1.83508L210.489 67.5645L209.655 3.16969C209.655 2.27995 210.155 1.83508 211.156 1.83508L227.662 1.83508C228.329 1.83508 228.662 2.27995 228.662 3.16969L228.829 116.945C228.829 117.612 228.551 117.946 227.995 117.946L213.323 117.946L184.479 56.554L185.646 116.611C185.646 117.501 185.146 117.946 184.145 117.946L167.473 117.946Z" fill="url(#paint8_linear_184_30)"/>
<path d="M44.9006 119.614C38.7872 119.614 33.2296 118.113 28.2277 115.11C23.337 111.996 19.4466 107.881 16.5567 102.765C13.6667 97.6488 12.2217 91.9211 12.2217 85.5817L12.3884 33.532C12.3884 27.415 13.7778 21.8542 16.5566 16.8494C19.4466 11.7334 23.3369 7.67399 28.2277 4.67112C33.2295 1.55704 38.7872 -4.72804e-06 44.9006 -4.72819e-06C51.014 -4.72835e-06 56.5161 1.50143 61.4068 4.5043C66.2975 7.50716 70.1878 11.5666 73.0778 16.6826C75.9678 21.6874 77.4128 27.3038 77.4128 33.532L77.4128 41.206C77.4128 41.6509 77.1905 41.8733 76.7458 41.8733L58.0722 41.8733C57.6276 41.8733 57.4053 41.6509 57.4053 41.206L57.4053 33.532C57.4053 29.8618 56.1826 26.6921 53.7372 24.0229C51.403 21.3537 48.4575 20.0191 44.9006 20.0191C40.8991 20.0191 37.8424 21.4093 35.7305 24.1897C33.6186 26.859 32.5626 29.973 32.5626 33.532L32.5626 85.5817C32.5626 89.6967 33.7297 93.0332 36.064 95.5912C38.5093 98.1492 41.4549 99.4282 44.9006 99.4282C48.4575 99.4282 51.403 98.038 53.7372 95.2576C56.1826 92.3659 57.4053 89.1406 57.4053 85.5817L57.4053 77.9077C57.4053 77.4628 57.6276 77.2404 58.0722 77.2404L76.9126 77.2404C77.3572 77.2404 77.5795 77.4628 77.5795 77.9077L77.5795 85.5817C77.5795 91.9211 76.0789 97.6487 73.0778 102.765C70.1878 107.881 66.2975 111.996 61.4068 115.11C56.5161 118.113 51.014 119.614 44.9006 119.614Z" fill="url(#paint9_linear_184_30)"/>
<path d="M120.616 119.614C114.614 119.614 109.112 118.113 104.11 115.11C99.2196 111.996 95.2736 107.936 92.2725 102.932C89.2714 97.8156 87.7708 92.1991 87.7708 86.0822L87.9376 33.1984C87.9376 27.0814 89.3825 21.5205 92.2725 16.5158C95.2736 11.511 99.2751 7.50716 104.277 4.5043C109.279 1.50143 114.725 -4.72996e-06 120.616 -4.73011e-06C126.619 -4.73027e-06 132.065 1.50143 136.956 4.5043C141.847 7.50716 145.737 11.511 148.627 16.5158C151.628 21.5205 153.129 27.0814 153.129 33.1983L153.295 86.0822C153.295 92.1991 151.795 97.8156 148.794 102.932C145.904 107.936 141.958 111.996 136.956 115.11C132.065 118.113 126.619 119.614 120.616 119.614ZM120.616 99.4282C123.951 99.4282 126.841 98.0936 129.286 95.4244C131.843 92.644 133.121 89.5299 133.121 86.0822L132.954 33.1983C132.954 29.5282 131.787 26.4141 129.453 23.8561C127.119 21.2981 124.173 20.0191 120.616 20.0191C117.171 20.0191 114.225 21.2981 111.78 23.8561C109.334 26.3029 108.112 29.417 108.112 33.1983L108.112 86.0822C108.112 89.7523 109.334 92.922 111.78 95.5912C114.225 98.1492 117.171 99.4282 120.616 99.4282Z" fill="url(#paint10_linear_184_30)"/>
<path d="M167.473 117.946C166.583 117.946 166.139 117.557 166.139 116.778L165.972 3.16969C165.972 2.27995 166.417 1.83508 167.306 1.83508L182.311 1.83508L210.489 67.5645L209.655 3.16969C209.655 2.27995 210.155 1.83508 211.156 1.83508L227.662 1.83508C228.329 1.83508 228.662 2.27995 228.662 3.16969L228.829 116.945C228.829 117.612 228.551 117.946 227.995 117.946L213.323 117.946L184.479 56.554L185.646 116.611C185.646 117.501 185.146 117.946 184.145 117.946L167.473 117.946Z" fill="url(#paint11_linear_184_30)"/>
<defs>
<linearGradient id="paint0_linear_184_30" x1="530.847" y1="128" x2="530.847" y2="351.476" gradientUnits="userSpaceOnUse">
<stop stop-color="#6132FF"/>
<stop offset="1" stop-color="#8C6AFF"/>
</linearGradient>
<linearGradient id="paint1_linear_184_30" x1="530.847" y1="128" x2="530.847" y2="351.476" gradientUnits="userSpaceOnUse">
<stop stop-color="#6132FF"/>
<stop offset="1" stop-color="#8C6AFF"/>
</linearGradient>
<linearGradient id="paint2_linear_184_30" x1="199.611" y1="131" x2="199.611" y2="387.415" gradientUnits="userSpaceOnUse">
<stop stop-color="#6132FF"/>
<stop offset="1" stop-color="#8C6AFF"/>
</linearGradient>
<linearGradient id="paint3_linear_184_30" x1="199.611" y1="131" x2="199.611" y2="387.415" gradientUnits="userSpaceOnUse">
<stop stop-color="#6132FF"/>
<stop offset="1" stop-color="#8C6AFF"/>
</linearGradient>
<linearGradient id="paint4_linear_184_30" x1="272.583" y1="127.879" x2="272.583" y2="387.415" gradientUnits="userSpaceOnUse">
<stop stop-color="#D0D0D0"/>
<stop offset="1" stop-color="#F1F1F1"/>
</linearGradient>
<linearGradient id="paint5_linear_184_30" x1="302.662" y1="121.878" x2="302.662" y2="387.009" gradientUnits="userSpaceOnUse">
<stop stop-color="#D0D0D0"/>
<stop offset="1" stop-color="#F1F1F1"/>
</linearGradient>
<linearGradient id="paint6_linear_184_30" x1="231.576" y1="390.529" x2="-27.9609" y2="390.529" gradientUnits="userSpaceOnUse">
<stop stop-color="#F0F0F0"/>
<stop offset="1" stop-color="#F1F1F1"/>
</linearGradient>
<linearGradient id="paint7_linear_184_30" x1="231.576" y1="390.529" x2="-27.9609" y2="390.529" gradientUnits="userSpaceOnUse">
<stop stop-color="#F0F0F0"/>
<stop offset="1" stop-color="#F1F1F1"/>
</linearGradient>
<linearGradient id="paint8_linear_184_30" x1="231.576" y1="390.529" x2="-27.9609" y2="390.529" gradientUnits="userSpaceOnUse">
<stop stop-color="#F0F0F0"/>
<stop offset="1" stop-color="#F1F1F1"/>
</linearGradient>
<linearGradient id="paint9_linear_184_30" x1="231.576" y1="390.529" x2="-27.9609" y2="390.529" gradientUnits="userSpaceOnUse">
<stop stop-color="#F0F0F0"/>
<stop offset="1" stop-color="#F1F1F1"/>
</linearGradient>
<linearGradient id="paint10_linear_184_30" x1="231.576" y1="390.529" x2="-27.9609" y2="390.529" gradientUnits="userSpaceOnUse">
<stop stop-color="#F0F0F0"/>
<stop offset="1" stop-color="#F1F1F1"/>
</linearGradient>
<linearGradient id="paint11_linear_184_30" x1="231.576" y1="390.529" x2="-27.9609" y2="390.529" gradientUnits="userSpaceOnUse">
<stop stop-color="#F0F0F0"/>
<stop offset="1" stop-color="#F1F1F1"/>
</linearGradient>
</defs>
</svg>
