<svg width="262" height="1190" viewBox="0 0 262 1190" fill="none" xmlns="http://www.w3.org/2000/svg">
<path d="M157.5 915.633V863.79L208.5 834.527V886.087L157.5 915.633Z" stroke="white"/>
<path d="M156.5 915.003V864.809L105.5 835.209V886.084L156.5 915.003Z" stroke="white"/>
<path d="M157 863.945L105.995 834.342L157 804.91L208.005 834.342L157 863.945Z" stroke="white"/>
<path d="M52.5 977.361L105 946.5V999.709L52.5 1029.86V977.361Z" fill="#4E2CC1"/>
<path d="M52.5 977.361L0 946.5V999.709L52.5 1029.86V977.361Z" fill="#6031FF"/>
<path d="M0 946.5L52.5 915.816L105 946.5L52.5 977.361L0 946.5Z" fill="url(#paint0_linear_174_250)"/>
<path d="M104.5 894.362L157 863.5V916.709L104.5 946.862V894.362Z" fill="#4E2CC1"/>
<path d="M104.5 894.362L52 863.5V916.709L104.5 946.862V894.362Z" fill="#6031FF"/>
<path d="M52 863.5L104.5 832.816L157 863.5L104.5 894.362L52 863.5Z" fill="url(#paint1_linear_174_250)"/>
<path d="M156.5 811.362L209 780.5V833.709L156.5 863.862V811.362Z" fill="#4E2CC1"/>
<path d="M156.5 811.362L104 780.5V833.709L156.5 863.862V811.362Z" fill="#6031FF"/>
<path d="M104 780.5L156.5 749.816L209 780.5L156.5 811.362L104 780.5Z" fill="url(#paint2_linear_174_250)"/>
<path d="M209.5 728.362L262 697.5V750.709L209.5 780.862V728.362Z" fill="#46CD42"/>
<path d="M209.5 728.362L157 697.5V750.709L209.5 780.862V728.362Z" fill="#15A710"/>
<path d="M52.5 1029.87L105 999.683V1053.21L52.5 1083.36V1029.87Z" fill="#46CD42"/>
<path d="M52.5 1029.86L0 999.696V1053.21L52.5 1083.36V1029.86Z" fill="#15A710"/>
<path d="M210 727.63V674.995L261.5 645.289V697.637L210 727.63Z" stroke="white"/>
<path d="M209 727.63V676.029L157.5 645.981V697.637L209 727.63Z" stroke="white"/>
<path d="M209.497 675.163L157.991 645.11L209.503 615.076L261.009 644.509L209.497 675.163Z" stroke="white"/>
<path d="M210.5 613.424V561.284L261.5 530.88V583.713L210.5 613.424Z" stroke="white"/>
<path d="M209.5 613.406V561.336L157.5 531.281V582.942L209.5 613.406Z" stroke="white"/>
<path d="M209.998 560.468L157.999 530.415L210.002 500.381L261.5 529.53V530.109L209.998 560.468Z" stroke="white"/>
<path d="M157.5 1083.97L210 1053.11V1106.32L157.5 1136.47V1083.97Z" fill="#46CD42"/>
<path d="M157.5 1083.97L105 1053.11V1106.32L157.5 1136.47V1083.97Z" fill="#15A710"/>
<path d="M105 1053.11L157.5 1022.91L210 1053.11L157.5 1084.16L105 1053.11Z" fill="#29F322"/>
<path d="M262 864.5L209 833.11V886.319L262 917V864.5Z" fill="#15A710"/>
<path d="M209 833.11L262 802.5V864.5L209 833.11Z" fill="#29F322"/>
<path d="M52.5 862.637V810.753L103.5 781.858V833.387L52.5 862.637Z" stroke="white"/>
<path d="M104.5 780.138V728.292L156.5 698.858V750.387L104.5 780.138Z" stroke="white"/>
<path d="M53.501 1187.07V1136.79L104.5 1107.19L104.5 1156.43L53.501 1187.07Z" stroke="white"/>
<path d="M157.998 1188.42V1136.76L209.498 1107.18V1156.22L157.998 1188.42Z" stroke="white"/>
<path d="M261.5 643.638L210.502 614.496L261.5 584.869L261.5 643.638Z" stroke="white"/>
<path d="M52.4917 1135.62L52.0027 1083.64L0.5 1054.07V1104.65L52.4917 1135.62Z" stroke="white"/>
<path d="M261.5 1186.13V1136.29L210.5 1107.18V1156.21L261.5 1186.13Z" stroke="white"/>
<path d="M261.5 1135.14V1083.79L210.5 1053.98V1105.99L261.5 1135.14Z" stroke="white"/>
<path d="M210 83.3347L262 52.5V105.5L210 135.321V83.3347Z" fill="#4E2CC1"/>
<path d="M210 83.3425L157.5 51.9675V105.177L210 135.329V83.3425Z" fill="#6031FF"/>
<path d="M157.5 51.9785L210 21.7943L262 52.1862V52.7724L210 83.3399L157.5 51.9785Z" fill="url(#paint3_linear_174_250)"/>
<path d="M262 166L210 135.347V188.557L262 218.5V166Z" fill="#6031FF"/>
<path d="M210 135.358L262 105.5V166.5L210 135.358Z" fill="url(#paint4_linear_174_250)"/>
<path d="M262 218.5L210 187.108V240.318L262 270.5V218.5Z" fill="#15A710"/>
<path d="M209.99 303.322L157.969 272.711L210.008 240.667L261.5 270.455V270.5L209.99 303.322Z" stroke="white"/>
<path d="M209.502 188.03V239.829L157.501 271.838V221.879L209.502 188.03Z" stroke="white"/>
<path d="M104.99 84.8665L52.9677 54.2546L105.008 22.2098L156.539 52.0205L104.99 84.8665Z" stroke="white"/>
<defs>
<linearGradient id="paint0_linear_174_250" x1="-5.23006e-10" y1="947" x2="105" y2="947" gradientUnits="userSpaceOnUse">
<stop stop-color="#7D5CEF"/>
<stop offset="1" stop-color="#7D5CEF"/>
</linearGradient>
<linearGradient id="paint1_linear_174_250" x1="52" y1="864" x2="157" y2="864" gradientUnits="userSpaceOnUse">
<stop stop-color="#7D5CEF"/>
<stop offset="1" stop-color="#7D5CEF"/>
</linearGradient>
<linearGradient id="paint2_linear_174_250" x1="104" y1="781" x2="209" y2="781" gradientUnits="userSpaceOnUse">
<stop stop-color="#7D5CEF"/>
<stop offset="1" stop-color="#7D5CEF"/>
</linearGradient>
<linearGradient id="paint3_linear_174_250" x1="158" y1="53.1085" x2="263" y2="53.1085" gradientUnits="userSpaceOnUse">
<stop stop-color="#7D5CEF"/>
<stop offset="1" stop-color="#7D5CEF"/>
</linearGradient>
<linearGradient id="paint4_linear_174_250" x1="210.5" y1="136.488" x2="315.5" y2="136.488" gradientUnits="userSpaceOnUse">
<stop stop-color="#7D5CEF"/>
<stop offset="1" stop-color="#7D5CEF"/>
</linearGradient>
</defs>
</svg>
