<svg width="579" height="354" viewBox="0 0 579 354" fill="none" xmlns="http://www.w3.org/2000/svg">
<path d="M0 301L52 270.5V323.709L0 353.584V301Z" fill="#15A710"/>
<path d="M0 249L52 218.5V271.709L0 301.5V249Z" fill="#6031FF"/>
<path d="M157.5 279.361L105 248.5V301.709L157.5 331.861V279.361Z" fill="#4E2CC1"/>
<path d="M157.5 279.361L210 248.5V301.709L157.5 331.861V279.361Z" fill="#6031FF"/>
<path d="M210 248.5L157.5 217.816L105 248.5L157.5 279.361L210 248.5Z" fill="url(#paint0_linear_174_155)"/>
<path d="M0 196.5L52 166.11V219.319L0 249.157V196.5Z" fill="#15A710"/>
<path d="M52 166.11L0 136.202L6.7686e-07 196.861L52 166.11Z" fill="#29F322"/>
<path d="M51.9998 111L0 83V136.195L51.9998 166.18V111Z" fill="#46CD42"/>
<path d="M51.9998 111L104 82.781V136.319L51.9999 166.173L51.9998 111Z" fill="#15A710"/>
<path d="M104 82.7857L51.5 52.5906L0 82.2105V83.318L52 111L104 82.7857Z" fill="#29F322"/>
<path d="M368 276.324L315 248V301.324L368 331.505V276.324Z" fill="#46CD42"/>
<path d="M368 276.324L420 248.105V301.643L368 331.498L368 276.324Z" fill="#15A710"/>
<path d="M419.981 248.121L367.481 217.926L314.981 248.011L367.981 276.335L419.981 248.121Z" fill="#29F322"/>
<path d="M473 276.324L420 248.114V301.324L473 331.505V276.324Z" fill="#46CD42"/>
<path d="M473 276.324L525 248.105V301.643L473 331.498L473 276.324Z" fill="#15A710"/>
<path d="M525 248.11L472.5 217.915L420 248.11L473 276.324L525 248.11Z" fill="#29F322"/>
<path d="M104.5 247.654V196.292L52.5 166.996V219.03L104.5 247.654Z" stroke="white"/>
<path d="M105.5 247.629V196.288L156.999 166.369V217.531L105.5 247.629Z" stroke="white"/>
<path d="M104.996 195.427L156.49 165.511L104.006 136.572L53.0034 166.128L104.996 195.427Z" stroke="white"/>
<path d="M262.5 329.869V278.507L210.5 249.211V301.245L262.5 329.869Z" stroke="white"/>
<path d="M367.5 165.633V112.295L315.5 83.5064V135.548L367.5 165.633Z" stroke="white"/>
<path d="M263.5 329.844V278.503L314.999 248.584V299.746L263.5 329.844Z" stroke="white"/>
<path d="M262.996 277.641L314.49 247.726L262.006 218.787L211.003 248.343L262.996 277.641Z" stroke="white"/>
<path d="M210.5 248.129V196.788L261.999 166.869V218.031L210.5 248.129Z" stroke="white"/>
<path d="M157 164.653V113.472L104.5 83.6443L104.5 135.705L157 164.653Z" stroke="white"/>
<path d="M578 329.874V277.796L525.5 248.973V301.341L578 329.874Z" stroke="white"/>
<path d="M0.5 81.6315V29.7898L50.9991 0.862636V52.3085L0.5 81.6315Z" stroke="white"/>
<path d="M315 247.457L366.491 217.919L313.507 188.177L263.487 217.937L315 247.457Z" stroke="white"/>
<path d="M210 195.924L261.503 166.004L209.997 136.572L158.004 165.643L210 195.924Z" stroke="white"/>
<path d="M262.5 113.5L210 82.6386V136L262.5 166V113.5Z" fill="#4E2CC1"/>
<path d="M262.5 113.5L315 82.6385V135.848L262.5 166V113.5Z" fill="#6031FF"/>
<path d="M315 82.6385L262.5 51.9544L210 82.6385L262.5 113.5L315 82.6385Z" fill="url(#paint1_linear_174_155)"/>
<defs>
<linearGradient id="paint0_linear_174_155" x1="210" y1="249" x2="105" y2="249" gradientUnits="userSpaceOnUse">
<stop stop-color="#7D5CEF"/>
<stop offset="1" stop-color="#7D5CEF"/>
</linearGradient>
<linearGradient id="paint1_linear_174_155" x1="315" y1="83" x2="210" y2="83" gradientUnits="userSpaceOnUse">
<stop stop-color="#7D5CEF"/>
<stop offset="1" stop-color="#7D5CEF"/>
</linearGradient>
</defs>
</svg>
