<svg width="1920" height="2665" viewBox="0 0 1920 2665" fill="none" xmlns="http://www.w3.org/2000/svg">
<g filter="url(#filter0_f_576_16)">
<path d="M6.10352e-05 0H1922V2165H6.10352e-05L1.90735e-05 1280.66L3.8147e-05 916.34L6.10352e-05 0Z" fill="#090909"/>
<path d="M1921.5 192C1850.52 192 1780.24 205.98 1714.66 233.143C1649.08 260.306 1589.5 300.119 1539.31 350.309C1489.12 400.499 1449.31 460.083 1422.14 525.66C1394.98 591.236 1381 661.521 1381 732.5C1381 803.479 1394.98 873.764 1422.14 939.34C1449.31 1004.92 1489.12 1064.5 1539.31 1114.69C1589.5 1164.88 1649.08 1204.69 1714.66 1231.86C1780.24 1259.02 1850.52 1273 1921.5 1273V192Z" fill="#D9D9D9" fill-opacity="0.27"/>
<path d="M6.10352e-05 531C70.9795 531 141.264 544.98 206.84 572.143C272.417 599.306 332.001 639.119 382.191 689.309C432.381 739.499 472.194 799.083 499.357 864.66C526.52 930.236 540.5 1000.52 540.5 1071.5C540.5 1142.48 526.52 1212.76 499.357 1278.34C472.194 1343.92 432.381 1403.5 382.191 1453.69C332.001 1503.88 272.417 1543.69 206.84 1570.86C141.264 1598.02 70.9795 1612 0 1612L1.90735e-05 1280.66L3.8147e-05 916.34L6.10352e-05 531Z" fill="#D9D9D9" fill-opacity="0.27"/>
<path d="M1623 227.5C1623 346.517 1526.52 443 1407.5 443C1288.48 443 1192 346.517 1192 227.5C1192 108.483 1288.48 12 1407.5 12C1526.52 12 1623 108.483 1623 227.5Z" fill="#6031FF"/>
<path d="M567 1098.5C567 1268.33 426.417 1406 253 1406C149.202 1406 57.167 1356.68 1.90735e-05 1280.66L3.8147e-05 916.34C57.167 840.322 149.202 791 253 791C426.417 791 567 928.672 567 1098.5Z" fill="#6031FF" fill-opacity="0.49"/>
<path d="M1920 496.5C1920 615.517 1823.52 712 1704.5 712C1585.48 712 1489 615.517 1489 496.5C1489 377.483 1585.48 281 1704.5 281C1823.52 281 1920 377.483 1920 496.5Z" fill="#25DD1F" fill-opacity="0.66"/>
<path d="M499 1444.5C499 1563.52 402.517 1660 283.5 1660C164.483 1660 68 1563.52 68 1444.5C68 1325.48 164.483 1229 283.5 1229C402.517 1229 499 1325.48 499 1444.5Z" fill="#25DD1F" fill-opacity="0.47"/>
</g>
<defs>
<filter id="filter0_f_576_16" x="-500" y="-500" width="2922" height="3165" filterUnits="userSpaceOnUse" color-interpolation-filters="sRGB">
<feFlood flood-opacity="0" result="BackgroundImageFix"/>
<feBlend mode="normal" in="SourceGraphic" in2="BackgroundImageFix" result="shape"/>
<feGaussianBlur stdDeviation="250" result="effect1_foregroundBlur_576_16"/>
</filter>
</defs>
</svg>
