<svg width="1920" height="3009" viewBox="0 0 1920 3009" fill="none" xmlns="http://www.w3.org/2000/svg">
<g filter="url(#filter0_f_580_3)">
<path d="M1920 3008C1920 3008 1738.89 3008 1636.5 3008C1300.99 3008 1029 2755.94 1029 2445C1029 2134.06 1300.99 1882 1636.5 1882C1738.89 1882 1835.37 1905.48 1920 1946.94V3008Z" fill="#D9D9D9" fill-opacity="0.15"/>
</g>
<g filter="url(#filter1_f_580_3)">
<path d="M894 1241.5C894 1522.34 659.173 1750 369.5 1750C225.363 1750 94.805 1693.63 0 1602.39C0 1602.39 0 1082.76 0 800.888H107.5H621.023C778.214 884.065 894 1041.43 894 1241.5Z" fill="#D9D9D9" fill-opacity="0.2"/>
</g>
<defs>
<filter id="filter0_f_580_3" x="229" y="1082" width="2491" height="2726" filterUnits="userSpaceOnUse" color-interpolation-filters="sRGB">
<feFlood flood-opacity="0" result="BackgroundImageFix"/>
<feBlend mode="normal" in="SourceGraphic" in2="BackgroundImageFix" result="shape"/>
<feGaussianBlur stdDeviation="400" result="effect1_foregroundBlur_580_3"/>
</filter>
<filter id="filter1_f_580_3" x="-800" y="0.887695" width="2494" height="2549.11" filterUnits="userSpaceOnUse" color-interpolation-filters="sRGB">
<feFlood flood-opacity="0" result="BackgroundImageFix"/>
<feBlend mode="normal" in="SourceGraphic" in2="BackgroundImageFix" result="shape"/>
<feGaussianBlur stdDeviation="400" result="effect1_foregroundBlur_580_3"/>
</filter>
</defs>
</svg>
